<svg xmlns="http://www.w3.org/2000/svg" xmlns:xlink="http://www.w3.org/1999/xlink" width="1250" zoomAndPan="magnify" viewBox="0 0 6361.5 1794.749925" height="275" preserveAspectRatio="xMidYMid meet" version="1.0"><defs><g/><clipPath id="2657ef379a"><path d="M 0.191406 1255.207031 L 539.308594 1255.207031 L 539.308594 1794.320312 L 0.191406 1794.320312 Z M 0.191406 1255.207031 " clip-rule="nonzero"/></clipPath><clipPath id="7417a895f0"><path d="M 269.75 1255.207031 C 120.878906 1255.207031 0.191406 1375.890625 0.191406 1524.765625 C 0.191406 1673.636719 120.878906 1794.320312 269.75 1794.320312 C 418.621094 1794.320312 539.308594 1673.636719 539.308594 1524.765625 C 539.308594 1375.890625 418.621094 1255.207031 269.75 1255.207031 Z M 269.75 1255.207031 " clip-rule="nonzero"/></clipPath><clipPath id="76f4b3f1d3"><path d="M 1667.5625 888.753906 L 2206.679688 888.753906 L 2206.679688 1427.867188 L 1667.5625 1427.867188 Z M 1667.5625 888.753906 " clip-rule="nonzero"/></clipPath><clipPath id="1d4c7a14e8"><path d="M 1937.121094 888.753906 C 1788.25 888.753906 1667.5625 1009.4375 1667.5625 1158.308594 C 1667.5625 1307.183594 1788.25 1427.867188 1937.121094 1427.867188 C 2085.992188 1427.867188 2206.679688 1307.183594 2206.679688 1158.308594 C 2206.679688 1009.4375 2085.992188 888.753906 1937.121094 888.753906 Z M 1937.121094 888.753906 " clip-rule="nonzero"/></clipPath><clipPath id="34c9d053c6"><path d="M 3682.089844 478.636719 L 4221.207031 478.636719 L 4221.207031 1017.75 L 3682.089844 1017.75 Z M 3682.089844 478.636719 " clip-rule="nonzero"/></clipPath><clipPath id="bc6a272c56"><path d="M 3951.648438 478.636719 C 3802.777344 478.636719 3682.089844 599.320312 3682.089844 748.195312 C 3682.089844 897.066406 3802.777344 1017.75 3951.648438 1017.75 C 4100.519531 1017.75 4221.207031 897.066406 4221.207031 748.195312 C 4221.207031 599.320312 4100.519531 478.636719 3951.648438 478.636719 Z M 3951.648438 478.636719 " clip-rule="nonzero"/></clipPath><clipPath id="578f28de0a"><path d="M 5881.660156 0 L 6360.296875 0 L 6360.296875 478.636719 L 5881.660156 478.636719 Z M 5881.660156 0 " clip-rule="nonzero"/></clipPath><clipPath id="656bdd143f"><path d="M 6120.976562 0 C 5988.804688 0 5881.660156 107.148438 5881.660156 239.320312 C 5881.660156 371.492188 5988.804688 478.636719 6120.976562 478.636719 C 6253.148438 478.636719 6360.296875 371.492188 6360.296875 239.320312 C 6360.296875 107.148438 6253.148438 0 6120.976562 0 Z M 6120.976562 0 " clip-rule="nonzero"/></clipPath><clipPath id="ea03ca722e"><path d="M 576 1146 L 1636 1146 L 1636 1469 L 576 1469 Z M 576 1146 " clip-rule="nonzero"/></clipPath><clipPath id="cf98899d0b"><path d="M 539.308594 1318.507812 L 1608.824219 1070.71875 L 1667.386719 1323.488281 L 597.871094 1571.277344 Z M 539.308594 1318.507812 " clip-rule="nonzero"/></clipPath><clipPath id="9083028ea7"><path d="M 539.308594 1318.507812 L 1608.824219 1070.71875 L 1667.386719 1323.488281 L 597.871094 1571.277344 Z M 539.308594 1318.507812 " clip-rule="nonzero"/></clipPath><clipPath id="355e1dbec6"><path d="M 2254 699 L 3641 699 L 3641 1121 L 2254 1121 Z M 2254 699 " clip-rule="nonzero"/></clipPath><clipPath id="db3622b739"><path d="M 2206.679688 924.730469 L 3605.671875 600.609375 L 3682.175781 930.8125 L 2283.183594 1254.933594 Z M 2206.679688 924.730469 " clip-rule="nonzero"/></clipPath><clipPath id="b811707655"><path d="M 2206.679688 924.730469 L 3605.671875 600.609375 L 3682.175781 930.8125 L 2283.183594 1254.933594 Z M 2206.679688 924.730469 " clip-rule="nonzero"/></clipPath><clipPath id="e74544943e"><path d="M 4240 209 L 5872 209 L 5872 706 L 4240 706 Z M 4240 209 " clip-rule="nonzero"/></clipPath><clipPath id="0ac702d33a"><path d="M 4184.132812 474.878906 L 5830.050781 93.546875 L 5920.09375 482.199219 L 4274.175781 863.527344 Z M 4184.132812 474.878906 " clip-rule="nonzero"/></clipPath><clipPath id="0d7e2b759f"><path d="M 4184.132812 474.878906 L 5830.050781 93.546875 L 5920.09375 482.199219 L 4274.175781 863.527344 Z M 4184.132812 474.878906 " clip-rule="nonzero"/></clipPath></defs><g clip-path="url(#2657ef379a)"><g clip-path="url(#7417a895f0)"><path fill="#bda6ff" d="M 0.191406 1255.207031 L 539.308594 1255.207031 L 539.308594 1794.320312 L 0.191406 1794.320312 Z M 0.191406 1255.207031 " fill-opacity="1" fill-rule="nonzero"/></g></g><g fill="#ffffff" fill-opacity="1"><g transform="translate(189.740973, 1578.411875)"><g><path d="M 46.875 1.484375 C 34.832031 1.484375 25.5 -3.394531 18.875 -13.15625 C 12.257812 -22.914062 8.953125 -36.710938 8.953125 -54.546875 C 8.953125 -72.222656 12.285156 -85.976562 18.953125 -95.8125 C 25.628906 -105.65625 34.9375 -110.578125 46.875 -110.578125 C 58.800781 -110.578125 68.101562 -105.65625 74.78125 -95.8125 C 81.457031 -85.976562 84.796875 -72.222656 84.796875 -54.546875 C 84.796875 -36.710938 81.484375 -22.914062 74.859375 -13.15625 C 68.234375 -3.394531 58.90625 1.484375 46.875 1.484375 Z M 46.875 -10.21875 C 54.820312 -10.21875 61 -14.050781 65.40625 -21.71875 C 69.8125 -29.394531 72.015625 -40.335938 72.015625 -54.546875 C 72.015625 -68.710938 69.789062 -79.671875 65.34375 -87.421875 C 60.90625 -95.179688 54.75 -99.0625 46.875 -99.0625 C 38.988281 -99.0625 32.828125 -95.179688 28.390625 -87.421875 C 23.953125 -79.671875 21.734375 -68.710938 21.734375 -54.546875 C 21.734375 -40.335938 23.941406 -29.394531 28.359375 -21.71875 C 32.785156 -14.050781 38.957031 -10.21875 46.875 -10.21875 Z M 46.875 -10.21875 "/></g></g></g><g fill="#ffffff" fill-opacity="1"><g transform="translate(283.477943, 1578.411875)"><g><path d="M 46.234375 -109.078125 L 46.234375 0 L 33.015625 0 L 33.015625 -89.90625 L 32.171875 -89.90625 C 31.671875 -88.914062 30.390625 -87.785156 28.328125 -86.515625 C 26.273438 -85.253906 23.613281 -84.15625 20.34375 -83.21875 C 17.082031 -82.28125 13.351562 -81.8125 9.15625 -81.8125 L 9.15625 -92.890625 C 13.382812 -92.890625 17.039062 -93.648438 20.125 -95.171875 C 23.21875 -96.703125 25.800781 -98.492188 27.875 -100.546875 C 29.957031 -102.609375 31.539062 -104.472656 32.625 -106.140625 C 33.707031 -107.816406 34.335938 -108.796875 34.515625 -109.078125 Z M 46.234375 -109.078125 "/></g></g></g><g clip-path="url(#76f4b3f1d3)"><g clip-path="url(#1d4c7a14e8)"><path fill="#bda6ff" d="M 1667.5625 888.753906 L 2206.679688 888.753906 L 2206.679688 1427.867188 L 1667.5625 1427.867188 Z M 1667.5625 888.753906 " fill-opacity="1" fill-rule="nonzero"/></g></g><g fill="#ffffff" fill-opacity="1"><g transform="translate(1844.856017, 1211.958399)"><g><path d="M 46.875 1.484375 C 34.832031 1.484375 25.5 -3.394531 18.875 -13.15625 C 12.257812 -22.914062 8.953125 -36.710938 8.953125 -54.546875 C 8.953125 -72.222656 12.285156 -85.976562 18.953125 -95.8125 C 25.628906 -105.65625 34.9375 -110.578125 46.875 -110.578125 C 58.800781 -110.578125 68.101562 -105.65625 74.78125 -95.8125 C 81.457031 -85.976562 84.796875 -72.222656 84.796875 -54.546875 C 84.796875 -36.710938 81.484375 -22.914062 74.859375 -13.15625 C 68.234375 -3.394531 58.90625 1.484375 46.875 1.484375 Z M 46.875 -10.21875 C 54.820312 -10.21875 61 -14.050781 65.40625 -21.71875 C 69.8125 -29.394531 72.015625 -40.335938 72.015625 -54.546875 C 72.015625 -68.710938 69.789062 -79.671875 65.34375 -87.421875 C 60.90625 -95.179688 54.75 -99.0625 46.875 -99.0625 C 38.988281 -99.0625 32.828125 -95.179688 28.390625 -87.421875 C 23.953125 -79.671875 21.734375 -68.710938 21.734375 -54.546875 C 21.734375 -40.335938 23.941406 -29.394531 28.359375 -21.71875 C 32.785156 -14.050781 38.957031 -10.21875 46.875 -10.21875 Z M 46.875 -10.21875 "/></g></g></g><g fill="#ffffff" fill-opacity="1"><g transform="translate(1938.592986, 1211.958399)"><g><path d="M 11.296875 0 L 11.296875 -9.59375 L 47.296875 -49 C 51.523438 -53.613281 55.003906 -57.632812 57.734375 -61.0625 C 60.472656 -64.488281 62.503906 -67.71875 63.828125 -70.75 C 65.160156 -73.789062 65.828125 -76.976562 65.828125 -80.3125 C 65.828125 -86.070312 63.828125 -90.632812 59.828125 -94 C 55.835938 -97.375 50.878906 -99.0625 44.953125 -99.0625 C 38.628906 -99.0625 33.601562 -97.171875 29.875 -93.390625 C 26.144531 -89.609375 24.28125 -84.613281 24.28125 -78.40625 L 11.71875 -78.40625 C 11.71875 -84.789062 13.191406 -90.394531 16.140625 -95.21875 C 19.085938 -100.050781 23.109375 -103.816406 28.203125 -106.515625 C 33.296875 -109.222656 39.019531 -110.578125 45.375 -110.578125 C 51.769531 -110.578125 57.429688 -109.222656 62.359375 -106.515625 C 67.296875 -103.816406 71.164062 -100.175781 73.96875 -95.59375 C 76.78125 -91.019531 78.1875 -85.925781 78.1875 -80.3125 C 78.1875 -76.300781 77.46875 -72.382812 76.03125 -68.5625 C 74.59375 -64.75 72.109375 -60.507812 68.578125 -55.84375 C 65.046875 -51.175781 60.15625 -45.488281 53.90625 -38.78125 L 29.40625 -12.5625 L 29.40625 -11.71875 L 80.109375 -11.71875 L 80.109375 0 Z M 11.296875 0 "/></g></g></g><g clip-path="url(#34c9d053c6)"><g clip-path="url(#bc6a272c56)"><path fill="#bda6ff" d="M 3682.089844 478.636719 L 4221.207031 478.636719 L 4221.207031 1017.75 L 3682.089844 1017.75 Z M 3682.089844 478.636719 " fill-opacity="1" fill-rule="nonzero"/></g></g><g fill="#ffffff" fill-opacity="1"><g transform="translate(3857.039899, 801.841952)"><g><path d="M 46.875 1.484375 C 34.832031 1.484375 25.5 -3.394531 18.875 -13.15625 C 12.257812 -22.914062 8.953125 -36.710938 8.953125 -54.546875 C 8.953125 -72.222656 12.285156 -85.976562 18.953125 -95.8125 C 25.628906 -105.65625 34.9375 -110.578125 46.875 -110.578125 C 58.800781 -110.578125 68.101562 -105.65625 74.78125 -95.8125 C 81.457031 -85.976562 84.796875 -72.222656 84.796875 -54.546875 C 84.796875 -36.710938 81.484375 -22.914062 74.859375 -13.15625 C 68.234375 -3.394531 58.90625 1.484375 46.875 1.484375 Z M 46.875 -10.21875 C 54.820312 -10.21875 61 -14.050781 65.40625 -21.71875 C 69.8125 -29.394531 72.015625 -40.335938 72.015625 -54.546875 C 72.015625 -68.710938 69.789062 -79.671875 65.34375 -87.421875 C 60.90625 -95.179688 54.75 -99.0625 46.875 -99.0625 C 38.988281 -99.0625 32.828125 -95.179688 28.390625 -87.421875 C 23.953125 -79.671875 21.734375 -68.710938 21.734375 -54.546875 C 21.734375 -40.335938 23.941406 -29.394531 28.359375 -21.71875 C 32.785156 -14.050781 38.957031 -10.21875 46.875 -10.21875 Z M 46.875 -10.21875 "/></g></g></g><g fill="#ffffff" fill-opacity="1"><g transform="translate(3950.776869, 801.841952)"><g><path d="M 48.140625 1.484375 C 41.117188 1.484375 34.863281 0.28125 29.375 -2.125 C 23.882812 -4.539062 19.53125 -7.90625 16.3125 -12.21875 C 13.101562 -16.53125 11.359375 -21.546875 11.078125 -27.265625 L 24.5 -27.265625 C 24.894531 -22.015625 27.316406 -17.859375 31.765625 -14.796875 C 36.222656 -11.742188 41.613281 -10.21875 47.9375 -10.21875 C 54.925781 -10.21875 60.6875 -12.003906 65.21875 -15.578125 C 69.75 -19.148438 72.015625 -23.828125 72.015625 -29.609375 C 72.015625 -35.648438 69.785156 -40.566406 65.328125 -44.359375 C 60.867188 -48.160156 54.503906 -50.0625 46.234375 -50.0625 L 37.5 -50.0625 L 37.5 -61.78125 L 46.234375 -61.78125 C 52.691406 -61.78125 57.960938 -63.5 62.046875 -66.9375 C 66.128906 -70.382812 68.171875 -74.988281 68.171875 -80.75 C 68.171875 -86.25 66.378906 -90.675781 62.796875 -94.03125 C 59.210938 -97.382812 54.398438 -99.0625 48.359375 -99.0625 C 44.597656 -99.0625 41.054688 -98.378906 37.734375 -97.015625 C 34.410156 -95.648438 31.703125 -93.679688 29.609375 -91.109375 C 27.515625 -88.535156 26.378906 -85.4375 26.203125 -81.8125 L 13.421875 -81.8125 C 13.628906 -87.53125 15.347656 -92.546875 18.578125 -96.859375 C 21.816406 -101.171875 26.050781 -104.535156 31.28125 -106.953125 C 36.519531 -109.367188 42.285156 -110.578125 48.578125 -110.578125 C 55.316406 -110.578125 61.101562 -109.21875 65.9375 -106.5 C 70.769531 -103.78125 74.476562 -100.203125 77.0625 -95.765625 C 79.65625 -91.328125 80.953125 -86.535156 80.953125 -81.390625 C 80.953125 -75.242188 79.34375 -70.003906 76.125 -65.671875 C 72.914062 -61.335938 68.5625 -58.335938 63.0625 -56.671875 L 63.0625 -55.8125 C 69.945312 -54.675781 75.320312 -51.753906 79.1875 -47.046875 C 83.0625 -42.347656 85 -36.535156 85 -29.609375 C 85 -23.679688 83.390625 -18.363281 80.171875 -13.65625 C 76.960938 -8.957031 72.585938 -5.257812 67.046875 -2.5625 C 61.515625 0.132812 55.210938 1.484375 48.140625 1.484375 Z M 48.140625 1.484375 "/></g></g></g><g clip-path="url(#578f28de0a)"><g clip-path="url(#656bdd143f)"><path fill="#bda6ff" d="M 5881.660156 0 L 6360.296875 0 L 6360.296875 478.636719 L 5881.660156 478.636719 Z M 5881.660156 0 " fill-opacity="1" fill-rule="nonzero"/></g></g><g fill="#ffffff" fill-opacity="1"><g transform="translate(6025.944475, 293.209133)"><g><path d="M 46.875 1.484375 C 34.832031 1.484375 25.5 -3.394531 18.875 -13.15625 C 12.257812 -22.914062 8.953125 -36.710938 8.953125 -54.546875 C 8.953125 -72.222656 12.285156 -85.976562 18.953125 -95.8125 C 25.628906 -105.65625 34.9375 -110.578125 46.875 -110.578125 C 58.800781 -110.578125 68.101562 -105.65625 74.78125 -95.8125 C 81.457031 -85.976562 84.796875 -72.222656 84.796875 -54.546875 C 84.796875 -36.710938 81.484375 -22.914062 74.859375 -13.15625 C 68.234375 -3.394531 58.90625 1.484375 46.875 1.484375 Z M 46.875 -10.21875 C 54.820312 -10.21875 61 -14.050781 65.40625 -21.71875 C 69.8125 -29.394531 72.015625 -40.335938 72.015625 -54.546875 C 72.015625 -68.710938 69.789062 -79.671875 65.34375 -87.421875 C 60.90625 -95.179688 54.75 -99.0625 46.875 -99.0625 C 38.988281 -99.0625 32.828125 -95.179688 28.390625 -87.421875 C 23.953125 -79.671875 21.734375 -68.710938 21.734375 -54.546875 C 21.734375 -40.335938 23.941406 -29.394531 28.359375 -21.71875 C 32.785156 -14.050781 38.957031 -10.21875 46.875 -10.21875 Z M 46.875 -10.21875 "/></g></g></g><g fill="#ffffff" fill-opacity="1"><g transform="translate(6119.681445, 293.209133)"><g><path d="M 8.734375 -22.375 L 8.734375 -33.234375 L 56.671875 -109.078125 L 72.65625 -109.078125 L 72.65625 -34.09375 L 87.5625 -34.09375 L 87.5625 -22.375 L 72.65625 -22.375 L 72.65625 0 L 60.078125 0 L 60.078125 -22.375 Z M 60.078125 -34.09375 L 60.078125 -92.25 L 59.234375 -92.25 L 23.015625 -34.9375 L 23.015625 -34.09375 Z M 60.078125 -34.09375 "/></g></g></g><g clip-path="url(#ea03ca722e)"><g clip-path="url(#cf98899d0b)"><g clip-path="url(#9083028ea7)"><path fill="#6c5ffc" d="M 1572.378906 1215.390625 L 1451.304688 1169.773438 C 1444.996094 1167.394531 1441.804688 1160.335938 1444.179688 1154.023438 C 1446.5625 1147.707031 1453.617188 1144.515625 1459.933594 1146.894531 L 1635.941406 1213.210938 L 1507.027344 1350.175781 C 1502.402344 1355.089844 1494.65625 1355.324219 1489.75 1350.699219 C 1484.832031 1346.074219 1484.601562 1338.332031 1489.226562 1333.417969 C 1489.226562 1333.417969 1549.105469 1269.792969 1577.894531 1239.207031 L 591.128906 1467.828125 C 584.554688 1469.347656 577.980469 1465.25 576.457031 1458.675781 C 574.9375 1452.101562 579.035156 1445.53125 585.609375 1444.007812 Z M 1572.378906 1215.390625 " fill-opacity="1" fill-rule="evenodd"/></g></g></g><g clip-path="url(#355e1dbec6)"><g clip-path="url(#db3622b739)"><g clip-path="url(#b811707655)"><path fill="#6c5ffc" d="M 3557.625 789.878906 L 3399.296875 730.226562 C 3391.046875 727.117188 3386.871094 717.886719 3389.980469 709.632812 C 3393.09375 701.375 3402.320312 697.195312 3410.578125 700.308594 L 3640.742188 787.03125 L 3472.164062 966.140625 C 3466.113281 972.566406 3455.988281 972.871094 3449.570312 966.824219 C 3443.140625 960.777344 3442.839844 950.648438 3448.886719 944.226562 C 3448.886719 944.226562 3527.191406 861.023438 3564.839844 821.027344 L 2274.445312 1119.992188 C 2265.847656 1121.984375 2257.253906 1116.621094 2255.261719 1108.027344 C 2253.269531 1099.429688 2258.632812 1090.835938 2267.226562 1088.84375 Z M 3557.625 789.878906 " fill-opacity="1" fill-rule="evenodd"/></g></g></g><g clip-path="url(#e74544943e)"><g clip-path="url(#0ac702d33a)"><g clip-path="url(#0d7e2b759f)"><path fill="#6c5ffc" d="M 5773.480469 316.230469 L 5587.214844 246.054688 C 5577.507812 242.390625 5572.597656 231.535156 5576.25 221.820312 C 5579.917969 212.105469 5590.773438 207.191406 5600.488281 210.851562 L 5871.265625 312.878906 L 5672.9375 523.597656 C 5665.824219 531.15625 5653.90625 531.515625 5646.355469 524.398438 C 5638.796875 517.285156 5638.4375 505.371094 5645.554688 497.8125 C 5645.554688 497.8125 5737.675781 399.929688 5781.96875 352.875 L 4263.855469 704.597656 C 4253.742188 706.941406 4243.632812 700.632812 4241.289062 690.519531 C 4238.945312 680.410156 4245.253906 670.296875 4255.367188 667.953125 Z M 5773.480469 316.230469 " fill-opacity="1" fill-rule="evenodd"/></g></g></g></svg>