<svg xmlns="http://www.w3.org/2000/svg" xmlns:xlink="http://www.w3.org/1999/xlink" width="1650" zoomAndPan="magnify" viewBox="0 0 6573.75 1877.999922" height="300" preserveAspectRatio="xMidYMid meet" version="1.0"><defs><g/><clipPath id="e49d7b5207"><path d="M 0 1338.578125 L 539.167969 1338.578125 L 539.167969 1877.746094 L 0 1877.746094 Z M 0 1338.578125 " clip-rule="nonzero"/></clipPath><clipPath id="83e79607f6"><path d="M 269.585938 1338.578125 C 120.695312 1338.578125 0 1459.273438 0 1608.160156 C 0 1757.050781 120.695312 1877.746094 269.585938 1877.746094 C 418.472656 1877.746094 539.167969 1757.050781 539.167969 1608.160156 C 539.167969 1459.273438 418.472656 1338.578125 269.585938 1338.578125 Z M 269.585938 1338.578125 " clip-rule="nonzero"/></clipPath><clipPath id="1aa4f113b5"><path d="M 1849.699219 933.175781 L 2388.867188 933.175781 L 2388.867188 1472.347656 L 1849.699219 1472.347656 Z M 1849.699219 933.175781 " clip-rule="nonzero"/></clipPath><clipPath id="02d52cbcf0"><path d="M 2119.285156 933.175781 C 1970.398438 933.175781 1849.699219 1053.875 1849.699219 1202.761719 C 1849.699219 1351.648438 1970.398438 1472.347656 2119.285156 1472.347656 C 2268.171875 1472.347656 2388.867188 1351.648438 2388.867188 1202.761719 C 2388.867188 1053.875 2268.171875 933.175781 2119.285156 933.175781 Z M 2119.285156 933.175781 " clip-rule="nonzero"/></clipPath><clipPath id="a0c2f39c31"><path d="M 4006.320312 376.183594 L 4545.488281 376.183594 L 4545.488281 915.351562 L 4006.320312 915.351562 Z M 4006.320312 376.183594 " clip-rule="nonzero"/></clipPath><clipPath id="e702a6fc7e"><path d="M 4275.90625 376.183594 C 4127.019531 376.183594 4006.320312 496.882812 4006.320312 645.769531 C 4006.320312 794.65625 4127.019531 915.351562 4275.90625 915.351562 C 4424.792969 915.351562 4545.492188 794.65625 4545.492188 645.769531 C 4545.492188 496.882812 4424.792969 376.183594 4275.90625 376.183594 Z M 4275.90625 376.183594 " clip-rule="nonzero"/></clipPath><clipPath id="ed2e88296e"><path d="M 6094.394531 0.0351562 L 6573.078125 0.0351562 L 6573.078125 478.722656 L 6094.394531 478.722656 Z M 6094.394531 0.0351562 " clip-rule="nonzero"/></clipPath><clipPath id="e659426b09"><path d="M 6333.738281 0.0351562 C 6201.550781 0.0351562 6094.394531 107.191406 6094.394531 239.378906 C 6094.394531 371.5625 6201.550781 478.722656 6333.738281 478.722656 C 6465.921875 478.722656 6573.078125 371.5625 6573.078125 239.378906 C 6573.078125 107.191406 6465.921875 0.0351562 6333.738281 0.0351562 Z M 6333.738281 0.0351562 " clip-rule="nonzero"/></clipPath><clipPath id="71c149ba12"><path d="M 581 1204 L 1814 1204 L 1814 1580 L 581 1580 Z M 581 1204 " clip-rule="nonzero"/></clipPath><clipPath id="e73bef9ee8"><path d="M 538.835938 1405.335938 L 1782.207031 1116.628906 L 1850.398438 1410.304688 L 607.027344 1699.011719 Z M 538.835938 1405.335938 " clip-rule="nonzero"/></clipPath><clipPath id="f44ccc9aca"><path d="M 538.835938 1405.335938 L 1782.207031 1116.628906 L 1850.398438 1410.304688 L 607.027344 1699.011719 Z M 538.835938 1405.335938 " clip-rule="nonzero"/></clipPath><clipPath id="8f469aae4b"><path d="M 2444 685 L 3967 685 L 3967 1140 L 2444 1140 Z M 2444 685 " clip-rule="nonzero"/></clipPath><clipPath id="6e43a27913"><path d="M 2392.660156 924.1875 L 3929.335938 579.128906 L 4010.835938 942.078125 L 2474.160156 1287.132812 Z M 2392.660156 924.1875 " clip-rule="nonzero"/></clipPath><clipPath id="d2cbfb552b"><path d="M 2392.660156 924.1875 L 3929.335938 579.128906 L 4010.835938 942.078125 L 2474.160156 1287.132812 Z M 2392.660156 924.1875 " clip-rule="nonzero"/></clipPath><clipPath id="219d70d91e"><path d="M 4598 256 L 6057 256 L 6057 656 L 4598 656 Z M 4598 256 " clip-rule="nonzero"/></clipPath><clipPath id="ceaad5a6d2"><path d="M 4554.304688 449.019531 L 6026.273438 160.671875 L 6094.464844 508.789062 L 4622.5 797.140625 Z M 4554.304688 449.019531 " clip-rule="nonzero"/></clipPath><clipPath id="6385a5c947"><path d="M 4554.304688 449.019531 L 6026.273438 160.671875 L 6094.464844 508.789062 L 4622.5 797.140625 Z M 4554.304688 449.019531 " clip-rule="nonzero"/></clipPath></defs><g clip-path="url(#e49d7b5207)"><g clip-path="url(#83e79607f6)"><path fill="#bda6ff" d="M 0 1338.578125 L 539.167969 1338.578125 L 539.167969 1877.746094 L 0 1877.746094 Z M 0 1338.578125 " fill-opacity="1" fill-rule="nonzero"/></g></g><g fill="#ffffff" fill-opacity="1"><g transform="translate(189.567005, 1661.815371)"><g><path d="M 46.875 1.484375 C 34.832031 1.484375 25.5 -3.394531 18.875 -13.15625 C 12.257812 -22.925781 8.953125 -36.722656 8.953125 -54.546875 C 8.953125 -72.234375 12.289062 -85.992188 18.96875 -95.828125 C 25.644531 -105.660156 34.945312 -110.578125 46.875 -110.578125 C 58.800781 -110.578125 68.101562 -105.660156 74.78125 -95.828125 C 81.457031 -85.992188 84.796875 -72.234375 84.796875 -54.546875 C 84.796875 -36.722656 81.484375 -22.925781 74.859375 -13.15625 C 68.242188 -3.394531 58.914062 1.484375 46.875 1.484375 Z M 46.875 -10.234375 C 54.832031 -10.234375 61.007812 -14.066406 65.40625 -21.734375 C 69.8125 -29.398438 72.015625 -40.335938 72.015625 -54.546875 C 72.015625 -68.710938 69.796875 -79.675781 65.359375 -87.4375 C 60.921875 -95.195312 54.757812 -99.078125 46.875 -99.078125 C 38.988281 -99.078125 32.828125 -95.195312 28.390625 -87.4375 C 23.953125 -79.675781 21.734375 -68.710938 21.734375 -54.546875 C 21.734375 -40.335938 23.941406 -29.398438 28.359375 -21.734375 C 32.785156 -14.066406 38.957031 -10.234375 46.875 -10.234375 Z M 46.875 -10.234375 "/></g></g></g><g fill="#ffffff" fill-opacity="1"><g transform="translate(283.313471, 1661.815371)"><g><path d="M 46.234375 -109.09375 L 46.234375 0 L 33.03125 0 L 33.03125 -89.921875 L 32.171875 -89.921875 C 31.671875 -88.921875 30.390625 -87.789062 28.328125 -86.53125 C 26.273438 -85.269531 23.613281 -84.164062 20.34375 -83.21875 C 17.082031 -82.28125 13.351562 -81.8125 9.15625 -81.8125 L 9.15625 -92.890625 C 13.382812 -92.890625 17.039062 -93.65625 20.125 -95.1875 C 23.21875 -96.71875 25.800781 -98.507812 27.875 -100.5625 C 29.957031 -102.625 31.539062 -104.488281 32.625 -106.15625 C 33.707031 -107.832031 34.335938 -108.8125 34.515625 -109.09375 Z M 46.234375 -109.09375 "/></g></g></g><g clip-path="url(#1aa4f113b5)"><g clip-path="url(#02d52cbcf0)"><path fill="#bda6ff" d="M 1849.699219 933.175781 L 2388.867188 933.175781 L 2388.867188 1472.347656 L 1849.699219 1472.347656 Z M 1849.699219 933.175781 " fill-opacity="1" fill-rule="nonzero"/></g></g><g fill="#ffffff" fill-opacity="1"><g transform="translate(2027.010054, 1256.415197)"><g><path d="M 46.875 1.484375 C 34.832031 1.484375 25.5 -3.394531 18.875 -13.15625 C 12.257812 -22.925781 8.953125 -36.722656 8.953125 -54.546875 C 8.953125 -72.234375 12.289062 -85.992188 18.96875 -95.828125 C 25.644531 -105.660156 34.945312 -110.578125 46.875 -110.578125 C 58.800781 -110.578125 68.101562 -105.660156 74.78125 -95.828125 C 81.457031 -85.992188 84.796875 -72.234375 84.796875 -54.546875 C 84.796875 -36.722656 81.484375 -22.925781 74.859375 -13.15625 C 68.242188 -3.394531 58.914062 1.484375 46.875 1.484375 Z M 46.875 -10.234375 C 54.832031 -10.234375 61.007812 -14.066406 65.40625 -21.734375 C 69.8125 -29.398438 72.015625 -40.335938 72.015625 -54.546875 C 72.015625 -68.710938 69.796875 -79.675781 65.359375 -87.4375 C 60.921875 -95.195312 54.757812 -99.078125 46.875 -99.078125 C 38.988281 -99.078125 32.828125 -95.195312 28.390625 -87.4375 C 23.953125 -79.675781 21.734375 -68.710938 21.734375 -54.546875 C 21.734375 -40.335938 23.941406 -29.398438 28.359375 -21.734375 C 32.785156 -14.066406 38.957031 -10.234375 46.875 -10.234375 Z M 46.875 -10.234375 "/></g></g></g><g fill="#ffffff" fill-opacity="1"><g transform="translate(2120.75652, 1256.415197)"><g><path d="M 11.296875 0 L 11.296875 -9.59375 L 47.296875 -49 C 51.523438 -53.625 55.003906 -57.644531 57.734375 -61.0625 C 60.472656 -64.488281 62.507812 -67.71875 63.84375 -70.75 C 65.175781 -73.789062 65.84375 -76.984375 65.84375 -80.328125 C 65.84375 -86.078125 63.84375 -90.640625 59.84375 -94.015625 C 55.851562 -97.390625 50.890625 -99.078125 44.953125 -99.078125 C 38.628906 -99.078125 33.601562 -97.1875 29.875 -93.40625 C 26.15625 -89.625 24.296875 -84.625 24.296875 -78.40625 L 11.71875 -78.40625 C 11.71875 -84.800781 13.191406 -90.410156 16.140625 -95.234375 C 19.085938 -100.066406 23.109375 -103.832031 28.203125 -106.53125 C 33.296875 -109.226562 39.023438 -110.578125 45.390625 -110.578125 C 51.773438 -110.578125 57.4375 -109.226562 62.375 -106.53125 C 67.3125 -103.832031 71.179688 -100.191406 73.984375 -95.609375 C 76.796875 -91.035156 78.203125 -85.941406 78.203125 -80.328125 C 78.203125 -76.316406 77.476562 -72.398438 76.03125 -68.578125 C 74.59375 -64.765625 72.109375 -60.519531 68.578125 -55.84375 C 65.046875 -51.175781 60.15625 -45.488281 53.90625 -38.78125 L 29.40625 -12.578125 L 29.40625 -11.71875 L 80.109375 -11.71875 L 80.109375 0 Z M 11.296875 0 "/></g></g></g><g clip-path="url(#a0c2f39c31)"><g clip-path="url(#e702a6fc7e)"><path fill="#bda6ff" d="M 4006.320312 376.183594 L 4545.492188 376.183594 L 4545.492188 915.351562 L 4006.320312 915.351562 Z M 4006.320312 376.183594 " fill-opacity="1" fill-rule="nonzero"/></g></g><g fill="#ffffff" fill-opacity="1"><g transform="translate(4181.287695, 699.421778)"><g><path d="M 46.875 1.484375 C 34.832031 1.484375 25.5 -3.394531 18.875 -13.15625 C 12.257812 -22.925781 8.953125 -36.722656 8.953125 -54.546875 C 8.953125 -72.234375 12.289062 -85.992188 18.96875 -95.828125 C 25.644531 -105.660156 34.945312 -110.578125 46.875 -110.578125 C 58.800781 -110.578125 68.101562 -105.660156 74.78125 -95.828125 C 81.457031 -85.992188 84.796875 -72.234375 84.796875 -54.546875 C 84.796875 -36.722656 81.484375 -22.925781 74.859375 -13.15625 C 68.242188 -3.394531 58.914062 1.484375 46.875 1.484375 Z M 46.875 -10.234375 C 54.832031 -10.234375 61.007812 -14.066406 65.40625 -21.734375 C 69.8125 -29.398438 72.015625 -40.335938 72.015625 -54.546875 C 72.015625 -68.710938 69.796875 -79.675781 65.359375 -87.4375 C 60.921875 -95.195312 54.757812 -99.078125 46.875 -99.078125 C 38.988281 -99.078125 32.828125 -95.195312 28.390625 -87.4375 C 23.953125 -79.675781 21.734375 -68.710938 21.734375 -54.546875 C 21.734375 -40.335938 23.941406 -29.398438 28.359375 -21.734375 C 32.785156 -14.066406 38.957031 -10.234375 46.875 -10.234375 Z M 46.875 -10.234375 "/></g></g></g><g fill="#ffffff" fill-opacity="1"><g transform="translate(4275.034161, 699.421778)"><g><path d="M 48.15625 1.484375 C 41.125 1.484375 34.863281 0.28125 29.375 -2.125 C 23.882812 -4.539062 19.53125 -7.90625 16.3125 -12.21875 C 13.101562 -16.539062 11.359375 -21.554688 11.078125 -27.265625 L 24.5 -27.265625 C 24.894531 -22.015625 27.316406 -17.863281 31.765625 -14.8125 C 36.222656 -11.757812 41.613281 -10.234375 47.9375 -10.234375 C 54.9375 -10.234375 60.695312 -12.015625 65.21875 -15.578125 C 69.75 -19.148438 72.015625 -23.828125 72.015625 -29.609375 C 72.015625 -35.648438 69.785156 -40.570312 65.328125 -44.375 C 60.867188 -48.175781 54.503906 -50.078125 46.234375 -50.078125 L 37.5 -50.078125 L 37.5 -61.796875 L 46.234375 -61.796875 C 52.703125 -61.796875 57.976562 -63.515625 62.0625 -66.953125 C 66.144531 -70.398438 68.1875 -75 68.1875 -80.75 C 68.1875 -86.257812 66.390625 -90.691406 62.796875 -94.046875 C 59.210938 -97.398438 54.398438 -99.078125 48.359375 -99.078125 C 44.597656 -99.078125 41.054688 -98.390625 37.734375 -97.015625 C 34.421875 -95.648438 31.710938 -93.679688 29.609375 -91.109375 C 27.515625 -88.535156 26.378906 -85.4375 26.203125 -81.8125 L 13.421875 -81.8125 C 13.640625 -87.53125 15.363281 -92.546875 18.59375 -96.859375 C 21.820312 -101.179688 26.054688 -104.546875 31.296875 -106.953125 C 36.535156 -109.367188 42.296875 -110.578125 48.578125 -110.578125 C 55.328125 -110.578125 61.113281 -109.21875 65.9375 -106.5 C 70.769531 -103.789062 74.484375 -100.210938 77.078125 -95.765625 C 79.671875 -91.328125 80.96875 -86.535156 80.96875 -81.390625 C 80.96875 -75.242188 79.359375 -70.003906 76.140625 -65.671875 C 72.929688 -61.335938 68.570312 -58.335938 63.0625 -56.671875 L 63.0625 -55.828125 C 69.957031 -54.691406 75.335938 -51.769531 79.203125 -47.0625 C 83.078125 -42.351562 85.015625 -36.535156 85.015625 -29.609375 C 85.015625 -23.679688 83.40625 -18.363281 80.1875 -13.65625 C 76.976562 -8.957031 72.601562 -5.257812 67.0625 -2.5625 C 61.519531 0.132812 55.21875 1.484375 48.15625 1.484375 Z M 48.15625 1.484375 "/></g></g></g><g clip-path="url(#ed2e88296e)"><g clip-path="url(#e659426b09)"><path fill="#bda6ff" d="M 6094.394531 0.0351562 L 6573.078125 0.0351562 L 6573.078125 478.722656 L 6094.394531 478.722656 Z M 6094.394531 0.0351562 " fill-opacity="1" fill-rule="nonzero"/></g></g><g fill="#ffffff" fill-opacity="1"><g transform="translate(6238.69317, 293.274506)"><g><path d="M 46.875 1.484375 C 34.832031 1.484375 25.5 -3.394531 18.875 -13.15625 C 12.257812 -22.925781 8.953125 -36.722656 8.953125 -54.546875 C 8.953125 -72.234375 12.289062 -85.992188 18.96875 -95.828125 C 25.644531 -105.660156 34.945312 -110.578125 46.875 -110.578125 C 58.800781 -110.578125 68.101562 -105.660156 74.78125 -95.828125 C 81.457031 -85.992188 84.796875 -72.234375 84.796875 -54.546875 C 84.796875 -36.722656 81.484375 -22.925781 74.859375 -13.15625 C 68.242188 -3.394531 58.914062 1.484375 46.875 1.484375 Z M 46.875 -10.234375 C 54.832031 -10.234375 61.007812 -14.066406 65.40625 -21.734375 C 69.8125 -29.398438 72.015625 -40.335938 72.015625 -54.546875 C 72.015625 -68.710938 69.796875 -79.675781 65.359375 -87.4375 C 60.921875 -95.195312 54.757812 -99.078125 46.875 -99.078125 C 38.988281 -99.078125 32.828125 -95.195312 28.390625 -87.4375 C 23.953125 -79.675781 21.734375 -68.710938 21.734375 -54.546875 C 21.734375 -40.335938 23.941406 -29.398438 28.359375 -21.734375 C 32.785156 -14.066406 38.957031 -10.234375 46.875 -10.234375 Z M 46.875 -10.234375 "/></g></g></g><g fill="#ffffff" fill-opacity="1"><g transform="translate(6332.439635, 293.274506)"><g><path d="M 8.734375 -22.375 L 8.734375 -33.234375 L 56.671875 -109.09375 L 72.65625 -109.09375 L 72.65625 -34.09375 L 87.578125 -34.09375 L 87.578125 -22.375 L 72.65625 -22.375 L 72.65625 0 L 60.078125 0 L 60.078125 -22.375 Z M 60.078125 -34.09375 L 60.078125 -92.265625 L 59.234375 -92.265625 L 23.015625 -34.9375 L 23.015625 -34.09375 Z M 60.078125 -34.09375 "/></g></g></g><g clip-path="url(#71c149ba12)"><g clip-path="url(#e73bef9ee8)"><g clip-path="url(#f44ccc9aca)"><path fill="#6c5ffc" d="M 1739.367188 1284.910156 L 1598.636719 1231.96875 C 1591.304688 1229.207031 1587.585938 1221.003906 1590.34375 1213.667969 C 1593.109375 1206.328125 1601.308594 1202.613281 1608.648438 1205.371094 L 1813.234375 1282.34375 L 1663.492188 1441.589844 C 1658.121094 1447.304688 1649.121094 1447.582031 1643.414062 1442.207031 C 1637.699219 1436.835938 1637.425781 1427.839844 1642.796875 1422.125 C 1642.796875 1422.125 1712.351562 1348.152344 1745.792969 1312.589844 L 599.144531 1578.84375 C 591.503906 1580.617188 583.863281 1575.855469 582.089844 1568.21875 C 580.316406 1560.578125 585.078125 1552.9375 592.714844 1551.164062 Z M 1739.367188 1284.910156 " fill-opacity="1" fill-rule="evenodd"/></g></g></g><g clip-path="url(#8f469aae4b)"><g clip-path="url(#6e43a27913)"><g clip-path="url(#d2cbfb552b)"><path fill="#6c5ffc" d="M 3875.394531 786.335938 L 3702.183594 719.730469 C 3693.15625 716.257812 3688.644531 706.101562 3692.113281 697.070312 C 3695.59375 688.039062 3705.746094 683.523438 3714.777344 686.996094 L 3966.578125 783.828125 L 3780.347656 979.023438 C 3773.664062 986.023438 3762.554688 986.285156 3755.558594 979.605469 C 3748.554688 972.921875 3748.296875 961.816406 3754.980469 954.8125 C 3754.980469 954.8125 3841.484375 864.140625 3883.074219 820.550781 L 2465.535156 1138.859375 C 2456.09375 1140.980469 2446.707031 1135.035156 2444.585938 1125.59375 C 2442.464844 1116.152344 2448.410156 1106.761719 2457.851562 1104.644531 Z M 3875.394531 786.335938 " fill-opacity="1" fill-rule="evenodd"/></g></g></g><g clip-path="url(#219d70d91e)"><g clip-path="url(#ceaad5a6d2)"><g clip-path="url(#6385a5c947)"><path fill="#6c5ffc" d="M 5969.5 356.527344 L 5806.34375 288.589844 C 5797.839844 285.046875 5793.8125 275.261719 5797.347656 266.753906 C 5800.898438 258.246094 5810.679688 254.214844 5819.1875 257.757812 L 6056.378906 356.523438 L 5873.980469 537.484375 C 5867.4375 543.976562 5856.851562 543.933594 5850.367188 537.390625 C 5843.875 530.847656 5843.917969 520.265625 5850.460938 513.773438 C 5850.460938 513.773438 5935.183594 429.710938 5975.921875 389.300781 L 4618.074219 655.296875 C 4609.027344 657.070312 4600.246094 651.164062 4598.476562 642.121094 C 4596.703125 633.074219 4602.609375 624.292969 4611.652344 622.523438 Z M 5969.5 356.527344 " fill-opacity="1" fill-rule="evenodd"/></g></g></g></svg>