<svg xmlns="http://www.w3.org/2000/svg" xmlns:xlink="http://www.w3.org/1999/xlink" width="1000" zoomAndPan="magnify" viewBox="0 0 4920 1646.999934" height="500" preserveAspectRatio="xMidYMid meet" version="1.0"><defs><g/><clipPath id="e15b5eacf2"><path d="M 42 1125 L 522 1125 L 522 1605 L 42 1605 Z M 42 1125 " clip-rule="nonzero"/></clipPath><clipPath id="848a8212b4"><path d="M 0 1177.289062 L 469.277344 1082.765625 L 563.804688 1552.042969 L 94.523438 1646.566406 Z M 0 1177.289062 " clip-rule="nonzero"/></clipPath><clipPath id="bff36d3320"><path d="M 234.640625 1130.027344 C 105.050781 1156.128906 21.160156 1282.339844 47.261719 1411.929688 C 73.363281 1541.515625 199.574219 1625.40625 329.164062 1599.304688 C 458.75 1573.203125 542.644531 1446.992188 516.542969 1317.40625 C 490.4375 1187.816406 364.226562 1103.925781 234.640625 1130.027344 Z M 234.640625 1130.027344 " clip-rule="nonzero"/></clipPath><clipPath id="f52eb6fa34"><path d="M 201 1308 L 298 1308 L 298 1433 L 201 1433 Z M 201 1308 " clip-rule="nonzero"/></clipPath><clipPath id="ec8917b558"><path d="M 53 1212.519531 L 433.851562 1135.804688 L 510.5625 1516.65625 L 129.710938 1593.367188 Z M 53 1212.519531 " clip-rule="nonzero"/></clipPath><clipPath id="d7e92b11db"><path d="M 293 1298 L 352 1298 L 352 1413 L 293 1413 Z M 293 1298 " clip-rule="nonzero"/></clipPath><clipPath id="a356dc8c42"><path d="M 53 1212.519531 L 433.851562 1135.804688 L 510.5625 1516.65625 L 129.710938 1593.367188 Z M 53 1212.519531 " clip-rule="nonzero"/></clipPath><clipPath id="db5fc3ec1b"><path d="M 1486 793 L 1966 793 L 1966 1273 L 1486 1273 Z M 1486 793 " clip-rule="nonzero"/></clipPath><clipPath id="1b947a9215"><path d="M 1438.53125 854.386719 L 1904.722656 745.65625 L 2013.457031 1211.847656 L 1547.265625 1320.578125 Z M 1438.53125 854.386719 " clip-rule="nonzero"/></clipPath><clipPath id="67d19dc593"><path d="M 1671.628906 800.019531 C 1542.894531 830.046875 1462.875 958.75 1492.898438 1087.484375 C 1522.925781 1216.21875 1651.628906 1296.238281 1780.363281 1266.210938 C 1909.097656 1236.1875 1989.117188 1107.484375 1959.089844 978.75 C 1929.066406 850.015625 1800.363281 769.996094 1671.628906 800.019531 Z M 1671.628906 800.019531 " clip-rule="nonzero"/></clipPath><clipPath id="4a17a8d990"><path d="M 1631 979 L 1732 979 L 1732 1106 L 1631 1106 Z M 1631 979 " clip-rule="nonzero"/></clipPath><clipPath id="0f9ad8bbb3"><path d="M 1492.578125 887.992188 L 1870.921875 799.746094 L 1959.167969 1178.089844 L 1580.824219 1266.335938 Z M 1492.578125 887.992188 " clip-rule="nonzero"/></clipPath><clipPath id="5636aa1660"><path d="M 1725 959 L 1818 959 L 1818 1083 L 1725 1083 Z M 1725 959 " clip-rule="nonzero"/></clipPath><clipPath id="b15dbac267"><path d="M 1492.578125 887.992188 L 1870.921875 799.746094 L 1959.167969 1178.089844 L 1580.824219 1266.335938 Z M 1492.578125 887.992188 " clip-rule="nonzero"/></clipPath><clipPath id="7d723be0a2"><path d="M 2935 462 L 3415 462 L 3415 942 L 2935 942 Z M 2935 462 " clip-rule="nonzero"/></clipPath><clipPath id="7484eda866"><path d="M 2879.066406 537.449219 L 3339.25 405.589844 L 3471.109375 865.773438 L 3010.925781 997.632812 Z M 2879.066406 537.449219 " clip-rule="nonzero"/></clipPath><clipPath id="a9dfca8db6"><path d="M 3109.15625 471.519531 C 2982.082031 507.929688 2908.582031 640.464844 2944.996094 767.542969 C 2981.40625 894.617188 3113.941406 968.117188 3241.015625 931.703125 C 3368.09375 895.292969 3441.589844 762.757812 3405.179688 635.683594 C 3368.765625 508.605469 3236.234375 435.105469 3109.15625 471.519531 Z M 3109.15625 471.519531 " clip-rule="nonzero"/></clipPath><clipPath id="16792911c5"><path d="M 3077 649 L 3181 649 L 3181 779 L 3077 779 Z M 3077 649 " clip-rule="nonzero"/></clipPath><clipPath id="34d5caf981"><path d="M 2934.71875 568.3125 L 3308.191406 461.300781 L 3415.203125 834.769531 L 3041.730469 941.785156 Z M 2934.71875 568.3125 " clip-rule="nonzero"/></clipPath><clipPath id="1b02d64d85"><path d="M 3169 623 L 3272 623 L 3272 753 L 3169 753 Z M 3169 623 " clip-rule="nonzero"/></clipPath><clipPath id="6491e85c31"><path d="M 2934.71875 568.3125 L 3308.191406 461.300781 L 3415.203125 834.769531 L 3041.730469 941.785156 Z M 2934.71875 568.3125 " clip-rule="nonzero"/></clipPath><clipPath id="a21bcbb34e"><path d="M 4385 55 L 4865 55 L 4865 534 L 4385 534 Z M 4385 55 " clip-rule="nonzero"/></clipPath><clipPath id="a2b1ea8a40"><path d="M 4330.308594 127.789062 L 4791.640625 0 L 4919.429688 461.332031 L 4458.101562 589.121094 Z M 4330.308594 127.789062 " clip-rule="nonzero"/></clipPath><clipPath id="52f05bd173"><path d="M 4560.976562 63.894531 C 4433.582031 99.183594 4358.917969 231.0625 4394.203125 358.457031 C 4429.492188 485.847656 4561.371094 560.515625 4688.765625 525.226562 C 4816.160156 489.9375 4890.824219 358.058594 4855.535156 230.664062 C 4820.246094 103.273438 4688.367188 28.605469 4560.976562 63.894531 Z M 4560.976562 63.894531 " clip-rule="nonzero"/></clipPath><clipPath id="d0c6664910"><path d="M 4526 242 L 4630 242 L 4630 371 L 4526 371 Z M 4526 242 " clip-rule="nonzero"/></clipPath><clipPath id="8ae465526d"><path d="M 4385.6875 159.144531 L 4760.089844 55.433594 L 4863.800781 429.835938 L 4489.398438 533.546875 Z M 4385.6875 159.144531 " clip-rule="nonzero"/></clipPath><clipPath id="1be57e8bb1"><path d="M 4617 218 L 4723 218 L 4723 345 L 4617 345 Z M 4617 218 " clip-rule="nonzero"/></clipPath><clipPath id="313b677a2b"><path d="M 4385.6875 159.144531 L 4760.089844 55.433594 L 4863.800781 429.835938 L 4489.398438 533.546875 Z M 4385.6875 159.144531 " clip-rule="nonzero"/></clipPath><clipPath id="88f1ae83a7"><path d="M 539 1063 L 1463 1063 L 1463 1344 L 539 1344 Z M 539 1063 " clip-rule="nonzero"/></clipPath><clipPath id="80f174ac17"><path d="M 507.269531 1213.464844 L 1438.84375 997.636719 L 1489.796875 1217.558594 L 558.21875 1433.386719 Z M 507.269531 1213.464844 " clip-rule="nonzero"/></clipPath><clipPath id="b093f1d28f"><path d="M 507.269531 1213.464844 L 1438.84375 997.636719 L 1489.796875 1217.558594 L 558.21875 1433.386719 Z M 507.269531 1213.464844 " clip-rule="nonzero"/></clipPath><clipPath id="2bf5e4f931"><path d="M 1974 705 L 2916 705 L 2916 992 L 1974 992 Z M 1974 705 " clip-rule="nonzero"/></clipPath><clipPath id="a43f54b1d2"><path d="M 1941.65625 858.367188 L 2891.496094 638.304688 L 2943.464844 862.613281 L 1993.625 1082.675781 Z M 1941.65625 858.367188 " clip-rule="nonzero"/></clipPath><clipPath id="4df880ea39"><path d="M 1941.65625 858.367188 L 2891.496094 638.304688 L 2943.464844 862.613281 L 1993.625 1082.675781 Z M 1941.65625 858.367188 " clip-rule="nonzero"/></clipPath><clipPath id="16bdc8f148"><path d="M 3428 362 L 4388 362 L 4388 655 L 3428 655 Z M 3428 362 " clip-rule="nonzero"/></clipPath><clipPath id="e46a001704"><path d="M 3395.308594 518.855469 L 4363.414062 294.5625 L 4416.398438 523.253906 L 3448.292969 747.546875 Z M 3395.308594 518.855469 " clip-rule="nonzero"/></clipPath><clipPath id="a74399b59e"><path d="M 3395.308594 518.855469 L 4363.414062 294.5625 L 4416.398438 523.253906 L 3448.292969 747.546875 Z M 3395.308594 518.855469 " clip-rule="nonzero"/></clipPath></defs><g clip-path="url(#e15b5eacf2)"><g clip-path="url(#848a8212b4)"><g clip-path="url(#bff36d3320)"><path fill="#bda6ff" d="M 0 1177.289062 L 469.277344 1082.765625 L 563.804688 1552.042969 L 94.523438 1646.566406 Z M 0 1177.289062 " fill-opacity="1" fill-rule="nonzero"/></g></g></g><g clip-path="url(#f52eb6fa34)"><g clip-path="url(#ec8917b558)"><g fill="#ffffff" fill-opacity="1"><g transform="translate(214.096289, 1433.304997)"><g><path d="M 46.25 -7.796875 C 34.445312 -5.421875 24.335938 -8.363281 15.921875 -16.625 C 7.503906 -24.894531 1.535156 -37.765625 -1.984375 -55.234375 C -5.484375 -72.578125 -4.929688 -86.726562 -0.328125 -97.6875 C 4.273438 -108.644531 12.425781 -115.300781 24.125 -117.65625 C 35.8125 -120.007812 45.894531 -117.023438 54.375 -108.703125 C 62.863281 -100.390625 68.859375 -87.5625 72.359375 -70.21875 C 75.878906 -52.75 75.359375 -38.570312 70.796875 -27.6875 C 66.234375 -16.8125 58.050781 -10.179688 46.25 -7.796875 Z M 43.9375 -19.28125 C 51.738281 -20.851562 57.035156 -25.832031 59.828125 -34.21875 C 62.628906 -42.601562 62.628906 -53.757812 59.828125 -67.6875 C 57.023438 -81.570312 52.679688 -91.878906 46.796875 -98.609375 C 40.921875 -105.347656 34.117188 -107.9375 26.390625 -106.375 C 18.660156 -104.820312 13.382812 -99.800781 10.5625 -91.3125 C 7.75 -82.832031 7.742188 -71.648438 10.546875 -57.765625 C 13.347656 -43.835938 17.671875 -33.550781 23.515625 -26.90625 C 29.367188 -20.257812 36.175781 -17.71875 43.9375 -19.28125 Z M 43.9375 -19.28125 "/></g></g></g></g></g><g clip-path="url(#d7e92b11db)"><g clip-path="url(#a356dc8c42)"><g fill="#ffffff" fill-opacity="1"><g transform="translate(306.000496, 1414.793274)"><g><path d="M 23.78125 -116.0625 L 45.328125 -9.125 L 32.375 -6.515625 L 14.625 -94.671875 L 13.78125 -94.515625 C 13.488281 -93.429688 12.457031 -92.066406 10.6875 -90.421875 C 8.914062 -88.773438 6.523438 -87.164062 3.515625 -85.59375 C 0.503906 -84.03125 -3.0625 -82.835938 -7.1875 -82.015625 L -9.375 -92.875 C -5.226562 -93.707031 -1.789062 -95.175781 0.9375 -97.28125 C 3.664062 -99.394531 5.84375 -101.664062 7.46875 -104.09375 C 9.101562 -106.519531 10.285156 -108.660156 11.015625 -110.515625 C 11.753906 -112.367188 12.175781 -113.445312 12.28125 -113.75 Z M 23.78125 -116.0625 "/></g></g></g></g></g><g clip-path="url(#db5fc3ec1b)"><g clip-path="url(#1b947a9215)"><g clip-path="url(#67d19dc593)"><path fill="#bda6ff" d="M 1438.53125 854.386719 L 1904.722656 745.65625 L 2013.457031 1211.847656 L 1547.265625 1320.578125 Z M 1438.53125 854.386719 " fill-opacity="1" fill-rule="nonzero"/></g></g></g><g clip-path="url(#4a17a8d990)"><g clip-path="url(#0f9ad8bbb3)"><g fill="#ffffff" fill-opacity="1"><g transform="translate(1648.37983, 1106.564631)"><g><path d="M 46 -9.1875 C 34.269531 -6.457031 24.070312 -9.09375 15.40625 -17.09375 C 6.738281 -25.101562 0.378906 -37.789062 -3.671875 -55.15625 C -7.691406 -72.375 -7.5625 -86.53125 -3.28125 -97.625 C 0.988281 -108.71875 8.929688 -115.617188 20.546875 -118.328125 C 32.160156 -121.035156 42.332031 -118.359375 51.0625 -110.296875 C 59.789062 -102.242188 66.164062 -89.609375 70.1875 -72.390625 C 74.238281 -55.023438 74.148438 -40.832031 69.921875 -29.8125 C 65.691406 -18.800781 57.71875 -11.925781 46 -9.1875 Z M 43.328125 -20.609375 C 51.078125 -22.421875 56.222656 -27.554688 58.765625 -36.015625 C 61.316406 -44.484375 60.976562 -55.640625 57.75 -69.484375 C 54.53125 -83.273438 49.878906 -93.441406 43.796875 -99.984375 C 37.710938 -106.535156 30.832031 -108.914062 23.15625 -107.125 C 15.46875 -105.332031 10.34375 -100.15625 7.78125 -91.59375 C 5.226562 -83.03125 5.5625 -71.851562 8.78125 -58.0625 C 12.007812 -44.21875 16.644531 -34.066406 22.6875 -27.609375 C 28.726562 -21.148438 35.609375 -18.816406 43.328125 -20.609375 Z M 43.328125 -20.609375 "/></g></g></g></g></g><g clip-path="url(#5636aa1660)"><g clip-path="url(#b15dbac267)"><g fill="#ffffff" fill-opacity="1"><g transform="translate(1739.679396, 1085.270108)"><g><path d="M 11 -2.5625 L 8.828125 -11.90625 L 34.9375 -58.46875 C 38 -63.925781 40.472656 -68.628906 42.359375 -72.578125 C 44.253906 -76.535156 45.503906 -80.144531 46.109375 -83.40625 C 46.710938 -86.664062 46.632812 -89.925781 45.875 -93.1875 C 44.570312 -98.78125 41.59375 -102.765625 36.9375 -105.140625 C 32.28125 -107.523438 27.0625 -108.039062 21.28125 -106.6875 C 15.125 -105.257812 10.660156 -102.28125 7.890625 -97.75 C 5.117188 -93.21875 4.4375 -87.925781 5.84375 -81.875 L -6.40625 -79.015625 C -7.851562 -85.242188 -7.6875 -91.046875 -5.90625 -96.421875 C -4.132812 -101.796875 -1.078125 -106.375 3.265625 -110.15625 C 7.617188 -113.9375 12.894531 -116.550781 19.09375 -118 C 25.3125 -119.445312 31.128906 -119.414062 36.546875 -117.90625 C 41.960938 -116.40625 46.554688 -113.742188 50.328125 -109.921875 C 54.109375 -106.109375 56.632812 -101.46875 57.90625 -96 C 58.820312 -92.09375 59.007812 -88.113281 58.46875 -84.0625 C 57.925781 -80.019531 56.46875 -75.320312 54.09375 -69.96875 C 51.71875 -64.613281 48.25 -57.960938 43.6875 -50.015625 L 25.78125 -18.921875 L 25.984375 -18.078125 L 75.359375 -29.59375 L 78.015625 -18.1875 Z M 11 -2.5625 "/></g></g></g></g></g><g clip-path="url(#7d723be0a2)"><g clip-path="url(#7484eda866)"><g clip-path="url(#a9dfca8db6)"><path fill="#bda6ff" d="M 2879.066406 537.449219 L 3339.25 405.589844 L 3471.109375 865.773438 L 3010.925781 997.632812 Z M 2879.066406 537.449219 " fill-opacity="1" fill-rule="nonzero"/></g></g></g><g clip-path="url(#16792911c5)"><g clip-path="url(#34d5caf981)"><g fill="#ffffff" fill-opacity="1"><g transform="translate(3098.980044, 779.486207)"><g><path d="M 45.46875 -11.484375 C 33.894531 -8.171875 23.582031 -10.296875 14.53125 -17.859375 C 5.476562 -25.421875 -1.503906 -37.769531 -6.421875 -54.90625 C -11.285156 -71.90625 -11.863281 -86.050781 -8.15625 -97.34375 C -4.445312 -108.632812 3.140625 -115.921875 14.609375 -119.203125 C 26.078125 -122.492188 36.375 -120.332031 45.5 -112.71875 C 54.625 -105.101562 61.617188 -92.796875 66.484375 -75.796875 C 71.398438 -58.660156 72.019531 -44.488281 68.34375 -33.28125 C 64.664062 -22.070312 57.039062 -14.804688 45.46875 -11.484375 Z M 42.25 -22.75 C 49.894531 -24.945312 54.773438 -30.335938 56.890625 -38.921875 C 59.015625 -47.503906 58.117188 -58.625 54.203125 -72.28125 C 50.304688 -85.894531 45.15625 -95.820312 38.75 -102.0625 C 32.34375 -108.300781 25.347656 -110.332031 17.765625 -108.15625 C 10.179688 -105.988281 5.328125 -100.5625 3.203125 -91.875 C 1.078125 -83.1875 1.960938 -72.035156 5.859375 -58.421875 C 9.773438 -44.765625 14.914062 -34.859375 21.28125 -28.703125 C 27.644531 -22.554688 34.632812 -20.570312 42.25 -22.75 Z M 42.25 -22.75 "/></g></g></g></g></g><g clip-path="url(#1b02d64d85)"><g clip-path="url(#6491e85c31)"><g fill="#ffffff" fill-opacity="1"><g transform="translate(3189.103331, 753.662573)"><g><path d="M 46.703125 -11.84375 C 39.941406 -9.90625 33.59375 -9.335938 27.65625 -10.140625 C 21.71875 -10.953125 16.609375 -12.988281 12.328125 -16.25 C 8.046875 -19.519531 4.984375 -23.851562 3.140625 -29.25 L 16.03125 -32.953125 C 17.863281 -28.015625 21.34375 -24.691406 26.46875 -22.984375 C 31.59375 -21.285156 37.191406 -21.304688 43.265625 -23.046875 C 49.992188 -24.972656 55.039062 -28.273438 58.40625 -32.953125 C 61.78125 -37.628906 62.671875 -42.75 61.078125 -48.3125 C 59.410156 -54.113281 55.910156 -58.226562 50.578125 -60.65625 C 45.242188 -63.082031 38.597656 -63.15625 30.640625 -60.875 L 22.25 -58.46875 L 19.03125 -69.734375 L 27.421875 -72.140625 C 33.640625 -73.921875 38.238281 -77.023438 41.21875 -81.453125 C 44.195312 -85.890625 44.890625 -90.875 43.296875 -96.40625 C 41.785156 -101.707031 38.84375 -105.472656 34.46875 -107.703125 C 30.09375 -109.941406 25 -110.234375 19.1875 -108.578125 C 15.570312 -107.535156 12.359375 -105.898438 9.546875 -103.671875 C 6.742188 -101.441406 4.6875 -98.800781 3.375 -95.75 C 2.0625 -92.695312 1.820312 -89.398438 2.65625 -85.859375 L -9.625 -82.34375 C -10.988281 -87.894531 -10.710938 -93.191406 -8.796875 -98.234375 C -6.890625 -103.273438 -3.75 -107.675781 0.625 -111.4375 C 5 -115.195312 10.207031 -117.941406 16.25 -119.671875 C 22.738281 -121.535156 28.675781 -121.828125 34.0625 -120.546875 C 39.445312 -119.265625 43.992188 -116.84375 47.703125 -113.28125 C 51.421875 -109.726562 53.988281 -105.476562 55.40625 -100.53125 C 57.101562 -94.625 57.003906 -89.144531 55.109375 -84.09375 C 53.210938 -79.039062 49.847656 -74.960938 45.015625 -71.859375 L 45.25 -71.046875 C 52.1875 -71.847656 58.160156 -70.519531 63.171875 -67.0625 C 68.191406 -63.601562 71.65625 -58.546875 73.5625 -51.890625 C 75.195312 -46.191406 75.113281 -40.640625 73.3125 -35.234375 C 71.519531 -29.828125 68.332031 -25.0625 63.75 -20.9375 C 59.175781 -16.820312 53.492188 -13.789062 46.703125 -11.84375 Z M 46.703125 -11.84375 "/></g></g></g></g></g><g clip-path="url(#a21bcbb34e)"><g clip-path="url(#a2b1ea8a40)"><g clip-path="url(#52f05bd173)"><path fill="#bda6ff" d="M 4330.308594 127.789062 L 4791.640625 0 L 4919.433594 461.332031 L 4458.101562 589.121094 Z M 4330.308594 127.789062 " fill-opacity="1" fill-rule="nonzero"/></g></g></g><g clip-path="url(#d0c6664910)"><g clip-path="url(#8ae465526d)"><g fill="#ffffff" fill-opacity="1"><g transform="translate(4547.660863, 371.875585)"><g><path d="M 45.5625 -11.078125 C 33.957031 -7.859375 23.660156 -10.070312 14.671875 -17.71875 C 5.691406 -25.363281 -1.175781 -37.773438 -5.9375 -54.953125 C -10.65625 -72.003906 -11.109375 -86.15625 -7.296875 -97.40625 C -3.484375 -108.664062 4.164062 -115.890625 15.65625 -119.078125 C 27.15625 -122.253906 37.429688 -120 46.484375 -112.3125 C 55.546875 -104.625 62.4375 -92.253906 67.15625 -75.203125 C 71.914062 -58.023438 72.40625 -43.84375 68.625 -32.65625 C 64.851562 -21.476562 57.164062 -14.285156 45.5625 -11.078125 Z M 42.4375 -22.375 C 50.101562 -24.5 55.035156 -29.84375 57.234375 -38.40625 C 59.429688 -46.96875 58.632812 -58.09375 54.84375 -71.78125 C 51.0625 -85.4375 45.992188 -95.410156 39.640625 -101.703125 C 33.296875 -108.003906 26.320312 -110.101562 18.71875 -108 C 11.125 -105.894531 6.222656 -100.507812 4.015625 -91.84375 C 1.816406 -83.175781 2.609375 -72.015625 6.390625 -58.359375 C 10.179688 -44.671875 15.226562 -34.722656 21.53125 -28.515625 C 27.84375 -22.304688 34.8125 -20.257812 42.4375 -22.375 Z M 42.4375 -22.375 "/></g></g></g></g></g><g clip-path="url(#1be57e8bb1)"><g clip-path="url(#313b677a2b)"><g fill="#ffffff" fill-opacity="1"><g transform="translate(4638.008688, 346.84885)"><g><path d="M 2.453125 -23.890625 L -0.453125 -34.359375 L 25.484375 -120.265625 L 40.890625 -124.53125 L 60.921875 -52.25 L 75.3125 -56.234375 L 78.4375 -44.9375 L 64.046875 -40.953125 L 70.015625 -19.390625 L 57.890625 -16.03125 L 51.921875 -37.59375 Z M 48.796875 -48.890625 L 33.265625 -104.953125 L 32.453125 -104.734375 L 12.859375 -39.8125 L 13.09375 -39 Z M 48.796875 -48.890625 "/></g></g></g></g></g><g clip-path="url(#88f1ae83a7)"><g clip-path="url(#80f174ac17)"><g clip-path="url(#b093f1d28f)"><path fill="#6c5ffc" d="M 1406.945312 1123.664062 L 1301.503906 1083.9375 C 1296.011719 1081.863281 1293.230469 1075.71875 1295.296875 1070.21875 C 1297.375 1064.722656 1303.519531 1061.9375 1309.019531 1064.011719 L 1462.296875 1121.765625 L 1350.03125 1241.042969 C 1346 1245.324219 1339.257812 1245.527344 1334.984375 1241.5 C 1330.703125 1237.472656 1330.5 1230.726562 1334.527344 1226.449219 C 1334.527344 1226.449219 1386.675781 1171.042969 1411.746094 1144.40625 L 552.398438 1343.503906 C 546.671875 1344.828125 540.949219 1341.257812 539.621094 1335.535156 C 538.296875 1329.808594 541.867188 1324.085938 547.589844 1322.761719 Z M 1406.945312 1123.664062 " fill-opacity="1" fill-rule="evenodd"/></g></g></g><g clip-path="url(#2bf5e4f931)"><g clip-path="url(#a43f54b1d2)"><g clip-path="url(#4df880ea39)"><path fill="#6c5ffc" d="M 2858.972656 766.804688 L 2751.464844 726.300781 C 2745.863281 724.1875 2743.027344 717.917969 2745.136719 712.3125 C 2747.253906 706.707031 2753.519531 703.871094 2759.125 705.984375 L 2915.410156 764.871094 L 2800.941406 886.488281 C 2796.835938 890.851562 2789.957031 891.058594 2785.601562 886.953125 C 2781.234375 882.84375 2781.03125 875.96875 2785.136719 871.605469 C 2785.136719 871.605469 2838.304688 815.113281 2863.871094 787.953125 L 1987.667969 990.957031 C 1981.832031 992.308594 1975.996094 988.667969 1974.644531 982.832031 C 1973.292969 976.996094 1976.933594 971.15625 1982.769531 969.804688 Z M 2858.972656 766.804688 " fill-opacity="1" fill-rule="evenodd"/></g></g></g><g clip-path="url(#16bdc8f148)"><g clip-path="url(#e46a001704)"><g clip-path="url(#a74399b59e)"><path fill="#6c5ffc" d="M 4330.265625 425.53125 L 4220.691406 384.246094 C 4214.980469 382.09375 4212.09375 375.707031 4214.242188 369.992188 C 4216.398438 364.277344 4222.785156 361.386719 4228.5 363.539062 L 4387.789062 423.558594 L 4271.121094 547.515625 C 4266.933594 551.960938 4259.925781 552.175781 4255.484375 547.988281 C 4251.035156 543.804688 4250.824219 536.796875 4255.011719 532.347656 C 4255.011719 532.347656 4309.203125 474.769531 4335.257812 447.085938 L 3442.207031 653.992188 C 3436.257812 655.371094 3430.308594 651.660156 3428.929688 645.710938 C 3427.554688 639.761719 3431.265625 633.816406 3437.210938 632.4375 Z M 4330.265625 425.53125 " fill-opacity="1" fill-rule="evenodd"/></g></g></g></svg>