<svg xmlns="http://www.w3.org/2000/svg" xmlns:xlink="http://www.w3.org/1999/xlink" width="1200" zoomAndPan="magnify" viewBox="0 0 6566.25 1992.749919" height="400" preserveAspectRatio="xMidYMid meet" version="1.0"><defs><g/><clipPath id="8f35624989"><path d="M 0.0351562 1453.117188 L 539.160156 1453.117188 L 539.160156 1992.238281 L 0.0351562 1992.238281 Z M 0.0351562 1453.117188 " clip-rule="nonzero"/></clipPath><clipPath id="db3f53789e"><path d="M 269.597656 1453.117188 C 120.722656 1453.117188 0.0351562 1573.804688 0.0351562 1722.679688 C 0.0351562 1871.554688 120.722656 1992.238281 269.597656 1992.238281 C 418.472656 1992.238281 539.160156 1871.554688 539.160156 1722.679688 C 539.160156 1573.804688 418.472656 1453.117188 269.597656 1453.117188 Z M 269.597656 1453.117188 " clip-rule="nonzero"/></clipPath><clipPath id="2395924efd"><path d="M 1849.082031 1018.1875 L 2388.203125 1018.1875 L 2388.203125 1557.308594 L 1849.082031 1557.308594 Z M 1849.082031 1018.1875 " clip-rule="nonzero"/></clipPath><clipPath id="34ba7f99e9"><path d="M 2118.640625 1018.1875 C 1969.765625 1018.1875 1849.082031 1138.875 1849.082031 1287.746094 C 1849.082031 1436.621094 1969.765625 1557.308594 2118.640625 1557.308594 C 2267.515625 1557.308594 2388.203125 1436.621094 2388.203125 1287.746094 C 2388.203125 1138.875 2267.515625 1018.1875 2118.640625 1018.1875 Z M 2118.640625 1018.1875 " clip-rule="nonzero"/></clipPath><clipPath id="c132a8b16d"><path d="M 4006.339844 479.066406 L 4545.460938 479.066406 L 4545.460938 1018.1875 L 4006.339844 1018.1875 Z M 4006.339844 479.066406 " clip-rule="nonzero"/></clipPath><clipPath id="47850f0e02"><path d="M 4275.902344 479.066406 C 4127.027344 479.066406 4006.339844 599.75 4006.339844 748.625 C 4006.339844 897.5 4127.027344 1018.1875 4275.902344 1018.1875 C 4424.773438 1018.1875 4545.460938 897.5 4545.460938 748.625 C 4545.460938 599.75 4424.773438 479.066406 4275.902344 479.066406 Z M 4275.902344 479.066406 " clip-rule="nonzero"/></clipPath><clipPath id="fe788288d7"><path d="M 6086.546875 0 L 6565.191406 0 L 6565.191406 478.644531 L 6086.546875 478.644531 Z M 6086.546875 0 " clip-rule="nonzero"/></clipPath><clipPath id="a5c2cd2b93"><path d="M 6325.867188 0 C 6193.695312 0 6086.546875 107.148438 6086.546875 239.320312 C 6086.546875 371.496094 6193.695312 478.644531 6325.867188 478.644531 C 6458.042969 478.644531 6565.191406 371.496094 6565.191406 239.320312 C 6565.191406 107.148438 6458.042969 0 6325.867188 0 Z M 6325.867188 0 " clip-rule="nonzero"/></clipPath><clipPath id="bbefa87cdf"><path d="M 581 1316 L 1813 1316 L 1813 1691 L 581 1691 Z M 581 1316 " clip-rule="nonzero"/></clipPath><clipPath id="2217c22dc6"><path d="M 539.160156 1516.421875 L 1781.101562 1228.683594 L 1849.144531 1522.367188 L 607.199219 1810.105469 Z M 539.160156 1516.421875 " clip-rule="nonzero"/></clipPath><clipPath id="be493bc3bb"><path d="M 539.160156 1516.421875 L 1781.101562 1228.683594 L 1849.144531 1522.367188 L 607.199219 1810.105469 Z M 539.160156 1516.421875 " clip-rule="nonzero"/></clipPath><clipPath id="b4a21ee333"><path d="M 2441 767 L 3961 767 L 3961 1230 L 2441 1230 Z M 2441 767 " clip-rule="nonzero"/></clipPath><clipPath id="7ac04a61f8"><path d="M 2388.203125 1014.992188 L 3922.367188 659.554688 L 4006.320312 1021.910156 L 2472.152344 1377.347656 Z M 2388.203125 1014.992188 " clip-rule="nonzero"/></clipPath><clipPath id="afaddd1040"><path d="M 2388.203125 1014.992188 L 3922.367188 659.554688 L 4006.320312 1021.910156 L 2472.152344 1377.347656 Z M 2388.203125 1014.992188 " clip-rule="nonzero"/></clipPath><clipPath id="2d98e210c8"><path d="M 4595 239 L 6044 239 L 6044 680 L 4595 680 Z M 4595 239 " clip-rule="nonzero"/></clipPath><clipPath id="343a36a1a2"><path d="M 4545.460938 475.304688 L 6006.570312 136.792969 L 6086.628906 482.347656 L 4625.519531 820.859375 Z M 4545.460938 475.304688 " clip-rule="nonzero"/></clipPath><clipPath id="ce02537a6b"><path d="M 4545.460938 475.304688 L 6006.570312 136.792969 L 6086.628906 482.347656 L 4625.519531 820.859375 Z M 4545.460938 475.304688 " clip-rule="nonzero"/></clipPath></defs><g clip-path="url(#8f35624989)"><g clip-path="url(#db3f53789e)"><path fill="#bda6ff" d="M 0.0351562 1453.117188 L 539.160156 1453.117188 L 539.160156 1992.238281 L 0.0351562 1992.238281 Z M 0.0351562 1453.117188 " fill-opacity="1" fill-rule="nonzero"/></g></g><g fill="#ffffff" fill-opacity="1"><g transform="translate(189.58744, 1776.327325)"><g><path d="M 46.875 1.484375 C 34.832031 1.484375 25.5 -3.394531 18.875 -13.15625 C 12.257812 -22.914062 8.953125 -36.710938 8.953125 -54.546875 C 8.953125 -72.222656 12.285156 -85.976562 18.953125 -95.8125 C 25.628906 -105.65625 34.9375 -110.578125 46.875 -110.578125 C 58.800781 -110.578125 68.101562 -105.65625 74.78125 -95.8125 C 81.457031 -85.976562 84.796875 -72.222656 84.796875 -54.546875 C 84.796875 -36.710938 81.484375 -22.914062 74.859375 -13.15625 C 68.234375 -3.394531 58.90625 1.484375 46.875 1.484375 Z M 46.875 -10.21875 C 54.820312 -10.21875 61 -14.050781 65.40625 -21.71875 C 69.8125 -29.394531 72.015625 -40.335938 72.015625 -54.546875 C 72.015625 -68.710938 69.789062 -79.671875 65.34375 -87.421875 C 60.90625 -95.179688 54.75 -99.0625 46.875 -99.0625 C 38.988281 -99.0625 32.828125 -95.179688 28.390625 -87.421875 C 23.953125 -79.671875 21.734375 -68.710938 21.734375 -54.546875 C 21.734375 -40.335938 23.941406 -29.394531 28.359375 -21.71875 C 32.785156 -14.050781 38.957031 -10.21875 46.875 -10.21875 Z M 46.875 -10.21875 "/></g></g></g><g fill="#ffffff" fill-opacity="1"><g transform="translate(283.325707, 1776.327325)"><g><path d="M 46.234375 -109.078125 L 46.234375 0 L 33.015625 0 L 33.015625 -89.90625 L 32.171875 -89.90625 C 31.671875 -88.914062 30.390625 -87.785156 28.328125 -86.515625 C 26.273438 -85.253906 23.613281 -84.15625 20.34375 -83.21875 C 17.082031 -82.28125 13.351562 -81.8125 9.15625 -81.8125 L 9.15625 -92.890625 C 13.382812 -92.890625 17.039062 -93.648438 20.125 -95.171875 C 23.21875 -96.703125 25.800781 -98.492188 27.875 -100.546875 C 29.957031 -102.609375 31.539062 -104.472656 32.625 -106.140625 C 33.707031 -107.816406 34.335938 -108.796875 34.515625 -109.078125 Z M 46.234375 -109.078125 "/></g></g></g><g clip-path="url(#2395924efd)"><g clip-path="url(#34ba7f99e9)"><path fill="#bda6ff" d="M 1849.082031 1018.1875 L 2388.203125 1018.1875 L 2388.203125 1557.308594 L 1849.082031 1557.308594 Z M 1849.082031 1018.1875 " fill-opacity="1" fill-rule="nonzero"/></g></g><g fill="#ffffff" fill-opacity="1"><g transform="translate(2026.374402, 1341.396205)"><g><path d="M 46.875 1.484375 C 34.832031 1.484375 25.5 -3.394531 18.875 -13.15625 C 12.257812 -22.914062 8.953125 -36.710938 8.953125 -54.546875 C 8.953125 -72.222656 12.285156 -85.976562 18.953125 -95.8125 C 25.628906 -105.65625 34.9375 -110.578125 46.875 -110.578125 C 58.800781 -110.578125 68.101562 -105.65625 74.78125 -95.8125 C 81.457031 -85.976562 84.796875 -72.222656 84.796875 -54.546875 C 84.796875 -36.710938 81.484375 -22.914062 74.859375 -13.15625 C 68.234375 -3.394531 58.90625 1.484375 46.875 1.484375 Z M 46.875 -10.21875 C 54.820312 -10.21875 61 -14.050781 65.40625 -21.71875 C 69.8125 -29.394531 72.015625 -40.335938 72.015625 -54.546875 C 72.015625 -68.710938 69.789062 -79.671875 65.34375 -87.421875 C 60.90625 -95.179688 54.75 -99.0625 46.875 -99.0625 C 38.988281 -99.0625 32.828125 -95.179688 28.390625 -87.421875 C 23.953125 -79.671875 21.734375 -68.710938 21.734375 -54.546875 C 21.734375 -40.335938 23.941406 -29.394531 28.359375 -21.71875 C 32.785156 -14.050781 38.957031 -10.21875 46.875 -10.21875 Z M 46.875 -10.21875 "/></g></g></g><g fill="#ffffff" fill-opacity="1"><g transform="translate(2120.112669, 1341.396205)"><g><path d="M 11.296875 0 L 11.296875 -9.59375 L 47.296875 -49 C 51.523438 -53.613281 55.003906 -57.632812 57.734375 -61.0625 C 60.472656 -64.488281 62.503906 -67.71875 63.828125 -70.75 C 65.160156 -73.789062 65.828125 -76.976562 65.828125 -80.3125 C 65.828125 -86.070312 63.828125 -90.632812 59.828125 -94 C 55.835938 -97.375 50.878906 -99.0625 44.953125 -99.0625 C 38.628906 -99.0625 33.601562 -97.171875 29.875 -93.390625 C 26.144531 -89.609375 24.28125 -84.613281 24.28125 -78.40625 L 11.71875 -78.40625 C 11.71875 -84.789062 13.191406 -90.394531 16.140625 -95.21875 C 19.085938 -100.050781 23.109375 -103.816406 28.203125 -106.515625 C 33.296875 -109.222656 39.019531 -110.578125 45.375 -110.578125 C 51.769531 -110.578125 57.429688 -109.222656 62.359375 -106.515625 C 67.296875 -103.816406 71.164062 -100.175781 73.96875 -95.59375 C 76.78125 -91.019531 78.1875 -85.925781 78.1875 -80.3125 C 78.1875 -76.300781 77.46875 -72.382812 76.03125 -68.5625 C 74.59375 -64.75 72.109375 -60.507812 68.578125 -55.84375 C 65.046875 -51.175781 60.15625 -45.488281 53.90625 -38.78125 L 29.40625 -12.5625 L 29.40625 -11.71875 L 80.109375 -11.71875 L 80.109375 0 Z M 11.296875 0 "/></g></g></g><g clip-path="url(#c132a8b16d)"><g clip-path="url(#47850f0e02)"><path fill="#bda6ff" d="M 4006.339844 479.066406 L 4545.460938 479.066406 L 4545.460938 1018.1875 L 4006.339844 1018.1875 Z M 4006.339844 479.066406 " fill-opacity="1" fill-rule="nonzero"/></g></g><g fill="#ffffff" fill-opacity="1"><g transform="translate(4181.290866, 802.274725)"><g><path d="M 46.875 1.484375 C 34.832031 1.484375 25.5 -3.394531 18.875 -13.15625 C 12.257812 -22.914062 8.953125 -36.710938 8.953125 -54.546875 C 8.953125 -72.222656 12.285156 -85.976562 18.953125 -95.8125 C 25.628906 -105.65625 34.9375 -110.578125 46.875 -110.578125 C 58.800781 -110.578125 68.101562 -105.65625 74.78125 -95.8125 C 81.457031 -85.976562 84.796875 -72.222656 84.796875 -54.546875 C 84.796875 -36.710938 81.484375 -22.914062 74.859375 -13.15625 C 68.234375 -3.394531 58.90625 1.484375 46.875 1.484375 Z M 46.875 -10.21875 C 54.820312 -10.21875 61 -14.050781 65.40625 -21.71875 C 69.8125 -29.394531 72.015625 -40.335938 72.015625 -54.546875 C 72.015625 -68.710938 69.789062 -79.671875 65.34375 -87.421875 C 60.90625 -95.179688 54.75 -99.0625 46.875 -99.0625 C 38.988281 -99.0625 32.828125 -95.179688 28.390625 -87.421875 C 23.953125 -79.671875 21.734375 -68.710938 21.734375 -54.546875 C 21.734375 -40.335938 23.941406 -29.394531 28.359375 -21.71875 C 32.785156 -14.050781 38.957031 -10.21875 46.875 -10.21875 Z M 46.875 -10.21875 "/></g></g></g><g fill="#ffffff" fill-opacity="1"><g transform="translate(4275.029133, 802.274725)"><g><path d="M 48.140625 1.484375 C 41.117188 1.484375 34.863281 0.28125 29.375 -2.125 C 23.882812 -4.539062 19.53125 -7.90625 16.3125 -12.21875 C 13.101562 -16.53125 11.359375 -21.546875 11.078125 -27.265625 L 24.5 -27.265625 C 24.894531 -22.015625 27.316406 -17.859375 31.765625 -14.796875 C 36.222656 -11.742188 41.613281 -10.21875 47.9375 -10.21875 C 54.925781 -10.21875 60.6875 -12.003906 65.21875 -15.578125 C 69.75 -19.148438 72.015625 -23.828125 72.015625 -29.609375 C 72.015625 -35.648438 69.785156 -40.566406 65.328125 -44.359375 C 60.867188 -48.160156 54.503906 -50.0625 46.234375 -50.0625 L 37.5 -50.0625 L 37.5 -61.78125 L 46.234375 -61.78125 C 52.691406 -61.78125 57.960938 -63.5 62.046875 -66.9375 C 66.128906 -70.382812 68.171875 -74.988281 68.171875 -80.75 C 68.171875 -86.25 66.378906 -90.675781 62.796875 -94.03125 C 59.210938 -97.382812 54.398438 -99.0625 48.359375 -99.0625 C 44.597656 -99.0625 41.054688 -98.378906 37.734375 -97.015625 C 34.410156 -95.648438 31.703125 -93.679688 29.609375 -91.109375 C 27.515625 -88.535156 26.378906 -85.4375 26.203125 -81.8125 L 13.421875 -81.8125 C 13.628906 -87.53125 15.347656 -92.546875 18.578125 -96.859375 C 21.816406 -101.171875 26.050781 -104.535156 31.28125 -106.953125 C 36.519531 -109.367188 42.285156 -110.578125 48.578125 -110.578125 C 55.316406 -110.578125 61.101562 -109.21875 65.9375 -106.5 C 70.769531 -103.78125 74.476562 -100.203125 77.0625 -95.765625 C 79.65625 -91.328125 80.953125 -86.535156 80.953125 -81.390625 C 80.953125 -75.242188 79.34375 -70.003906 76.125 -65.671875 C 72.914062 -61.335938 68.5625 -58.335938 63.0625 -56.671875 L 63.0625 -55.8125 C 69.945312 -54.675781 75.320312 -51.753906 79.1875 -47.046875 C 83.0625 -42.347656 85 -36.535156 85 -29.609375 C 85 -23.679688 83.390625 -18.363281 80.171875 -13.65625 C 76.960938 -8.957031 72.585938 -5.257812 67.046875 -2.5625 C 61.515625 0.132812 55.210938 1.484375 48.140625 1.484375 Z M 48.140625 1.484375 "/></g></g></g><g clip-path="url(#fe788288d7)"><g clip-path="url(#a5c2cd2b93)"><path fill="#bda6ff" d="M 6086.546875 0 L 6565.1875 0 L 6565.1875 478.644531 L 6086.546875 478.644531 Z M 6086.546875 0 " fill-opacity="1" fill-rule="nonzero"/></g></g><g fill="#ffffff" fill-opacity="1"><g transform="translate(6230.832383, 293.213191)"><g><path d="M 46.875 1.484375 C 34.832031 1.484375 25.5 -3.394531 18.875 -13.15625 C 12.257812 -22.914062 8.953125 -36.710938 8.953125 -54.546875 C 8.953125 -72.222656 12.285156 -85.976562 18.953125 -95.8125 C 25.628906 -105.65625 34.9375 -110.578125 46.875 -110.578125 C 58.800781 -110.578125 68.101562 -105.65625 74.78125 -95.8125 C 81.457031 -85.976562 84.796875 -72.222656 84.796875 -54.546875 C 84.796875 -36.710938 81.484375 -22.914062 74.859375 -13.15625 C 68.234375 -3.394531 58.90625 1.484375 46.875 1.484375 Z M 46.875 -10.21875 C 54.820312 -10.21875 61 -14.050781 65.40625 -21.71875 C 69.8125 -29.394531 72.015625 -40.335938 72.015625 -54.546875 C 72.015625 -68.710938 69.789062 -79.671875 65.34375 -87.421875 C 60.90625 -95.179688 54.75 -99.0625 46.875 -99.0625 C 38.988281 -99.0625 32.828125 -95.179688 28.390625 -87.421875 C 23.953125 -79.671875 21.734375 -68.710938 21.734375 -54.546875 C 21.734375 -40.335938 23.941406 -29.394531 28.359375 -21.71875 C 32.785156 -14.050781 38.957031 -10.21875 46.875 -10.21875 Z M 46.875 -10.21875 "/></g></g></g><g fill="#ffffff" fill-opacity="1"><g transform="translate(6324.57065, 293.213191)"><g><path d="M 8.734375 -22.375 L 8.734375 -33.234375 L 56.671875 -109.078125 L 72.65625 -109.078125 L 72.65625 -34.09375 L 87.5625 -34.09375 L 87.5625 -22.375 L 72.65625 -22.375 L 72.65625 0 L 60.078125 0 L 60.078125 -22.375 Z M 60.078125 -34.09375 L 60.078125 -92.25 L 59.234375 -92.25 L 23.015625 -34.9375 L 23.015625 -34.09375 Z M 60.078125 -34.09375 "/></g></g></g><g clip-path="url(#bbefa87cdf)"><g clip-path="url(#2217c22dc6)"><g clip-path="url(#be493bc3bb)"><path fill="#6c5ffc" d="M 1738.574219 1396.699219 L 1598.007812 1343.742188 C 1590.683594 1340.976562 1586.976562 1332.78125 1589.734375 1325.453125 C 1592.5 1318.121094 1600.691406 1314.414062 1608.023438 1317.175781 L 1812.371094 1394.171875 L 1662.699219 1553.191406 C 1657.332031 1558.894531 1648.339844 1559.167969 1642.640625 1553.796875 C 1636.933594 1548.429688 1636.664062 1539.4375 1642.035156 1533.734375 C 1642.035156 1533.734375 1711.554688 1459.867188 1744.980469 1424.355469 L 599.324219 1689.785156 C 591.691406 1691.554688 584.0625 1686.792969 582.292969 1679.160156 C 580.523438 1671.53125 585.285156 1663.898438 592.914062 1662.132812 Z M 1738.574219 1396.699219 " fill-opacity="1" fill-rule="evenodd"/></g></g></g><g clip-path="url(#b4a21ee333)"><g clip-path="url(#7ac04a61f8)"><g clip-path="url(#afaddd1040)"><path fill="#6c5ffc" d="M 3869.835938 867.101562 L 3696.191406 801.679688 C 3687.144531 798.265625 3682.5625 788.144531 3685.972656 779.089844 C 3689.390625 770.035156 3699.507812 765.453125 3708.566406 768.863281 L 3960.992188 863.980469 L 3776.105469 1060.414062 C 3769.472656 1067.460938 3758.367188 1067.796875 3751.324219 1061.160156 C 3744.277344 1054.53125 3743.945312 1043.425781 3750.578125 1036.378906 C 3750.578125 1036.378906 3836.457031 945.128906 3877.746094 901.261719 L 2462.523438 1229.148438 C 2453.09375 1231.332031 2443.667969 1225.453125 2441.484375 1216.023438 C 2439.300781 1206.597656 2445.179688 1197.171875 2454.609375 1194.988281 Z M 3869.835938 867.101562 " fill-opacity="1" fill-rule="evenodd"/></g></g></g><g clip-path="url(#2d98e210c8)"><g clip-path="url(#343a36a1a2)"><g clip-path="url(#ce02537a6b)"><path fill="#6c5ffc" d="M 5956.539062 334.460938 L 5791.167969 272.152344 C 5782.550781 268.902344 5778.1875 259.261719 5781.433594 250.636719 C 5784.6875 242.011719 5794.324219 237.652344 5802.949219 240.898438 L 6043.359375 331.484375 L 5867.273438 518.566406 C 5860.957031 525.273438 5850.378906 525.59375 5843.675781 519.277344 C 5836.960938 512.960938 5836.644531 502.386719 5842.960938 495.675781 C 5842.960938 495.675781 5924.75 408.769531 5964.074219 366.992188 L 4616.242188 679.265625 C 4607.265625 681.34375 4598.289062 675.742188 4596.207031 666.765625 C 4594.128906 657.789062 4599.726562 648.808594 4608.707031 646.730469 Z M 5956.539062 334.460938 " fill-opacity="1" fill-rule="evenodd"/></g></g></g></svg>