<svg xmlns="http://www.w3.org/2000/svg" xmlns:xlink="http://www.w3.org/1999/xlink" width="1200" zoomAndPan="magnify" viewBox="0 0 4395.75 1462.499957" height="350" preserveAspectRatio="xMidYMid meet" version="1.0"><defs><g/><clipPath id="e470f9d54f"><path d="M 43 940 L 522 940 L 522 1420 L 43 1420 Z M 43 940 " clip-rule="nonzero"/></clipPath><clipPath id="4ef3613803"><path d="M 0.625 992.582031 L 469.746094 898.089844 L 564.238281 1367.207031 L 95.117188 1461.699219 Z M 0.625 992.582031 " clip-rule="nonzero"/></clipPath><clipPath id="cdf9688121"><path d="M 235.1875 945.335938 C 105.640625 971.429688 21.78125 1097.597656 47.871094 1227.140625 C 73.964844 1356.683594 200.132812 1440.546875 329.675781 1414.453125 C 459.222656 1388.359375 543.082031 1262.191406 516.992188 1132.648438 C 490.898438 1003.105469 364.730469 919.242188 235.1875 945.335938 Z M 235.1875 945.335938 " clip-rule="nonzero"/></clipPath><clipPath id="7aef833e28"><path d="M 201 1123 L 299 1123 L 299 1249 L 201 1249 Z M 201 1123 " clip-rule="nonzero"/></clipPath><clipPath id="451b7eba52"><path d="M 53.609375 1027.796875 L 434.328125 951.109375 L 511.015625 1331.832031 L 130.292969 1408.519531 Z M 53.609375 1027.796875 " clip-rule="nonzero"/></clipPath><clipPath id="b81c58f258"><path d="M 293 1113 L 352 1113 L 352 1229 L 293 1229 Z M 293 1113 " clip-rule="nonzero"/></clipPath><clipPath id="260e0ab957"><path d="M 53.609375 1027.796875 L 434.328125 951.109375 L 511.015625 1331.832031 L 130.292969 1408.519531 Z M 53.609375 1027.796875 " clip-rule="nonzero"/></clipPath><clipPath id="f744630af0"><path d="M 1296 646 L 1775 646 L 1775 1126 L 1296 1126 Z M 1296 646 " clip-rule="nonzero"/></clipPath><clipPath id="1ec66b2cfe"><path d="M 1248.242188 707.632812 L 1714.273438 598.9375 L 1822.96875 1064.96875 L 1356.9375 1173.667969 Z M 1248.242188 707.632812 " clip-rule="nonzero"/></clipPath><clipPath id="f768c53579"><path d="M 1481.257812 653.285156 C 1352.566406 683.300781 1272.574219 811.960938 1302.589844 940.652344 C 1332.605469 1069.339844 1461.261719 1149.335938 1589.953125 1119.320312 C 1718.644531 1089.304688 1798.636719 960.644531 1768.621094 831.953125 C 1738.605469 703.261719 1609.949219 623.269531 1481.257812 653.285156 Z M 1481.257812 653.285156 " clip-rule="nonzero"/></clipPath><clipPath id="17b03504c7"><path d="M 1441 832 L 1541 832 L 1541 960 L 1441 960 Z M 1441 832 " clip-rule="nonzero"/></clipPath><clipPath id="84f4920d09"><path d="M 1302.269531 741.226562 L 1680.484375 653.011719 L 1768.699219 1031.226562 L 1390.480469 1119.441406 Z M 1302.269531 741.226562 " clip-rule="nonzero"/></clipPath><clipPath id="cab3e1a737"><path d="M 1535 812 L 1628 812 L 1628 936 L 1535 936 Z M 1535 812 " clip-rule="nonzero"/></clipPath><clipPath id="bcfa438493"><path d="M 1302.269531 741.226562 L 1680.484375 653.011719 L 1768.699219 1031.226562 L 1390.480469 1119.441406 Z M 1302.269531 741.226562 " clip-rule="nonzero"/></clipPath><clipPath id="0bf40b1430"><path d="M 2586 351 L 3066 351 L 3066 830 L 2586 830 Z M 2586 351 " clip-rule="nonzero"/></clipPath><clipPath id="15ec6e9f82"><path d="M 2530.234375 426.273438 L 2990.261719 294.460938 L 3122.078125 754.488281 L 2662.050781 886.300781 Z M 2530.234375 426.273438 " clip-rule="nonzero"/></clipPath><clipPath id="2ba7a129f4"><path d="M 2760.25 360.367188 C 2633.214844 396.765625 2559.742188 529.253906 2596.140625 656.289062 C 2632.542969 783.320312 2765.03125 856.792969 2892.0625 820.394531 C 3019.097656 783.996094 3092.570312 651.507812 3056.167969 524.472656 C 3019.769531 397.441406 2887.28125 323.96875 2760.25 360.367188 Z M 2760.25 360.367188 " clip-rule="nonzero"/></clipPath><clipPath id="588997dabe"><path d="M 2728 538 L 2832 538 L 2832 668 L 2728 668 Z M 2728 538 " clip-rule="nonzero"/></clipPath><clipPath id="a1c92689ae"><path d="M 2585.871094 457.128906 L 2959.214844 350.152344 L 3066.191406 723.496094 L 2692.847656 830.472656 Z M 2585.871094 457.128906 " clip-rule="nonzero"/></clipPath><clipPath id="4af32f86f7"><path d="M 2820 512 L 2923 512 L 2923 641 L 2820 641 Z M 2820 512 " clip-rule="nonzero"/></clipPath><clipPath id="956af8382e"><path d="M 2585.871094 457.128906 L 2959.214844 350.152344 L 3066.191406 723.496094 L 2692.847656 830.472656 Z M 2585.871094 457.128906 " clip-rule="nonzero"/></clipPath><clipPath id="29668638cb"><path d="M 3860 55 L 4340 55 L 4340 534 L 3860 534 Z M 3860 55 " clip-rule="nonzero"/></clipPath><clipPath id="8a8d38e123"><path d="M 3805.460938 127.746094 L 4266.636719 0 L 4394.382812 461.171875 L 3933.210938 588.921875 Z M 3805.460938 127.746094 " clip-rule="nonzero"/></clipPath><clipPath id="8b93325417"><path d="M 4036.050781 63.871094 C 3908.699219 99.148438 3834.058594 230.984375 3869.335938 358.332031 C 3904.613281 485.683594 4036.445312 560.324219 4163.796875 525.046875 C 4291.144531 489.769531 4365.785156 357.9375 4330.511719 230.585938 C 4295.234375 103.238281 4163.398438 28.597656 4036.050781 63.871094 Z M 4036.050781 63.871094 " clip-rule="nonzero"/></clipPath><clipPath id="19f14cdbd3"><path d="M 4001 242 L 4105 242 L 4105 371 L 4001 371 Z M 4001 242 " clip-rule="nonzero"/></clipPath><clipPath id="d65b9da43f"><path d="M 3860.824219 159.089844 L 4235.097656 55.414062 L 4338.773438 429.6875 L 3964.5 533.363281 Z M 3860.824219 159.089844 " clip-rule="nonzero"/></clipPath><clipPath id="0cb9e0b21d"><path d="M 4092 218 L 4198 218 L 4198 345 L 4092 345 Z M 4092 218 " clip-rule="nonzero"/></clipPath><clipPath id="a5d4bba63b"><path d="M 3860.824219 159.089844 L 4235.097656 55.414062 L 4338.773438 429.6875 L 3964.5 533.363281 Z M 3860.824219 159.089844 " clip-rule="nonzero"/></clipPath><clipPath id="e044c8b083"><path d="M 533 908 L 1275 908 L 1275 1134 L 533 1134 Z M 533 908 " clip-rule="nonzero"/></clipPath><clipPath id="d1d6a448fa"><path d="M 507.722656 1028.742188 L 1254.917969 855.628906 L 1295.867188 1032.386719 L 548.671875 1205.496094 Z M 507.722656 1028.742188 " clip-rule="nonzero"/></clipPath><clipPath id="0295f916d9"><path d="M 507.722656 1028.742188 L 1254.917969 855.628906 L 1295.867188 1032.386719 L 548.671875 1205.496094 Z M 507.722656 1028.742188 " clip-rule="nonzero"/></clipPath><clipPath id="d98e50af7d"><path d="M 1801 596 L 2568 596 L 2568 830 L 1801 830 Z M 1801 596 " clip-rule="nonzero"/></clipPath><clipPath id="deb61a681a"><path d="M 1774.703125 721.484375 L 2548.191406 542.28125 L 2590.5 724.882812 L 1817.007812 904.085938 Z M 1774.703125 721.484375 " clip-rule="nonzero"/></clipPath><clipPath id="24c2802474"><path d="M 1774.703125 721.484375 L 2548.191406 542.28125 L 2590.5 724.882812 L 1817.007812 904.085938 Z M 1774.703125 721.484375 " clip-rule="nonzero"/></clipPath><clipPath id="4dbee96dd1"><path d="M 3077 291 L 3845 291 L 3845 525 L 3077 525 Z M 3077 291 " clip-rule="nonzero"/></clipPath><clipPath id="9780dee4ac"><path d="M 3051.347656 416.242188 L 3824.839844 237.039062 L 3867.144531 419.636719 L 3093.652344 598.839844 Z M 3051.347656 416.242188 " clip-rule="nonzero"/></clipPath><clipPath id="7cd3e0eee9"><path d="M 3051.347656 416.242188 L 3824.839844 237.039062 L 3867.144531 419.636719 L 3093.652344 598.839844 Z M 3051.347656 416.242188 " clip-rule="nonzero"/></clipPath></defs><g clip-path="url(#e470f9d54f)"><g clip-path="url(#4ef3613803)"><g clip-path="url(#cdf9688121)"><path fill="#bda6ff" d="M 0.625 992.582031 L 469.746094 898.089844 L 564.238281 1367.207031 L 95.117188 1461.699219 Z M 0.625 992.582031 " fill-opacity="1" fill-rule="nonzero"/></g></g></g><g clip-path="url(#7aef833e28)"><g clip-path="url(#451b7eba52)"><g fill="#ffffff" fill-opacity="1"><g transform="translate(214.649283, 1248.508524)"><g><path d="M 46.234375 -7.796875 C 34.441406 -5.421875 24.335938 -8.363281 15.921875 -16.625 C 7.503906 -24.882812 1.535156 -37.75 -1.984375 -55.21875 C -5.472656 -72.550781 -4.921875 -86.695312 -0.328125 -97.65625 C 4.265625 -108.613281 12.410156 -115.269531 24.109375 -117.625 C 35.796875 -119.976562 45.882812 -116.992188 54.375 -108.671875 C 62.863281 -100.347656 68.851562 -87.519531 72.34375 -70.1875 C 75.863281 -52.71875 75.335938 -38.546875 70.765625 -27.671875 C 66.203125 -16.796875 58.023438 -10.171875 46.234375 -7.796875 Z M 43.921875 -19.265625 C 51.710938 -20.835938 57.007812 -25.816406 59.8125 -34.203125 C 62.613281 -42.597656 62.613281 -53.753906 59.8125 -67.671875 C 57.007812 -81.554688 52.664062 -91.863281 46.78125 -98.59375 C 40.90625 -105.320312 34.101562 -107.90625 26.375 -106.34375 C 18.644531 -104.789062 13.367188 -99.769531 10.546875 -91.28125 C 7.734375 -82.800781 7.726562 -71.617188 10.53125 -57.734375 C 13.332031 -43.816406 17.65625 -33.535156 23.5 -26.890625 C 29.351562 -20.242188 36.160156 -17.703125 43.921875 -19.265625 Z M 43.921875 -19.265625 "/></g></g></g></g></g><g clip-path="url(#b81c58f258)"><g clip-path="url(#260e0ab957)"><g fill="#ffffff" fill-opacity="1"><g transform="translate(306.522082, 1230.003127)"><g><path d="M 23.78125 -116.046875 L 45.3125 -9.125 L 32.359375 -6.515625 L 14.609375 -94.640625 L 13.765625 -94.46875 C 13.484375 -93.394531 12.457031 -92.035156 10.6875 -90.390625 C 8.914062 -88.742188 6.519531 -87.140625 3.5 -85.578125 C 0.488281 -84.015625 -3.070312 -82.820312 -7.1875 -82 L -9.375 -92.859375 C -5.226562 -93.691406 -1.789062 -95.160156 0.9375 -97.265625 C 3.675781 -99.367188 5.859375 -101.632812 7.484375 -104.0625 C 9.109375 -106.488281 10.285156 -108.625 11.015625 -110.46875 C 11.742188 -112.320312 12.171875 -113.410156 12.296875 -113.734375 Z M 23.78125 -116.046875 "/></g></g></g></g></g><g clip-path="url(#f744630af0)"><g clip-path="url(#1ec66b2cfe)"><g clip-path="url(#f768c53579)"><path fill="#bda6ff" d="M 1248.242188 707.632812 L 1714.273438 598.9375 L 1822.96875 1064.96875 L 1356.9375 1173.667969 Z M 1248.242188 707.632812 " fill-opacity="1" fill-rule="nonzero"/></g></g></g><g clip-path="url(#17b03504c7)"><g clip-path="url(#84f4920d09)"><g fill="#ffffff" fill-opacity="1"><g transform="translate(1458.016435, 959.724937)"><g><path d="M 45.984375 -9.1875 C 34.265625 -6.457031 24.070312 -9.09375 15.40625 -17.09375 C 6.738281 -25.09375 0.378906 -37.773438 -3.671875 -55.140625 C -7.679688 -72.347656 -7.550781 -86.5 -3.28125 -97.59375 C 0.976562 -108.6875 8.914062 -115.585938 20.53125 -118.296875 C 32.144531 -121.003906 42.316406 -118.328125 51.046875 -110.265625 C 59.785156 -102.203125 66.160156 -89.566406 70.171875 -72.359375 C 74.222656 -54.992188 74.128906 -40.804688 69.890625 -29.796875 C 65.660156 -18.785156 57.691406 -11.914062 45.984375 -9.1875 Z M 43.3125 -20.59375 C 51.050781 -22.394531 56.195312 -27.53125 58.75 -36 C 61.300781 -44.476562 60.960938 -55.632812 57.734375 -69.46875 C 54.515625 -83.257812 49.863281 -93.425781 43.78125 -99.96875 C 37.695312 -106.507812 30.816406 -108.882812 23.140625 -107.09375 C 15.453125 -105.300781 10.328125 -100.125 7.765625 -91.5625 C 5.210938 -83.007812 5.546875 -71.835938 8.765625 -58.046875 C 11.992188 -44.210938 16.628906 -34.0625 22.671875 -27.59375 C 28.710938 -21.132812 35.59375 -18.800781 43.3125 -20.59375 Z M 43.3125 -20.59375 "/></g></g></g></g></g><g clip-path="url(#cab3e1a737)"><g clip-path="url(#bcfa438493)"><g fill="#ffffff" fill-opacity="1"><g transform="translate(1549.284799, 938.437692)"><g><path d="M 11 -2.5625 L 8.828125 -11.890625 L 34.921875 -58.4375 C 37.984375 -63.894531 40.457031 -68.601562 42.34375 -72.5625 C 44.238281 -76.519531 45.484375 -80.128906 46.078125 -83.390625 C 46.679688 -86.648438 46.609375 -89.90625 45.859375 -93.15625 C 44.546875 -98.75 41.5625 -102.734375 36.90625 -105.109375 C 32.257812 -107.492188 27.046875 -108.007812 21.265625 -106.65625 C 15.117188 -105.226562 10.65625 -102.25 7.875 -97.71875 C 5.101562 -93.1875 4.425781 -87.898438 5.84375 -81.859375 L -6.390625 -79 C -7.847656 -85.21875 -7.6875 -91.015625 -5.90625 -96.390625 C -4.132812 -101.765625 -1.078125 -106.34375 3.265625 -110.125 C 7.617188 -113.90625 12.890625 -116.519531 19.078125 -117.96875 C 25.296875 -119.414062 31.113281 -119.382812 36.53125 -117.875 C 41.957031 -116.375 46.550781 -113.710938 50.3125 -109.890625 C 54.082031 -106.066406 56.609375 -101.421875 57.890625 -95.953125 C 58.796875 -92.046875 58.984375 -88.070312 58.453125 -84.03125 C 57.921875 -79.988281 56.460938 -75.289062 54.078125 -69.9375 C 51.703125 -64.59375 48.234375 -57.941406 43.671875 -49.984375 L 25.765625 -18.90625 L 25.96875 -18.078125 L 75.34375 -29.59375 L 78 -18.1875 Z M 11 -2.5625 "/></g></g></g></g></g><g clip-path="url(#0bf40b1430)"><g clip-path="url(#15ec6e9f82)"><g clip-path="url(#2ba7a129f4)"><path fill="#bda6ff" d="M 2530.234375 426.273438 L 2990.261719 294.460938 L 3122.078125 754.488281 L 2662.050781 886.300781 Z M 2530.234375 426.273438 " fill-opacity="1" fill-rule="nonzero"/></g></g></g><g clip-path="url(#588997dabe)"><g clip-path="url(#a1c92689ae)"><g fill="#ffffff" fill-opacity="1"><g transform="translate(2750.074945, 668.228917)"><g><path d="M 45.453125 -11.484375 C 33.890625 -8.171875 23.582031 -10.289062 14.53125 -17.84375 C 5.476562 -25.40625 -1.5 -37.753906 -6.40625 -54.890625 C -11.28125 -71.878906 -11.863281 -86.019531 -8.15625 -97.3125 C -4.457031 -108.601562 3.125 -115.890625 14.59375 -119.171875 C 26.0625 -122.453125 36.359375 -120.285156 45.484375 -112.671875 C 54.609375 -105.066406 61.609375 -92.769531 66.484375 -75.78125 C 71.390625 -58.644531 72 -44.472656 68.3125 -33.265625 C 64.632812 -22.054688 57.015625 -14.796875 45.453125 -11.484375 Z M 42.234375 -22.734375 C 49.867188 -24.921875 54.75 -30.304688 56.875 -38.890625 C 59 -47.484375 58.109375 -58.601562 54.203125 -72.25 C 50.296875 -85.863281 45.140625 -95.789062 38.734375 -102.03125 C 32.335938 -108.269531 25.347656 -110.300781 17.765625 -108.125 C 10.179688 -105.957031 5.320312 -100.53125 3.1875 -91.84375 C 1.0625 -83.164062 1.953125 -72.019531 5.859375 -58.40625 C 9.765625 -44.757812 14.898438 -34.859375 21.265625 -28.703125 C 27.628906 -22.546875 34.617188 -20.554688 42.234375 -22.734375 Z M 42.234375 -22.734375 "/></g></g></g></g></g><g clip-path="url(#4af32f86f7)"><g clip-path="url(#956af8382e)"><g fill="#ffffff" fill-opacity="1"><g transform="translate(2840.167432, 642.414108)"><g><path d="M 46.6875 -11.84375 C 39.925781 -9.90625 33.578125 -9.335938 27.640625 -10.140625 C 21.710938 -10.953125 16.609375 -12.988281 12.328125 -16.25 C 8.054688 -19.507812 4.992188 -23.84375 3.140625 -29.25 L 16.03125 -32.953125 C 17.851562 -28.015625 21.328125 -24.691406 26.453125 -22.984375 C 31.585938 -21.273438 37.1875 -21.289062 43.25 -23.03125 C 49.976562 -24.957031 55.023438 -28.253906 58.390625 -32.921875 C 61.765625 -37.597656 62.65625 -42.722656 61.0625 -48.296875 C 59.40625 -54.085938 55.90625 -58.195312 50.5625 -60.625 C 45.226562 -63.050781 38.585938 -63.128906 30.640625 -60.859375 L 22.234375 -58.453125 L 19.015625 -69.703125 L 27.421875 -72.109375 C 33.628906 -73.890625 38.21875 -76.992188 41.1875 -81.421875 C 44.164062 -85.859375 44.863281 -90.847656 43.28125 -96.390625 C 41.757812 -101.679688 38.816406 -105.441406 34.453125 -107.671875 C 30.085938 -109.910156 25 -110.195312 19.1875 -108.53125 C 15.570312 -107.5 12.359375 -105.863281 9.546875 -103.625 C 6.734375 -101.394531 4.671875 -98.753906 3.359375 -95.703125 C 2.054688 -92.660156 1.820312 -89.375 2.65625 -85.84375 L -9.625 -82.328125 C -11 -87.867188 -10.722656 -93.160156 -8.796875 -98.203125 C -6.878906 -103.242188 -3.738281 -107.644531 0.625 -111.40625 C 4.988281 -115.164062 10.191406 -117.910156 16.234375 -119.640625 C 22.722656 -121.503906 28.660156 -121.796875 34.046875 -120.515625 C 39.441406 -119.234375 43.992188 -116.816406 47.703125 -113.265625 C 51.410156 -109.710938 53.976562 -105.460938 55.40625 -100.515625 C 57.09375 -94.609375 56.984375 -89.128906 55.078125 -84.078125 C 53.179688 -79.023438 49.820312 -74.941406 45 -71.828125 L 45.234375 -71.015625 C 52.160156 -71.828125 58.132812 -70.5 63.15625 -67.03125 C 68.175781 -63.570312 71.640625 -58.519531 73.546875 -51.875 C 75.179688 -46.175781 75.097656 -40.625 73.296875 -35.21875 C 71.492188 -29.8125 68.304688 -25.046875 63.734375 -20.921875 C 59.160156 -16.804688 53.476562 -13.78125 46.6875 -11.84375 Z M 46.6875 -11.84375 "/></g></g></g></g></g><g clip-path="url(#29668638cb)"><g clip-path="url(#8a8d38e123)"><g clip-path="url(#8b93325417)"><path fill="#bda6ff" d="M 3805.460938 127.746094 L 4266.636719 0 L 4394.382812 461.171875 L 3933.210938 588.921875 Z M 3805.460938 127.746094 " fill-opacity="1" fill-rule="nonzero"/></g></g></g><g clip-path="url(#19f14cdbd3)"><g clip-path="url(#d65b9da43f)"><g fill="#ffffff" fill-opacity="1"><g transform="translate(4022.739861, 371.748516)"><g><path d="M 45.546875 -11.078125 C 33.953125 -7.859375 23.660156 -10.066406 14.671875 -17.703125 C 5.691406 -25.347656 -1.175781 -37.757812 -5.9375 -54.9375 C -10.65625 -71.976562 -11.109375 -86.125 -7.296875 -97.375 C -3.492188 -108.632812 4.148438 -115.859375 15.640625 -119.046875 C 27.140625 -122.222656 37.414062 -119.960938 46.46875 -112.265625 C 55.53125 -104.578125 62.421875 -92.210938 67.140625 -75.171875 C 71.898438 -57.992188 72.390625 -43.816406 68.609375 -32.640625 C 64.828125 -21.472656 57.140625 -14.285156 45.546875 -11.078125 Z M 42.421875 -22.359375 C 50.078125 -24.472656 55.003906 -29.816406 57.203125 -38.390625 C 59.410156 -46.960938 58.617188 -58.085938 54.828125 -71.765625 C 51.046875 -85.421875 45.984375 -95.394531 39.640625 -101.6875 C 33.296875 -107.976562 26.320312 -110.070312 18.71875 -107.96875 C 11.125 -105.851562 6.222656 -100.46875 4.015625 -91.8125 C 1.804688 -83.15625 2.59375 -72 6.375 -58.34375 C 10.164062 -44.664062 15.210938 -34.71875 21.515625 -28.5 C 27.828125 -22.289062 34.796875 -20.242188 42.421875 -22.359375 Z M 42.421875 -22.359375 "/></g></g></g></g></g><g clip-path="url(#0cb9e0b21d)"><g clip-path="url(#a5d4bba63b)"><g fill="#ffffff" fill-opacity="1"><g transform="translate(4113.056809, 346.730333)"><g><path d="M 2.453125 -23.875 L -0.453125 -34.359375 L 25.484375 -120.234375 L 40.890625 -124.5 L 60.90625 -52.234375 L 75.28125 -56.21875 L 78.40625 -44.921875 L 64.03125 -40.9375 L 70 -19.390625 L 57.875 -16.03125 L 51.90625 -37.578125 Z M 48.78125 -48.875 L 33.25 -104.921875 L 32.4375 -104.703125 L 12.84375 -39.8125 L 13.078125 -38.984375 Z M 48.78125 -48.875 "/></g></g></g></g></g><g clip-path="url(#e044c8b083)"><g clip-path="url(#d1d6a448fa)"><g clip-path="url(#0295f916d9)"><path fill="#6c5ffc" d="M 1229.640625 956.679688 L 1145.035156 924.804688 C 1140.625 923.140625 1138.394531 918.207031 1140.054688 913.796875 C 1141.71875 909.382812 1146.648438 907.152344 1151.0625 908.816406 L 1274.058594 955.160156 L 1183.972656 1050.871094 C 1180.738281 1054.304688 1175.328125 1054.46875 1171.898438 1051.234375 C 1168.460938 1048.003906 1168.300781 1042.59375 1171.53125 1039.160156 C 1171.53125 1039.160156 1213.375 994.699219 1233.496094 973.324219 L 543.933594 1133.085938 C 539.339844 1134.148438 534.746094 1131.285156 533.683594 1126.691406 C 532.617188 1122.097656 535.484375 1117.503906 540.078125 1116.441406 Z M 1229.640625 956.679688 " fill-opacity="1" fill-rule="evenodd"/></g></g></g><g clip-path="url(#d98e50af7d)"><g clip-path="url(#deb61a681a)"><g clip-path="url(#24c2802474)"><path fill="#6c5ffc" d="M 2521.53125 646.9375 L 2434.003906 613.960938 C 2429.445312 612.242188 2427.136719 607.140625 2428.851562 602.574219 C 2430.574219 598.011719 2435.675781 595.703125 2440.242188 597.421875 L 2567.480469 645.363281 L 2474.285156 744.378906 C 2470.941406 747.929688 2465.34375 748.101562 2461.796875 744.757812 C 2458.242188 741.414062 2458.074219 735.816406 2461.417969 732.261719 C 2461.417969 732.261719 2504.707031 686.269531 2525.519531 664.15625 L 1812.164062 829.429688 C 1807.414062 830.53125 1802.660156 827.566406 1801.558594 822.816406 C 1800.460938 818.0625 1803.421875 813.3125 1808.175781 812.210938 Z M 2521.53125 646.9375 " fill-opacity="1" fill-rule="evenodd"/></g></g></g><g clip-path="url(#4dbee96dd1)"><g clip-path="url(#9780dee4ac)"><g clip-path="url(#7cd3e0eee9)"><path fill="#6c5ffc" d="M 3798.175781 341.695312 L 3710.648438 308.71875 C 3706.089844 307 3703.78125 301.894531 3705.496094 297.332031 C 3707.21875 292.765625 3712.320312 290.457031 3716.886719 292.175781 L 3844.125 340.121094 L 3750.929688 439.136719 C 3747.585938 442.6875 3741.988281 442.855469 3738.441406 439.511719 C 3734.886719 436.167969 3734.71875 430.570312 3738.0625 427.019531 C 3738.0625 427.019531 3781.351562 381.023438 3802.164062 358.914062 L 3088.808594 524.1875 C 3084.058594 525.289062 3079.304688 522.324219 3078.203125 517.570312 C 3077.105469 512.820312 3080.066406 508.070312 3084.820312 506.96875 Z M 3798.175781 341.695312 " fill-opacity="1" fill-rule="evenodd"/></g></g></g></svg>