<svg xmlns="http://www.w3.org/2000/svg" xmlns:xlink="http://www.w3.org/1999/xlink" width="1000" zoomAndPan="magnify" viewBox="0 0 7488 1624.499951" height="217" preserveAspectRatio="xMidYMid meet" version="1.0"><defs><g/><clipPath id="2de2f0a1f6"><path d="M 1.152344 1084.675781 L 540.175781 1084.675781 L 540.175781 1623.699219 L 1.152344 1623.699219 Z M 1.152344 1084.675781 " clip-rule="nonzero"/></clipPath><clipPath id="2279e169e2"><path d="M 270.664062 1084.675781 C 121.816406 1084.675781 1.152344 1205.339844 1.152344 1354.1875 C 1.152344 1503.035156 121.816406 1623.699219 270.664062 1623.699219 C 419.511719 1623.699219 540.175781 1503.035156 540.175781 1354.1875 C 540.175781 1205.339844 419.511719 1084.675781 270.664062 1084.675781 Z M 270.664062 1084.675781 " clip-rule="nonzero"/></clipPath><clipPath id="d1e7359845"><path d="M 2299.222656 701.015625 L 2838.246094 701.015625 L 2838.246094 1240.039062 L 2299.222656 1240.039062 Z M 2299.222656 701.015625 " clip-rule="nonzero"/></clipPath><clipPath id="34df23ce8c"><path d="M 2568.734375 701.015625 C 2419.886719 701.015625 2299.222656 821.679688 2299.222656 970.527344 C 2299.222656 1119.375 2419.886719 1240.039062 2568.734375 1240.039062 C 2717.578125 1240.039062 2838.246094 1119.375 2838.246094 970.527344 C 2838.246094 821.679688 2717.578125 701.015625 2568.734375 701.015625 Z M 2568.734375 701.015625 " clip-rule="nonzero"/></clipPath><clipPath id="c78d6eb852"><path d="M 4690.898438 389.332031 L 5229.921875 389.332031 L 5229.921875 928.351562 L 4690.898438 928.351562 Z M 4690.898438 389.332031 " clip-rule="nonzero"/></clipPath><clipPath id="458ca64ad8"><path d="M 4960.410156 389.332031 C 4811.5625 389.332031 4690.898438 509.996094 4690.898438 658.84375 C 4690.898438 807.6875 4811.5625 928.351562 4960.410156 928.351562 C 5109.257812 928.351562 5229.921875 807.6875 5229.921875 658.84375 C 5229.921875 509.996094 5109.257812 389.332031 4960.410156 389.332031 Z M 4960.410156 389.332031 " clip-rule="nonzero"/></clipPath><clipPath id="29fe3b1e4b"><path d="M 6947.109375 0 L 7486.117188 0 L 7486.117188 539.007812 L 6947.109375 539.007812 Z M 6947.109375 0 " clip-rule="nonzero"/></clipPath><clipPath id="c1e55f4340"><path d="M 7216.613281 539.007812 C 7067.769531 539.007812 6947.109375 418.347656 6947.109375 269.503906 C 6947.109375 120.660156 7067.769531 0 7216.613281 0 C 7365.457031 0 7486.117188 120.660156 7486.117188 269.503906 C 7486.117188 418.347656 7365.457031 539.007812 7216.613281 539.007812 Z M 7216.613281 539.007812 " clip-rule="evenodd"/></clipPath><clipPath id="dbbaf64a4e"><path d="M 608 867 L 2240 867 L 2240 1300 L 608 1300 Z M 608 867 " clip-rule="nonzero"/></clipPath><clipPath id="1b74edb20b"><path d="M 561.917969 1067.683594 L 2208.914062 762.757812 L 2280.984375 1152.019531 L 633.988281 1456.945312 Z M 561.917969 1067.683594 " clip-rule="nonzero"/></clipPath><clipPath id="084130c296"><path d="M 561.917969 1067.683594 L 2208.914062 762.757812 L 2280.984375 1152.019531 L 633.988281 1456.945312 Z M 561.917969 1067.683594 " clip-rule="nonzero"/></clipPath><clipPath id="1d515fecdf"><path d="M 2897 548 L 4540 548 L 4540 924 L 2897 924 Z M 2897 548 " clip-rule="nonzero"/></clipPath><clipPath id="ebe320b699"><path d="M 2859.617188 689.632812 L 4517.882812 453.566406 L 4573.679688 845.492188 L 2915.414062 1081.5625 Z M 2859.617188 689.632812 " clip-rule="nonzero"/></clipPath><clipPath id="f6492f16ea"><path d="M 2859.617188 689.632812 L 4517.882812 453.566406 L 4573.679688 845.492188 L 2915.414062 1081.5625 Z M 2859.617188 689.632812 " clip-rule="nonzero"/></clipPath><clipPath id="2ecea801f6"><path d="M 5271 224 L 6911 224 L 6911 616 L 5271 616 Z M 5271 224 " clip-rule="nonzero"/></clipPath><clipPath id="3402bff84b"><path d="M 5231.003906 381.859375 L 6886.542969 127.359375 L 6946.691406 518.640625 L 5291.15625 773.140625 Z M 5231.003906 381.859375 " clip-rule="nonzero"/></clipPath><clipPath id="986fd9a457"><path d="M 5231.003906 381.859375 L 6886.542969 127.359375 L 6946.691406 518.640625 L 5291.15625 773.140625 Z M 5231.003906 381.859375 " clip-rule="nonzero"/></clipPath></defs><g clip-path="url(#2de2f0a1f6)"><g clip-path="url(#2279e169e2)"><path fill="#bda6ff" d="M 1.152344 1084.675781 L 540.175781 1084.675781 L 540.175781 1623.699219 L 1.152344 1623.699219 Z M 1.152344 1084.675781 " fill-opacity="1" fill-rule="nonzero"/></g></g><g fill="#ffffff" fill-opacity="1"><g transform="translate(190.66799, 1407.827764)"><g><path d="M 46.859375 1.484375 C 34.828125 1.484375 25.5 -3.394531 18.875 -13.15625 C 12.257812 -22.914062 8.953125 -36.707031 8.953125 -54.53125 C 8.953125 -72.207031 12.285156 -85.960938 18.953125 -95.796875 C 25.628906 -105.628906 34.929688 -110.546875 46.859375 -110.546875 C 58.785156 -110.546875 68.085938 -105.628906 74.765625 -95.796875 C 81.441406 -85.960938 84.78125 -72.207031 84.78125 -54.53125 C 84.78125 -36.707031 81.46875 -22.914062 74.84375 -13.15625 C 68.21875 -3.394531 58.890625 1.484375 46.859375 1.484375 Z M 46.859375 -10.21875 C 54.804688 -10.21875 60.984375 -14.050781 65.390625 -21.71875 C 69.796875 -29.394531 72 -40.332031 72 -54.53125 C 72 -68.695312 69.78125 -79.65625 65.34375 -87.40625 C 60.90625 -95.164062 54.742188 -99.046875 46.859375 -99.046875 C 38.972656 -99.046875 32.8125 -95.164062 28.375 -87.40625 C 23.9375 -79.65625 21.71875 -68.695312 21.71875 -54.53125 C 21.71875 -40.332031 23.925781 -29.394531 28.34375 -21.71875 C 32.769531 -14.050781 38.941406 -10.21875 46.859375 -10.21875 Z M 46.859375 -10.21875 "/></g></g></g><g fill="#ffffff" fill-opacity="1"><g transform="translate(284.389172, 1407.827764)"><g><path d="M 46.21875 -109.0625 L 46.21875 0 L 33.015625 0 L 33.015625 -89.890625 L 32.15625 -89.890625 C 31.664062 -88.890625 30.390625 -87.757812 28.328125 -86.5 C 26.265625 -85.238281 23.597656 -84.140625 20.328125 -83.203125 C 17.066406 -82.265625 13.34375 -81.796875 9.15625 -81.796875 L 9.15625 -92.875 C 13.382812 -92.875 17.039062 -93.632812 20.125 -95.15625 C 23.21875 -96.6875 25.800781 -98.476562 27.875 -100.53125 C 29.945312 -102.59375 31.523438 -104.457031 32.609375 -106.125 C 33.691406 -107.789062 34.320312 -108.769531 34.5 -109.0625 Z M 46.21875 -109.0625 "/></g></g></g><g clip-path="url(#d1e7359845)"><g clip-path="url(#34df23ce8c)"><path fill="#bda6ff" d="M 2299.222656 701.015625 L 2838.246094 701.015625 L 2838.246094 1240.039062 L 2299.222656 1240.039062 Z M 2299.222656 701.015625 " fill-opacity="1" fill-rule="nonzero"/></g></g><g fill="#ffffff" fill-opacity="1"><g transform="translate(2476.482966, 1024.166078)"><g><path d="M 46.859375 1.484375 C 34.828125 1.484375 25.5 -3.394531 18.875 -13.15625 C 12.257812 -22.914062 8.953125 -36.707031 8.953125 -54.53125 C 8.953125 -72.207031 12.285156 -85.960938 18.953125 -95.796875 C 25.628906 -105.628906 34.929688 -110.546875 46.859375 -110.546875 C 58.785156 -110.546875 68.085938 -105.628906 74.765625 -95.796875 C 81.441406 -85.960938 84.78125 -72.207031 84.78125 -54.53125 C 84.78125 -36.707031 81.46875 -22.914062 74.84375 -13.15625 C 68.21875 -3.394531 58.890625 1.484375 46.859375 1.484375 Z M 46.859375 -10.21875 C 54.804688 -10.21875 60.984375 -14.050781 65.390625 -21.71875 C 69.796875 -29.394531 72 -40.332031 72 -54.53125 C 72 -68.695312 69.78125 -79.65625 65.34375 -87.40625 C 60.90625 -95.164062 54.742188 -99.046875 46.859375 -99.046875 C 38.972656 -99.046875 32.8125 -95.164062 28.375 -87.40625 C 23.9375 -79.65625 21.71875 -68.695312 21.71875 -54.53125 C 21.71875 -40.332031 23.925781 -29.394531 28.34375 -21.71875 C 32.769531 -14.050781 38.941406 -10.21875 46.859375 -10.21875 Z M 46.859375 -10.21875 "/></g></g></g><g fill="#ffffff" fill-opacity="1"><g transform="translate(2570.204148, 1024.166078)"><g><path d="M 11.296875 0 L 11.296875 -9.578125 L 47.28125 -48.984375 C 51.507812 -53.597656 54.988281 -57.617188 57.71875 -61.046875 C 60.457031 -64.472656 62.488281 -67.703125 63.8125 -70.734375 C 65.144531 -73.773438 65.8125 -76.960938 65.8125 -80.296875 C 65.8125 -86.046875 63.816406 -90.609375 59.828125 -93.984375 C 55.835938 -97.359375 50.875 -99.046875 44.9375 -99.046875 C 38.625 -99.046875 33.601562 -97.15625 29.875 -93.375 C 26.144531 -89.59375 24.28125 -84.597656 24.28125 -78.390625 L 11.71875 -78.390625 C 11.71875 -84.773438 13.1875 -90.378906 16.125 -95.203125 C 19.070312 -100.035156 23.09375 -103.800781 28.1875 -106.5 C 33.289062 -109.195312 39.019531 -110.546875 45.375 -110.546875 C 51.757812 -110.546875 57.421875 -109.195312 62.359375 -106.5 C 67.296875 -103.800781 71.164062 -100.160156 73.96875 -95.578125 C 76.769531 -91.003906 78.171875 -85.910156 78.171875 -80.296875 C 78.171875 -76.285156 77.453125 -72.367188 76.015625 -68.546875 C 74.578125 -64.734375 72.09375 -60.492188 68.5625 -55.828125 C 65.03125 -51.160156 60.140625 -45.472656 53.890625 -38.765625 L 29.390625 -12.5625 L 29.390625 -11.71875 L 80.09375 -11.71875 L 80.09375 0 Z M 11.296875 0 "/></g></g></g><g clip-path="url(#c78d6eb852)"><g clip-path="url(#458ca64ad8)"><path fill="#bda6ff" d="M 4690.898438 389.332031 L 5229.921875 389.332031 L 5229.921875 928.351562 L 4690.898438 928.351562 Z M 4690.898438 389.332031 " fill-opacity="1" fill-rule="nonzero"/></g></g><g fill="#ffffff" fill-opacity="1"><g transform="translate(4865.817143, 712.480697)"><g><path d="M 46.859375 1.484375 C 34.828125 1.484375 25.5 -3.394531 18.875 -13.15625 C 12.257812 -22.914062 8.953125 -36.707031 8.953125 -54.53125 C 8.953125 -72.207031 12.285156 -85.960938 18.953125 -95.796875 C 25.628906 -105.628906 34.929688 -110.546875 46.859375 -110.546875 C 58.785156 -110.546875 68.085938 -105.628906 74.765625 -95.796875 C 81.441406 -85.960938 84.78125 -72.207031 84.78125 -54.53125 C 84.78125 -36.707031 81.46875 -22.914062 74.84375 -13.15625 C 68.21875 -3.394531 58.890625 1.484375 46.859375 1.484375 Z M 46.859375 -10.21875 C 54.804688 -10.21875 60.984375 -14.050781 65.390625 -21.71875 C 69.796875 -29.394531 72 -40.332031 72 -54.53125 C 72 -68.695312 69.78125 -79.65625 65.34375 -87.40625 C 60.90625 -95.164062 54.742188 -99.046875 46.859375 -99.046875 C 38.972656 -99.046875 32.8125 -95.164062 28.375 -87.40625 C 23.9375 -79.65625 21.71875 -68.695312 21.71875 -54.53125 C 21.71875 -40.332031 23.925781 -29.394531 28.34375 -21.71875 C 32.769531 -14.050781 38.941406 -10.21875 46.859375 -10.21875 Z M 46.859375 -10.21875 "/></g></g></g><g fill="#ffffff" fill-opacity="1"><g transform="translate(4959.538325, 712.480697)"><g><path d="M 48.140625 1.484375 C 41.109375 1.484375 34.847656 0.28125 29.359375 -2.125 C 23.878906 -4.539062 19.53125 -7.90625 16.3125 -12.21875 C 13.101562 -16.53125 11.359375 -21.546875 11.078125 -27.265625 L 24.5 -27.265625 C 24.882812 -22.015625 27.304688 -17.859375 31.765625 -14.796875 C 36.222656 -11.742188 41.609375 -10.21875 47.921875 -10.21875 C 54.921875 -10.21875 60.679688 -12 65.203125 -15.5625 C 69.734375 -19.132812 72 -23.816406 72 -29.609375 C 72 -35.640625 69.769531 -40.554688 65.3125 -44.359375 C 60.851562 -48.160156 54.488281 -50.0625 46.21875 -50.0625 L 37.484375 -50.0625 L 37.484375 -61.765625 L 46.21875 -61.765625 C 52.675781 -61.765625 57.945312 -63.484375 62.03125 -66.921875 C 66.113281 -70.367188 68.15625 -74.972656 68.15625 -80.734375 C 68.15625 -86.234375 66.363281 -90.660156 62.78125 -94.015625 C 59.195312 -97.367188 54.382812 -99.046875 48.34375 -99.046875 C 44.582031 -99.046875 41.039062 -98.359375 37.71875 -96.984375 C 34.40625 -95.617188 31.703125 -93.648438 29.609375 -91.078125 C 27.515625 -88.503906 26.378906 -85.410156 26.203125 -81.796875 L 13.421875 -81.796875 C 13.628906 -87.503906 15.347656 -92.515625 18.578125 -96.828125 C 21.816406 -101.148438 26.050781 -104.515625 31.28125 -106.921875 C 36.519531 -109.335938 42.28125 -110.546875 48.5625 -110.546875 C 55.3125 -110.546875 61.097656 -109.1875 65.921875 -106.46875 C 70.753906 -103.757812 74.460938 -100.1875 77.046875 -95.75 C 79.640625 -91.3125 80.9375 -86.515625 80.9375 -81.359375 C 80.9375 -75.222656 79.328125 -69.988281 76.109375 -65.65625 C 72.898438 -61.320312 68.546875 -58.320312 63.046875 -56.65625 L 63.046875 -55.8125 C 69.929688 -54.675781 75.304688 -51.753906 79.171875 -47.046875 C 83.046875 -42.335938 84.984375 -36.523438 84.984375 -29.609375 C 84.984375 -23.679688 83.375 -18.363281 80.15625 -13.65625 C 76.945312 -8.957031 72.570312 -5.257812 67.03125 -2.5625 C 61.5 0.132812 55.203125 1.484375 48.140625 1.484375 Z M 48.140625 1.484375 "/></g></g></g><g clip-path="url(#29fe3b1e4b)"><g clip-path="url(#c1e55f4340)"><path fill="#bda6ff" d="M 6947.109375 0 L 7486.117188 0 L 7486.117188 539.007812 L 6947.109375 539.007812 Z M 6947.109375 0 " fill-opacity="1" fill-rule="nonzero"/></g></g><g fill="#ffffff" fill-opacity="1"><g transform="translate(7121.595085, 323.150515)"><g><path d="M 46.859375 1.484375 C 34.828125 1.484375 25.5 -3.394531 18.875 -13.15625 C 12.257812 -22.914062 8.953125 -36.707031 8.953125 -54.53125 C 8.953125 -72.207031 12.285156 -85.960938 18.953125 -95.796875 C 25.628906 -105.628906 34.929688 -110.546875 46.859375 -110.546875 C 58.785156 -110.546875 68.085938 -105.628906 74.765625 -95.796875 C 81.441406 -85.960938 84.78125 -72.207031 84.78125 -54.53125 C 84.78125 -36.707031 81.46875 -22.914062 74.84375 -13.15625 C 68.21875 -3.394531 58.890625 1.484375 46.859375 1.484375 Z M 46.859375 -10.21875 C 54.804688 -10.21875 60.984375 -14.050781 65.390625 -21.71875 C 69.796875 -29.394531 72 -40.332031 72 -54.53125 C 72 -68.695312 69.78125 -79.65625 65.34375 -87.40625 C 60.90625 -95.164062 54.742188 -99.046875 46.859375 -99.046875 C 38.972656 -99.046875 32.8125 -95.164062 28.375 -87.40625 C 23.9375 -79.65625 21.71875 -68.695312 21.71875 -54.53125 C 21.71875 -40.332031 23.925781 -29.394531 28.34375 -21.71875 C 32.769531 -14.050781 38.941406 -10.21875 46.859375 -10.21875 Z M 46.859375 -10.21875 "/></g></g></g><g fill="#ffffff" fill-opacity="1"><g transform="translate(7215.316266, 323.150515)"><g><path d="M 8.734375 -22.359375 L 8.734375 -33.234375 L 56.65625 -109.0625 L 72.640625 -109.0625 L 72.640625 -34.078125 L 87.546875 -34.078125 L 87.546875 -22.359375 L 72.640625 -22.359375 L 72.640625 0 L 60.0625 0 L 60.0625 -22.359375 Z M 60.0625 -34.078125 L 60.0625 -92.234375 L 59.21875 -92.234375 L 23 -34.9375 L 23 -34.078125 Z M 60.0625 -34.078125 "/></g></g></g><g clip-path="url(#dbbaf64a4e)"><g clip-path="url(#1b74edb20b)"><g clip-path="url(#084130c296)"><path fill="#6c5ffc" d="M 2142.964844 980.808594 L 1961.59375 903.074219 C 1952.144531 899.019531 1947.757812 888.050781 1951.808594 878.59375 C 1955.867188 869.132812 1966.835938 864.746094 1976.296875 868.800781 L 2239.957031 981.8125 L 2034.226562 1181.734375 C 2026.84375 1188.902344 2015.027344 1188.734375 2007.863281 1181.351562 C 2000.691406 1173.972656 2000.863281 1162.160156 2008.242188 1154.988281 C 2008.242188 1154.988281 2103.804688 1062.121094 2149.75 1017.476562 L 630.722656 1298.714844 C 620.601562 1300.585938 610.867188 1293.894531 608.992188 1283.773438 C 607.121094 1273.65625 613.816406 1263.921875 623.933594 1262.046875 Z M 2142.964844 980.808594 " fill-opacity="1" fill-rule="evenodd"/></g></g></g><g clip-path="url(#1d515fecdf)"><g clip-path="url(#ebe320b699)"><g clip-path="url(#f6492f16ea)"><path fill="#6c5ffc" d="M 4442.910156 668.6875 L 4264.933594 583.46875 C 4255.664062 579.023438 4251.738281 567.878906 4256.175781 558.597656 C 4260.628906 549.316406 4271.765625 545.390625 4281.050781 549.832031 L 4539.777344 673.730469 L 4325.898438 864.90625 C 4318.226562 871.765625 4306.425781 871.105469 4299.578125 863.429688 C 4292.714844 855.757812 4293.378906 843.960938 4301.054688 837.105469 C 4301.054688 837.105469 4400.398438 748.296875 4448.164062 705.605469 L 2918.738281 923.335938 C 2908.550781 924.785156 2899.105469 917.691406 2897.652344 907.503906 C 2896.203125 897.316406 2903.296875 887.867188 2913.484375 886.417969 Z M 4442.910156 668.6875 " fill-opacity="1" fill-rule="evenodd"/></g></g></g><g clip-path="url(#2ecea801f6)"><g clip-path="url(#3402bff84b)"><g clip-path="url(#986fd9a457)"><path fill="#6c5ffc" d="M 6813.964844 343.300781 L 6635.054688 260.066406 C 6625.730469 255.722656 6621.683594 244.625 6626.019531 235.296875 C 6630.367188 225.964844 6641.460938 221.914062 6650.792969 226.253906 L 6910.882812 347.265625 L 6699.144531 540.8125 C 6691.546875 547.753906 6679.742188 547.222656 6672.808594 539.625 C 6665.859375 532.03125 6666.394531 520.226562 6673.992188 513.285156 C 6673.992188 513.285156 6772.34375 423.378906 6819.628906 380.15625 L 5292.722656 614.886719 C 5282.550781 616.449219 5273.023438 609.460938 5271.460938 599.292969 C 5269.898438 589.121094 5276.886719 579.59375 5287.054688 578.03125 Z M 6813.964844 343.300781 " fill-opacity="1" fill-rule="evenodd"/></g></g></g></svg>