<svg xmlns="http://www.w3.org/2000/svg" xmlns:xlink="http://www.w3.org/1999/xlink" width="10993" zoomAndPan="magnify" viewBox="0 0 8244.75 1816.499946" height="2422" preserveAspectRatio="xMidYMid meet" version="1.0"><defs><g/><clipPath id="e0c35bd69d"><path d="M 1.007812 1216.855469 L 599.546875 1216.855469 L 599.546875 1815.394531 L 1.007812 1815.394531 Z M 1.007812 1216.855469 " clip-rule="nonzero"/></clipPath><clipPath id="098fe4065a"><path d="M 300.277344 1216.855469 C 134.996094 1216.855469 1.007812 1350.84375 1.007812 1516.125 C 1.007812 1681.40625 134.996094 1815.394531 300.277344 1815.394531 C 465.558594 1815.394531 599.546875 1681.40625 599.546875 1516.125 C 599.546875 1350.84375 465.558594 1216.855469 300.277344 1216.855469 Z M 300.277344 1216.855469 " clip-rule="nonzero"/></clipPath><clipPath id="dfa37af5c9"><path d="M 2552.8125 790.835938 L 3151.351562 790.835938 L 3151.351562 1389.371094 L 2552.8125 1389.371094 Z M 2552.8125 790.835938 " clip-rule="nonzero"/></clipPath><clipPath id="f879bc781a"><path d="M 2852.082031 790.835938 C 2686.800781 790.835938 2552.8125 924.820312 2552.8125 1090.101562 C 2552.8125 1255.386719 2686.800781 1389.371094 2852.082031 1389.371094 C 3017.363281 1389.371094 3151.351562 1255.386719 3151.351562 1090.101562 C 3151.351562 924.820312 3017.363281 790.835938 2852.082031 790.835938 Z M 2852.082031 790.835938 " clip-rule="nonzero"/></clipPath><clipPath id="8c1fff68cf"><path d="M 5099 344.683594 L 5697.539062 344.683594 L 5697.539062 943.222656 L 5099 943.222656 Z M 5099 344.683594 " clip-rule="nonzero"/></clipPath><clipPath id="815f2fe544"><path d="M 5398.269531 344.683594 C 5232.988281 344.683594 5099 478.671875 5099 643.953125 C 5099 809.234375 5232.988281 943.222656 5398.269531 943.222656 C 5563.550781 943.222656 5697.539062 809.234375 5697.539062 643.953125 C 5697.539062 478.671875 5563.550781 344.683594 5398.269531 344.683594 Z M 5398.269531 344.683594 " clip-rule="nonzero"/></clipPath><clipPath id="3906e18987"><path d="M 7644.277344 0 L 8242.839844 0 L 8242.839844 598.558594 L 7644.277344 598.558594 Z M 7644.277344 0 " clip-rule="nonzero"/></clipPath><clipPath id="f1d4369fb8"><path d="M 7943.558594 598.558594 C 7778.269531 598.558594 7644.277344 464.566406 7644.277344 299.28125 C 7644.277344 133.992188 7778.269531 0 7943.558594 0 C 8108.847656 0 8242.839844 133.992188 8242.839844 299.28125 C 8242.839844 464.566406 8108.847656 598.558594 7943.558594 598.558594 Z M 7943.558594 598.558594 " clip-rule="evenodd"/></clipPath><clipPath id="97e1a6f861"><path d="M 675 975 L 2488 975 L 2488 1455 L 675 1455 Z M 675 975 " clip-rule="nonzero"/></clipPath><clipPath id="46c6ed85bf"><path d="M 623.691406 1197.988281 L 2452.109375 859.472656 L 2532.09375 1291.507812 L 703.679688 1630.023438 Z M 623.691406 1197.988281 " clip-rule="nonzero"/></clipPath><clipPath id="414f76978b"><path d="M 623.691406 1197.988281 L 2452.109375 859.472656 L 2532.09375 1291.507812 L 703.679688 1630.023438 Z M 623.691406 1197.988281 " clip-rule="nonzero"/></clipPath><clipPath id="a3c5aef055"><path d="M 3217 620 L 5041 620 L 5041 1038 L 3217 1038 Z M 3217 620 " clip-rule="nonzero"/></clipPath><clipPath id="b93e62426f"><path d="M 3175.085938 778.195312 L 5016.015625 516.125 L 5077.941406 951.117188 L 3237.011719 1213.191406 Z M 3175.085938 778.195312 " clip-rule="nonzero"/></clipPath><clipPath id="fda26bfb7c"><path d="M 3175.085938 778.195312 L 5016.015625 516.125 L 5077.941406 951.117188 L 3237.011719 1213.191406 Z M 3175.085938 778.195312 " clip-rule="nonzero"/></clipPath><clipPath id="f4f9f49a1b"><path d="M 5763 250 L 7584 250 L 7584 685 L 5763 685 Z M 5763 250 " clip-rule="nonzero"/></clipPath><clipPath id="519070894d"><path d="M 7556.429688 142.695312 L 5718.53125 425.226562 L 5785.292969 859.503906 L 7623.191406 576.972656 Z M 7556.429688 142.695312 " clip-rule="evenodd"/></clipPath><clipPath id="6c19afb162"><path d="M 7556.429688 142.695312 L 5718.53125 425.226562 L 5785.292969 859.503906 L 7623.191406 576.972656 Z M 7556.429688 142.695312 " clip-rule="evenodd"/></clipPath></defs><g clip-path="url(#e0c35bd69d)"><g clip-path="url(#098fe4065a)"><path fill="#bda6ff" d="M 1.007812 1216.855469 L 599.546875 1216.855469 L 599.546875 1815.394531 L 1.007812 1815.394531 Z M 1.007812 1216.855469 " fill-opacity="1" fill-rule="nonzero"/></g></g><g fill="#ffffff" fill-opacity="1"><g transform="translate(220.277303, 1570.009727)"><g><path d="M 46.859375 1.484375 C 34.828125 1.484375 25.5 -3.394531 18.875 -13.15625 C 12.257812 -22.914062 8.953125 -36.707031 8.953125 -54.53125 C 8.953125 -72.207031 12.285156 -85.960938 18.953125 -95.796875 C 25.628906 -105.628906 34.929688 -110.546875 46.859375 -110.546875 C 58.785156 -110.546875 68.085938 -105.628906 74.765625 -95.796875 C 81.441406 -85.960938 84.78125 -72.207031 84.78125 -54.53125 C 84.78125 -36.707031 81.46875 -22.914062 74.84375 -13.15625 C 68.21875 -3.394531 58.890625 1.484375 46.859375 1.484375 Z M 46.859375 -10.21875 C 54.804688 -10.21875 60.984375 -14.050781 65.390625 -21.71875 C 69.796875 -29.394531 72 -40.332031 72 -54.53125 C 72 -68.695312 69.78125 -79.65625 65.34375 -87.40625 C 60.90625 -95.164062 54.742188 -99.046875 46.859375 -99.046875 C 38.972656 -99.046875 32.8125 -95.164062 28.375 -87.40625 C 23.9375 -79.65625 21.71875 -68.695312 21.71875 -54.53125 C 21.71875 -40.332031 23.925781 -29.394531 28.34375 -21.71875 C 32.769531 -14.050781 38.941406 -10.21875 46.859375 -10.21875 Z M 46.859375 -10.21875 "/></g></g></g><g fill="#ffffff" fill-opacity="1"><g transform="translate(314.001533, 1570.009727)"><g><path d="M 46.21875 -109.0625 L 46.21875 0 L 33.015625 0 L 33.015625 -89.890625 L 32.15625 -89.890625 C 31.664062 -88.890625 30.390625 -87.757812 28.328125 -86.5 C 26.265625 -85.238281 23.597656 -84.140625 20.328125 -83.203125 C 17.066406 -82.265625 13.34375 -81.796875 9.15625 -81.796875 L 9.15625 -92.875 C 13.382812 -92.875 17.039062 -93.632812 20.125 -95.15625 C 23.21875 -96.6875 25.800781 -98.476562 27.875 -100.53125 C 29.945312 -102.59375 31.523438 -104.457031 32.609375 -106.125 C 33.691406 -107.789062 34.320312 -108.769531 34.5 -109.0625 Z M 46.21875 -109.0625 "/></g></g></g><g clip-path="url(#dfa37af5c9)"><g clip-path="url(#f879bc781a)"><path fill="#bda6ff" d="M 2552.8125 790.835938 L 3151.351562 790.835938 L 3151.351562 1389.371094 L 2552.8125 1389.371094 Z M 2552.8125 790.835938 " fill-opacity="1" fill-rule="nonzero"/></g></g><g fill="#ffffff" fill-opacity="1"><g transform="translate(2759.839357, 1143.986934)"><g><path d="M 46.859375 1.484375 C 34.828125 1.484375 25.5 -3.394531 18.875 -13.15625 C 12.257812 -22.914062 8.953125 -36.707031 8.953125 -54.53125 C 8.953125 -72.207031 12.285156 -85.960938 18.953125 -95.796875 C 25.628906 -105.628906 34.929688 -110.546875 46.859375 -110.546875 C 58.785156 -110.546875 68.085938 -105.628906 74.765625 -95.796875 C 81.441406 -85.960938 84.78125 -72.207031 84.78125 -54.53125 C 84.78125 -36.707031 81.46875 -22.914062 74.84375 -13.15625 C 68.21875 -3.394531 58.890625 1.484375 46.859375 1.484375 Z M 46.859375 -10.21875 C 54.804688 -10.21875 60.984375 -14.050781 65.390625 -21.71875 C 69.796875 -29.394531 72 -40.332031 72 -54.53125 C 72 -68.695312 69.78125 -79.65625 65.34375 -87.40625 C 60.90625 -95.164062 54.742188 -99.046875 46.859375 -99.046875 C 38.972656 -99.046875 32.8125 -95.164062 28.375 -87.40625 C 23.9375 -79.65625 21.71875 -68.695312 21.71875 -54.53125 C 21.71875 -40.332031 23.925781 -29.394531 28.34375 -21.71875 C 32.769531 -14.050781 38.941406 -10.21875 46.859375 -10.21875 Z M 46.859375 -10.21875 "/></g></g></g><g fill="#ffffff" fill-opacity="1"><g transform="translate(2853.563587, 1143.986934)"><g><path d="M 11.296875 0 L 11.296875 -9.578125 L 47.28125 -48.984375 C 51.507812 -53.597656 54.988281 -57.617188 57.71875 -61.046875 C 60.457031 -64.472656 62.488281 -67.703125 63.8125 -70.734375 C 65.144531 -73.773438 65.8125 -76.960938 65.8125 -80.296875 C 65.8125 -86.046875 63.816406 -90.609375 59.828125 -93.984375 C 55.835938 -97.359375 50.875 -99.046875 44.9375 -99.046875 C 38.625 -99.046875 33.601562 -97.15625 29.875 -93.375 C 26.144531 -89.59375 24.28125 -84.597656 24.28125 -78.390625 L 11.71875 -78.390625 C 11.71875 -84.773438 13.1875 -90.378906 16.125 -95.203125 C 19.070312 -100.035156 23.09375 -103.800781 28.1875 -106.5 C 33.289062 -109.195312 39.019531 -110.546875 45.375 -110.546875 C 51.757812 -110.546875 57.421875 -109.195312 62.359375 -106.5 C 67.296875 -103.800781 71.164062 -100.160156 73.96875 -95.578125 C 76.769531 -91.003906 78.171875 -85.910156 78.171875 -80.296875 C 78.171875 -76.285156 77.453125 -72.367188 76.015625 -68.546875 C 74.578125 -64.734375 72.09375 -60.492188 68.5625 -55.828125 C 65.03125 -51.160156 60.140625 -45.472656 53.890625 -38.765625 L 29.390625 -12.5625 L 29.390625 -11.71875 L 80.09375 -11.71875 L 80.09375 0 Z M 11.296875 0 "/></g></g></g><g clip-path="url(#8c1fff68cf)"><g clip-path="url(#815f2fe544)"><path fill="#bda6ff" d="M 5099 344.683594 L 5697.539062 344.683594 L 5697.539062 943.222656 L 5099 943.222656 Z M 5099 344.683594 " fill-opacity="1" fill-rule="nonzero"/></g></g><g fill="#ffffff" fill-opacity="1"><g transform="translate(5303.681389, 697.83688)"><g><path d="M 46.859375 1.484375 C 34.828125 1.484375 25.5 -3.394531 18.875 -13.15625 C 12.257812 -22.914062 8.953125 -36.707031 8.953125 -54.53125 C 8.953125 -72.207031 12.285156 -85.960938 18.953125 -95.796875 C 25.628906 -105.628906 34.929688 -110.546875 46.859375 -110.546875 C 58.785156 -110.546875 68.085938 -105.628906 74.765625 -95.796875 C 81.441406 -85.960938 84.78125 -72.207031 84.78125 -54.53125 C 84.78125 -36.707031 81.46875 -22.914062 74.84375 -13.15625 C 68.21875 -3.394531 58.890625 1.484375 46.859375 1.484375 Z M 46.859375 -10.21875 C 54.804688 -10.21875 60.984375 -14.050781 65.390625 -21.71875 C 69.796875 -29.394531 72 -40.332031 72 -54.53125 C 72 -68.695312 69.78125 -79.65625 65.34375 -87.40625 C 60.90625 -95.164062 54.742188 -99.046875 46.859375 -99.046875 C 38.972656 -99.046875 32.8125 -95.164062 28.375 -87.40625 C 23.9375 -79.65625 21.71875 -68.695312 21.71875 -54.53125 C 21.71875 -40.332031 23.925781 -29.394531 28.34375 -21.71875 C 32.769531 -14.050781 38.941406 -10.21875 46.859375 -10.21875 Z M 46.859375 -10.21875 "/></g></g></g><g fill="#ffffff" fill-opacity="1"><g transform="translate(5397.405618, 697.83688)"><g><path d="M 48.140625 1.484375 C 41.109375 1.484375 34.847656 0.28125 29.359375 -2.125 C 23.878906 -4.539062 19.53125 -7.90625 16.3125 -12.21875 C 13.101562 -16.53125 11.359375 -21.546875 11.078125 -27.265625 L 24.5 -27.265625 C 24.882812 -22.015625 27.304688 -17.859375 31.765625 -14.796875 C 36.222656 -11.742188 41.609375 -10.21875 47.921875 -10.21875 C 54.921875 -10.21875 60.679688 -12 65.203125 -15.5625 C 69.734375 -19.132812 72 -23.816406 72 -29.609375 C 72 -35.640625 69.769531 -40.554688 65.3125 -44.359375 C 60.851562 -48.160156 54.488281 -50.0625 46.21875 -50.0625 L 37.484375 -50.0625 L 37.484375 -61.765625 L 46.21875 -61.765625 C 52.675781 -61.765625 57.945312 -63.484375 62.03125 -66.921875 C 66.113281 -70.367188 68.15625 -74.972656 68.15625 -80.734375 C 68.15625 -86.234375 66.363281 -90.660156 62.78125 -94.015625 C 59.195312 -97.367188 54.382812 -99.046875 48.34375 -99.046875 C 44.582031 -99.046875 41.039062 -98.359375 37.71875 -96.984375 C 34.40625 -95.617188 31.703125 -93.648438 29.609375 -91.078125 C 27.515625 -88.503906 26.378906 -85.410156 26.203125 -81.796875 L 13.421875 -81.796875 C 13.628906 -87.503906 15.347656 -92.515625 18.578125 -96.828125 C 21.816406 -101.148438 26.050781 -104.515625 31.28125 -106.921875 C 36.519531 -109.335938 42.28125 -110.546875 48.5625 -110.546875 C 55.3125 -110.546875 61.097656 -109.1875 65.921875 -106.46875 C 70.753906 -103.757812 74.460938 -100.1875 77.046875 -95.75 C 79.640625 -91.3125 80.9375 -86.515625 80.9375 -81.359375 C 80.9375 -75.222656 79.328125 -69.988281 76.109375 -65.65625 C 72.898438 -61.320312 68.546875 -58.320312 63.046875 -56.65625 L 63.046875 -55.8125 C 69.929688 -54.675781 75.304688 -51.753906 79.171875 -47.046875 C 83.046875 -42.335938 84.984375 -36.523438 84.984375 -29.609375 C 84.984375 -23.679688 83.375 -18.363281 80.15625 -13.65625 C 76.945312 -8.957031 72.570312 -5.257812 67.03125 -2.5625 C 61.5 0.132812 55.203125 1.484375 48.140625 1.484375 Z M 48.140625 1.484375 "/></g></g></g><g clip-path="url(#3906e18987)"><g clip-path="url(#f1d4369fb8)"><path fill="#bda6ff" d="M 7644.277344 0 L 8242.839844 0 L 8242.839844 598.558594 L 7644.277344 598.558594 Z M 7644.277344 0 " fill-opacity="1" fill-rule="nonzero"/></g></g><g fill="#ffffff" fill-opacity="1"><g transform="translate(7848.538848, 353.152768)"><g><path d="M 46.859375 1.484375 C 34.828125 1.484375 25.5 -3.394531 18.875 -13.15625 C 12.257812 -22.914062 8.953125 -36.707031 8.953125 -54.53125 C 8.953125 -72.207031 12.285156 -85.960938 18.953125 -95.796875 C 25.628906 -105.628906 34.929688 -110.546875 46.859375 -110.546875 C 58.785156 -110.546875 68.085938 -105.628906 74.765625 -95.796875 C 81.441406 -85.960938 84.78125 -72.207031 84.78125 -54.53125 C 84.78125 -36.707031 81.46875 -22.914062 74.84375 -13.15625 C 68.21875 -3.394531 58.890625 1.484375 46.859375 1.484375 Z M 46.859375 -10.21875 C 54.804688 -10.21875 60.984375 -14.050781 65.390625 -21.71875 C 69.796875 -29.394531 72 -40.332031 72 -54.53125 C 72 -68.695312 69.78125 -79.65625 65.34375 -87.40625 C 60.90625 -95.164062 54.742188 -99.046875 46.859375 -99.046875 C 38.972656 -99.046875 32.8125 -95.164062 28.375 -87.40625 C 23.9375 -79.65625 21.71875 -68.695312 21.71875 -54.53125 C 21.71875 -40.332031 23.925781 -29.394531 28.34375 -21.71875 C 32.769531 -14.050781 38.941406 -10.21875 46.859375 -10.21875 Z M 46.859375 -10.21875 "/></g></g></g><g fill="#ffffff" fill-opacity="1"><g transform="translate(7942.263077, 353.152768)"><g><path d="M 8.734375 -22.359375 L 8.734375 -33.234375 L 56.65625 -109.0625 L 72.640625 -109.0625 L 72.640625 -34.078125 L 87.546875 -34.078125 L 87.546875 -22.359375 L 72.640625 -22.359375 L 72.640625 0 L 60.0625 0 L 60.0625 -22.359375 Z M 60.0625 -34.078125 L 60.0625 -92.234375 L 59.21875 -92.234375 L 23 -34.9375 L 23 -34.078125 Z M 60.0625 -34.078125 "/></g></g></g><g clip-path="url(#97e1a6f861)"><g clip-path="url(#46c6ed85bf)"><g clip-path="url(#414f76978b)"><path fill="#6c5ffc" d="M 2379.300781 1101.523438 L 2177.90625 1015.207031 C 2167.414062 1010.703125 2162.542969 998.523438 2167.039062 988.019531 C 2171.546875 977.519531 2183.726562 972.644531 2194.230469 977.148438 L 2487.003906 1102.636719 L 2258.554688 1324.632812 C 2250.359375 1332.59375 2237.242188 1332.40625 2229.285156 1324.210938 C 2221.320312 1316.015625 2221.511719 1302.898438 2229.707031 1294.933594 C 2229.707031 1294.933594 2335.820312 1191.8125 2386.835938 1142.238281 L 700.089844 1454.527344 C 688.855469 1456.609375 678.046875 1449.175781 675.964844 1437.941406 C 673.882812 1426.703125 681.316406 1415.894531 692.554688 1413.8125 Z M 2379.300781 1101.523438 " fill-opacity="1" fill-rule="evenodd"/></g></g></g><g clip-path="url(#a3c5aef055)"><g clip-path="url(#b93e62426f)"><g clip-path="url(#fda26bfb7c)"><path fill="#6c5ffc" d="M 4933.167969 754.9375 L 4735.546875 660.308594 C 4725.25 655.371094 4720.890625 642.996094 4725.820312 632.691406 C 4730.761719 622.386719 4743.132812 618.027344 4753.441406 622.960938 L 5040.726562 760.535156 L 4803.238281 972.816406 C 4794.71875 980.433594 4781.617188 979.699219 4774.011719 971.179688 C 4766.390625 962.660156 4767.128906 949.5625 4775.648438 941.945312 C 4775.648438 941.945312 4885.964844 843.335938 4939 795.929688 L 3240.734375 1037.695312 C 3229.421875 1039.308594 3218.929688 1031.429688 3217.320312 1020.117188 C 3215.710938 1008.804688 3223.585938 998.3125 3234.898438 996.703125 Z M 4933.167969 754.9375 " fill-opacity="1" fill-rule="evenodd"/></g></g></g><g clip-path="url(#f4f9f49a1b)"><g clip-path="url(#519070894d)"><g clip-path="url(#6c19afb162)"><path fill="#6c5ffc" d="M 7476.269531 382.410156 L 7277.601562 289.984375 C 7267.25 285.164062 7262.757812 272.835938 7267.570312 262.476562 C 7272.398438 252.117188 7284.71875 247.621094 7295.082031 252.441406 L 7583.886719 386.8125 L 7348.769531 601.726562 C 7340.332031 609.433594 7327.226562 608.847656 7319.523438 600.410156 C 7311.8125 591.976562 7312.402344 578.871094 7320.839844 571.160156 C 7320.839844 571.160156 7430.050781 471.328125 7482.558594 423.335938 L 5787.0625 683.980469 C 5775.769531 685.71875 5765.191406 677.957031 5763.453125 666.664062 C 5761.71875 655.371094 5769.476562 644.792969 5780.773438 643.054688 Z M 7476.269531 382.410156 " fill-opacity="1" fill-rule="evenodd"/></g></g></g></svg>