<svg class="svg-reveal" xmlns="http://www.w3.org/2000/svg" xmlns:xlink="http://www.w3.org/1999/xlink" width="10993" zoomAndPan="magnify" viewBox="0 0 8244.75 1740.749926" height="2321" preserveAspectRatio="xMidYMid meet" version="1.0"><defs><g/><clipPath id="ebcc5aeb83"><path d="M 0.46875 1141.835938 L 599.085938 1141.835938 L 599.085938 1740.453125 L 0.46875 1740.453125 Z M 0.46875 1141.835938 " clip-rule="nonzero"/></clipPath><clipPath id="e334a64166"><path d="M 299.777344 1141.835938 C 134.472656 1141.835938 0.46875 1275.839844 0.46875 1441.144531 C 0.46875 1606.449219 134.472656 1740.453125 299.777344 1740.453125 C 465.078125 1740.453125 599.085938 1606.449219 599.085938 1441.144531 C 599.085938 1275.839844 465.078125 1141.835938 299.777344 1141.835938 Z M 299.777344 1141.835938 " clip-rule="nonzero"/></clipPath><clipPath id="b91ae46e06"><path d="M 2552.609375 715.757812 L 3151.226562 715.757812 L 3151.226562 1314.375 L 2552.609375 1314.375 Z M 2552.609375 715.757812 " clip-rule="nonzero"/></clipPath><clipPath id="4379961aef"><path d="M 2851.917969 715.757812 C 2686.613281 715.757812 2552.609375 849.761719 2552.609375 1015.066406 C 2552.609375 1180.371094 2686.613281 1314.375 2851.917969 1314.375 C 3017.21875 1314.375 3151.226562 1180.371094 3151.226562 1015.066406 C 3151.226562 849.761719 3017.21875 715.757812 2851.917969 715.757812 Z M 2851.917969 715.757812 " clip-rule="nonzero"/></clipPath><clipPath id="63354f862c"><path d="M 5099.128906 269.546875 L 5697.746094 269.546875 L 5697.746094 868.164062 L 5099.128906 868.164062 Z M 5099.128906 269.546875 " clip-rule="nonzero"/></clipPath><clipPath id="0550ed5ea3"><path d="M 5398.4375 269.546875 C 5233.132812 269.546875 5099.128906 403.554688 5099.128906 568.855469 C 5099.128906 734.160156 5233.132812 868.164062 5398.4375 868.164062 C 5563.738281 868.164062 5697.746094 734.160156 5697.746094 568.855469 C 5697.746094 403.554688 5563.738281 269.546875 5398.4375 269.546875 Z M 5398.4375 269.546875 " clip-rule="nonzero"/></clipPath><clipPath id="09326d16f4"><path d="M 7644.742188 0 L 8243.382812 0 L 8243.382812 598.640625 L 7644.742188 598.640625 Z M 7644.742188 0 " clip-rule="nonzero"/></clipPath><clipPath id="69ff4e2f94"><path d="M 7944.0625 598.640625 C 7778.753906 598.640625 7644.742188 464.628906 7644.742188 299.320312 C 7644.742188 134.011719 7778.753906 0 7944.0625 0 C 8109.371094 0 8243.382812 134.011719 8243.382812 299.320312 C 8243.382812 464.628906 8109.371094 598.640625 7944.0625 598.640625 Z M 7944.0625 598.640625 " clip-rule="evenodd"/></clipPath><clipPath id="2978f39ab0"><path d="M 675 900 L 2487 900 L 2487 1380 L 675 1380 Z M 675 900 " clip-rule="nonzero"/></clipPath><clipPath id="9c5b66a6be"><path d="M 623.230469 1122.964844 L 2451.886719 784.40625 L 2531.886719 1216.5 L 703.230469 1555.058594 Z M 623.230469 1122.964844 " clip-rule="nonzero"/></clipPath><clipPath id="4a4e116ae3"><path d="M 623.230469 1122.964844 L 2451.886719 784.40625 L 2531.886719 1216.5 L 703.230469 1555.058594 Z M 623.230469 1122.964844 " clip-rule="nonzero"/></clipPath><clipPath id="d1f50ff84b"><path d="M 3216 545 L 5041 545 L 5041 963 L 3216 963 Z M 3216 545 " clip-rule="nonzero"/></clipPath><clipPath id="f018d49eae"><path d="M 3174.960938 703.117188 L 5016.132812 441.011719 L 5078.066406 876.0625 L 3236.894531 1138.167969 Z M 3174.960938 703.117188 " clip-rule="nonzero"/></clipPath><clipPath id="6ac50ecc3e"><path d="M 3174.960938 703.117188 L 5016.132812 441.011719 L 5078.066406 876.0625 L 3236.894531 1138.167969 Z M 3174.960938 703.117188 " clip-rule="nonzero"/></clipPath><clipPath id="0263d04bef"><path d="M 5763 175 L 7585 175 L 7585 610 L 5763 610 Z M 5763 175 " clip-rule="nonzero"/></clipPath><clipPath id="faf3df1552"><path d="M 7556.882812 67.53125 L 5718.742188 350.101562 L 5785.511719 784.4375 L 7623.652344 501.867188 Z M 7556.882812 67.53125 " clip-rule="evenodd"/></clipPath><clipPath id="59a323f266"><path d="M 7556.882812 67.53125 L 5718.742188 350.101562 L 5785.511719 784.4375 L 7623.652344 501.867188 Z M 7556.882812 67.53125 " clip-rule="evenodd"/></clipPath></defs><g clip-path="url(#ebcc5aeb83)"><g clip-path="url(#e334a64166)"><path fill="#bda6ff" d="M 0.46875 1141.835938 L 599.085938 1141.835938 L 599.085938 1740.453125 L 0.46875 1740.453125 Z M 0.46875 1141.835938 " fill-opacity="1" fill-rule="nonzero"/></g></g><g fill="#ffffff" fill-opacity="1"><g transform="translate(219.76376, 1495.035659)"><g><path d="M 46.875 1.484375 C 34.832031 1.484375 25.5 -3.394531 18.875 -13.15625 C 12.257812 -22.914062 8.953125 -36.710938 8.953125 -54.546875 C 8.953125 -72.222656 12.285156 -85.976562 18.953125 -95.8125 C 25.628906 -105.65625 34.9375 -110.578125 46.875 -110.578125 C 58.800781 -110.578125 68.101562 -105.65625 74.78125 -95.8125 C 81.457031 -85.976562 84.796875 -72.222656 84.796875 -54.546875 C 84.796875 -36.710938 81.484375 -22.914062 74.859375 -13.15625 C 68.234375 -3.394531 58.90625 1.484375 46.875 1.484375 Z M 46.875 -10.21875 C 54.820312 -10.21875 61 -14.050781 65.40625 -21.71875 C 69.8125 -29.394531 72.015625 -40.335938 72.015625 -54.546875 C 72.015625 -68.710938 69.789062 -79.671875 65.34375 -87.421875 C 60.90625 -95.179688 54.75 -99.0625 46.875 -99.0625 C 38.988281 -99.0625 32.828125 -95.179688 28.390625 -87.421875 C 23.953125 -79.671875 21.734375 -68.710938 21.734375 -54.546875 C 21.734375 -40.335938 23.941406 -29.394531 28.359375 -21.71875 C 32.785156 -14.050781 38.957031 -10.21875 46.875 -10.21875 Z M 46.875 -10.21875 "/></g></g></g><g fill="#ffffff" fill-opacity="1"><g transform="translate(313.500325, 1495.035659)"><g><path d="M 46.234375 -109.078125 L 46.234375 0 L 33.015625 0 L 33.015625 -89.90625 L 32.171875 -89.90625 C 31.671875 -88.914062 30.390625 -87.785156 28.328125 -86.515625 C 26.273438 -85.253906 23.613281 -84.15625 20.34375 -83.21875 C 17.082031 -82.28125 13.351562 -81.8125 9.15625 -81.8125 L 9.15625 -92.890625 C 13.382812 -92.890625 17.039062 -93.648438 20.125 -95.171875 C 23.21875 -96.703125 25.800781 -98.492188 27.875 -100.546875 C 29.957031 -102.609375 31.539062 -104.472656 32.625 -106.140625 C 33.707031 -107.816406 34.335938 -108.796875 34.515625 -109.078125 Z M 46.234375 -109.078125 "/></g></g></g><g clip-path="url(#b91ae46e06)"><g clip-path="url(#4379961aef)"><path fill="#bda6ff" d="M 2552.609375 715.757812 L 3151.226562 715.757812 L 3151.226562 1314.375 L 2552.609375 1314.375 Z M 2552.609375 715.757812 " fill-opacity="1" fill-rule="nonzero"/></g></g><g fill="#ffffff" fill-opacity="1"><g transform="translate(2759.660038, 1068.956798)"><g><path d="M 46.875 1.484375 C 34.832031 1.484375 25.5 -3.394531 18.875 -13.15625 C 12.257812 -22.914062 8.953125 -36.710938 8.953125 -54.546875 C 8.953125 -72.222656 12.285156 -85.976562 18.953125 -95.8125 C 25.628906 -105.65625 34.9375 -110.578125 46.875 -110.578125 C 58.800781 -110.578125 68.101562 -105.65625 74.78125 -95.8125 C 81.457031 -85.976562 84.796875 -72.222656 84.796875 -54.546875 C 84.796875 -36.710938 81.484375 -22.914062 74.859375 -13.15625 C 68.234375 -3.394531 58.90625 1.484375 46.875 1.484375 Z M 46.875 -10.21875 C 54.820312 -10.21875 61 -14.050781 65.40625 -21.71875 C 69.8125 -29.394531 72.015625 -40.335938 72.015625 -54.546875 C 72.015625 -68.710938 69.789062 -79.671875 65.34375 -87.421875 C 60.90625 -95.179688 54.75 -99.0625 46.875 -99.0625 C 38.988281 -99.0625 32.828125 -95.179688 28.390625 -87.421875 C 23.953125 -79.671875 21.734375 -68.710938 21.734375 -54.546875 C 21.734375 -40.335938 23.941406 -29.394531 28.359375 -21.71875 C 32.785156 -14.050781 38.957031 -10.21875 46.875 -10.21875 Z M 46.875 -10.21875 "/></g></g></g><g fill="#ffffff" fill-opacity="1"><g transform="translate(2853.396602, 1068.956798)"><g><path d="M 11.296875 0 L 11.296875 -9.59375 L 47.296875 -49 C 51.523438 -53.613281 55.003906 -57.632812 57.734375 -61.0625 C 60.472656 -64.488281 62.503906 -67.71875 63.828125 -70.75 C 65.160156 -73.789062 65.828125 -76.976562 65.828125 -80.3125 C 65.828125 -86.070312 63.828125 -90.632812 59.828125 -94 C 55.835938 -97.375 50.878906 -99.0625 44.953125 -99.0625 C 38.628906 -99.0625 33.601562 -97.171875 29.875 -93.390625 C 26.144531 -89.609375 24.28125 -84.613281 24.28125 -78.40625 L 11.71875 -78.40625 C 11.71875 -84.789062 13.191406 -90.394531 16.140625 -95.21875 C 19.085938 -100.050781 23.109375 -103.816406 28.203125 -106.515625 C 33.296875 -109.222656 39.019531 -110.578125 45.375 -110.578125 C 51.769531 -110.578125 57.429688 -109.222656 62.359375 -106.515625 C 67.296875 -103.816406 71.164062 -100.175781 73.96875 -95.59375 C 76.78125 -91.019531 78.1875 -85.925781 78.1875 -80.3125 C 78.1875 -76.300781 77.46875 -72.382812 76.03125 -68.5625 C 74.59375 -64.75 72.109375 -60.507812 68.578125 -55.84375 C 65.046875 -51.175781 60.15625 -45.488281 53.90625 -38.78125 L 29.40625 -12.5625 L 29.40625 -11.71875 L 80.109375 -11.71875 L 80.109375 0 Z M 11.296875 0 "/></g></g></g><g clip-path="url(#63354f862c)"><g clip-path="url(#0550ed5ea3)"><path fill="#bda6ff" d="M 5099.128906 269.546875 L 5697.746094 269.546875 L 5697.746094 868.164062 L 5099.128906 868.164062 Z M 5099.128906 269.546875 " fill-opacity="1" fill-rule="nonzero"/></g></g><g fill="#ffffff" fill-opacity="1"><g transform="translate(5303.836857, 622.748011)"><g><path d="M 46.875 1.484375 C 34.832031 1.484375 25.5 -3.394531 18.875 -13.15625 C 12.257812 -22.914062 8.953125 -36.710938 8.953125 -54.546875 C 8.953125 -72.222656 12.285156 -85.976562 18.953125 -95.8125 C 25.628906 -105.65625 34.9375 -110.578125 46.875 -110.578125 C 58.800781 -110.578125 68.101562 -105.65625 74.78125 -95.8125 C 81.457031 -85.976562 84.796875 -72.222656 84.796875 -54.546875 C 84.796875 -36.710938 81.484375 -22.914062 74.859375 -13.15625 C 68.234375 -3.394531 58.90625 1.484375 46.875 1.484375 Z M 46.875 -10.21875 C 54.820312 -10.21875 61 -14.050781 65.40625 -21.71875 C 69.8125 -29.394531 72.015625 -40.335938 72.015625 -54.546875 C 72.015625 -68.710938 69.789062 -79.671875 65.34375 -87.421875 C 60.90625 -95.179688 54.75 -99.0625 46.875 -99.0625 C 38.988281 -99.0625 32.828125 -95.179688 28.390625 -87.421875 C 23.953125 -79.671875 21.734375 -68.710938 21.734375 -54.546875 C 21.734375 -40.335938 23.941406 -29.394531 28.359375 -21.71875 C 32.785156 -14.050781 38.957031 -10.21875 46.875 -10.21875 Z M 46.875 -10.21875 "/></g></g></g><g fill="#ffffff" fill-opacity="1"><g transform="translate(5397.573421, 622.748011)"><g><path d="M 48.140625 1.484375 C 41.117188 1.484375 34.863281 0.28125 29.375 -2.125 C 23.882812 -4.539062 19.53125 -7.90625 16.3125 -12.21875 C 13.101562 -16.53125 11.359375 -21.546875 11.078125 -27.265625 L 24.5 -27.265625 C 24.894531 -22.015625 27.316406 -17.859375 31.765625 -14.796875 C 36.222656 -11.742188 41.613281 -10.21875 47.9375 -10.21875 C 54.925781 -10.21875 60.6875 -12.003906 65.21875 -15.578125 C 69.75 -19.148438 72.015625 -23.828125 72.015625 -29.609375 C 72.015625 -35.648438 69.785156 -40.566406 65.328125 -44.359375 C 60.867188 -48.160156 54.503906 -50.0625 46.234375 -50.0625 L 37.5 -50.0625 L 37.5 -61.78125 L 46.234375 -61.78125 C 52.691406 -61.78125 57.960938 -63.5 62.046875 -66.9375 C 66.128906 -70.382812 68.171875 -74.988281 68.171875 -80.75 C 68.171875 -86.25 66.378906 -90.675781 62.796875 -94.03125 C 59.210938 -97.382812 54.398438 -99.0625 48.359375 -99.0625 C 44.597656 -99.0625 41.054688 -98.378906 37.734375 -97.015625 C 34.410156 -95.648438 31.703125 -93.679688 29.609375 -91.109375 C 27.515625 -88.535156 26.378906 -85.4375 26.203125 -81.8125 L 13.421875 -81.8125 C 13.628906 -87.53125 15.347656 -92.546875 18.578125 -96.859375 C 21.816406 -101.171875 26.050781 -104.535156 31.28125 -106.953125 C 36.519531 -109.367188 42.285156 -110.578125 48.578125 -110.578125 C 55.316406 -110.578125 61.101562 -109.21875 65.9375 -106.5 C 70.769531 -103.78125 74.476562 -100.203125 77.0625 -95.765625 C 79.65625 -91.328125 80.953125 -86.535156 80.953125 -81.390625 C 80.953125 -75.242188 79.34375 -70.003906 76.125 -65.671875 C 72.914062 -61.335938 68.5625 -58.335938 63.0625 -56.671875 L 63.0625 -55.8125 C 69.945312 -54.675781 75.320312 -51.753906 79.1875 -47.046875 C 83.0625 -42.347656 85 -36.535156 85 -29.609375 C 85 -23.679688 83.390625 -18.363281 80.171875 -13.65625 C 76.960938 -8.957031 72.585938 -5.257812 67.046875 -2.5625 C 61.515625 0.132812 55.210938 1.484375 48.140625 1.484375 Z M 48.140625 1.484375 "/></g></g></g><g clip-path="url(#09326d16f4)"><g clip-path="url(#69ff4e2f94)"><path fill="#bda6ff" d="M 7644.742188 0 L 8243.382812 0 L 8243.382812 598.640625 L 7644.742188 598.640625 Z M 7644.742188 0 " fill-opacity="1" fill-rule="nonzero"/></g></g><g fill="#ffffff" fill-opacity="1"><g transform="translate(7849.029236, 353.199245)"><g><path d="M 46.875 1.484375 C 34.832031 1.484375 25.5 -3.394531 18.875 -13.15625 C 12.257812 -22.914062 8.953125 -36.710938 8.953125 -54.546875 C 8.953125 -72.222656 12.285156 -85.976562 18.953125 -95.8125 C 25.628906 -105.65625 34.9375 -110.578125 46.875 -110.578125 C 58.800781 -110.578125 68.101562 -105.65625 74.78125 -95.8125 C 81.457031 -85.976562 84.796875 -72.222656 84.796875 -54.546875 C 84.796875 -36.710938 81.484375 -22.914062 74.859375 -13.15625 C 68.234375 -3.394531 58.90625 1.484375 46.875 1.484375 Z M 46.875 -10.21875 C 54.820312 -10.21875 61 -14.050781 65.40625 -21.71875 C 69.8125 -29.394531 72.015625 -40.335938 72.015625 -54.546875 C 72.015625 -68.710938 69.789062 -79.671875 65.34375 -87.421875 C 60.90625 -95.179688 54.75 -99.0625 46.875 -99.0625 C 38.988281 -99.0625 32.828125 -95.179688 28.390625 -87.421875 C 23.953125 -79.671875 21.734375 -68.710938 21.734375 -54.546875 C 21.734375 -40.335938 23.941406 -29.394531 28.359375 -21.71875 C 32.785156 -14.050781 38.957031 -10.21875 46.875 -10.21875 Z M 46.875 -10.21875 "/></g></g></g><g fill="#ffffff" fill-opacity="1"><g transform="translate(7942.765801, 353.199245)"><g><path d="M 8.734375 -22.375 L 8.734375 -33.234375 L 56.671875 -109.078125 L 72.65625 -109.078125 L 72.65625 -34.09375 L 87.5625 -34.09375 L 87.5625 -22.375 L 72.65625 -22.375 L 72.65625 0 L 60.078125 0 L 60.078125 -22.375 Z M 60.078125 -34.09375 L 60.078125 -92.25 L 59.234375 -92.25 L 23.015625 -34.9375 L 23.015625 -34.09375 Z M 60.078125 -34.09375 "/></g></g></g><g clip-path="url(#2978f39ab0)"><g clip-path="url(#9c5b66a6be)"><g clip-path="url(#4a4e116ae3)"><path fill="#6c5ffc" d="M 2379.074219 1026.488281 L 2177.648438 940.160156 C 2167.15625 935.65625 2162.285156 923.472656 2166.78125 912.96875 C 2171.289062 902.464844 2183.46875 897.59375 2193.976562 902.09375 L 2486.789062 1027.601562 L 2258.3125 1249.625 C 2250.113281 1257.589844 2236.992188 1257.402344 2229.035156 1249.203125 C 2221.070312 1241.007812 2221.261719 1227.886719 2229.457031 1219.925781 C 2229.457031 1219.925781 2335.582031 1116.789062 2386.609375 1067.207031 L 699.640625 1379.539062 C 688.402344 1381.621094 677.59375 1374.1875 675.511719 1362.949219 C 673.429688 1351.710938 680.863281 1340.898438 692.101562 1338.820312 Z M 2379.074219 1026.488281 " fill-opacity="1" fill-rule="evenodd"/></g></g></g><g clip-path="url(#d1f50ff84b)"><g clip-path="url(#f018d49eae)"><g clip-path="url(#6ac50ecc3e)"><path fill="#6c5ffc" d="M 4933.277344 679.855469 L 4735.625 585.214844 C 4725.328125 580.277344 4720.96875 567.902344 4725.898438 557.59375 C 4730.839844 547.289062 4743.214844 542.925781 4753.523438 547.863281 L 5040.847656 685.453125 L 4803.328125 897.765625 C 4794.804688 905.382812 4781.703125 904.648438 4774.097656 896.125 C 4766.476562 887.605469 4767.214844 874.503906 4775.734375 866.890625 C 4775.734375 866.890625 4886.0625 768.265625 4939.109375 720.851562 L 3240.617188 962.652344 C 3229.304688 964.261719 3218.8125 956.382812 3217.199219 945.070312 C 3215.589844 933.757812 3223.46875 923.265625 3234.78125 921.652344 Z M 4933.277344 679.855469 " fill-opacity="1" fill-rule="evenodd"/></g></g></g><g clip-path="url(#0263d04bef)"><g clip-path="url(#faf3df1552)"><g clip-path="url(#59a323f266)"><path fill="#6c5ffc" d="M 7476.710938 307.277344 L 7278.019531 214.839844 C 7267.664062 210.019531 7263.167969 197.691406 7267.984375 187.332031 C 7272.8125 176.96875 7285.132812 172.472656 7295.5 177.292969 L 7584.339844 311.683594 L 7349.191406 526.625 C 7340.757812 534.335938 7327.648438 533.746094 7319.945312 525.308594 C 7312.230469 516.875 7312.824219 503.765625 7321.257812 496.054688 C 7321.257812 496.054688 7430.484375 396.210938 7483 348.210938 L 5787.28125 608.890625 C 5775.988281 610.628906 5765.40625 602.867188 5763.671875 591.570312 C 5761.933594 580.277344 5769.695312 569.695312 5780.988281 567.957031 Z M 7476.710938 307.277344 " fill-opacity="1" fill-rule="evenodd"/></g></g></g></svg>