<svg xmlns="http://www.w3.org/2000/svg" xmlns:xlink="http://www.w3.org/1999/xlink" width="1000" zoomAndPan="magnify" viewBox="0 0 3332.88 1017.749952" height="500" preserveAspectRatio="xMidYMid meet" version="1.0"><defs><g/><clipPath id="406989df8f"><path d="M 0.347656 644.777344 L 372.847656 644.777344 L 372.847656 1017.273438 L 0.347656 1017.273438 Z M 0.347656 644.777344 " clip-rule="nonzero"/></clipPath><clipPath id="89a2f76568"><path d="M 186.597656 644.777344 C 83.734375 644.777344 0.347656 728.164062 0.347656 831.027344 C 0.347656 933.890625 83.734375 1017.273438 186.597656 1017.273438 C 289.460938 1017.273438 372.847656 933.890625 372.847656 831.027344 C 372.847656 728.164062 289.460938 644.777344 186.597656 644.777344 Z M 186.597656 644.777344 " clip-rule="nonzero"/></clipPath><clipPath id="c9d7a02731"><path d="M 986.574219 423.707031 L 1359.074219 423.707031 L 1359.074219 796.203125 L 986.574219 796.203125 Z M 986.574219 423.707031 " clip-rule="nonzero"/></clipPath><clipPath id="9855a368c8"><path d="M 1172.824219 423.707031 C 1069.960938 423.707031 986.574219 507.089844 986.574219 609.953125 C 986.574219 712.816406 1069.960938 796.203125 1172.824219 796.203125 C 1275.6875 796.203125 1359.074219 712.816406 1359.074219 609.953125 C 1359.074219 507.089844 1275.6875 423.707031 1172.824219 423.707031 Z M 1172.824219 423.707031 " clip-rule="nonzero"/></clipPath><clipPath id="74525db478"><path d="M 1973.175781 225.667969 L 2345.671875 225.667969 L 2345.671875 598.164062 L 1973.175781 598.164062 Z M 1973.175781 225.667969 " clip-rule="nonzero"/></clipPath><clipPath id="ca9bd2bf95"><path d="M 2159.421875 225.667969 C 2056.5625 225.667969 1973.175781 309.054688 1973.175781 411.917969 C 1973.175781 514.78125 2056.5625 598.164062 2159.421875 598.164062 C 2262.285156 598.164062 2345.671875 514.78125 2345.671875 411.917969 C 2345.671875 309.054688 2262.285156 225.667969 2159.421875 225.667969 Z M 2159.421875 225.667969 " clip-rule="nonzero"/></clipPath><clipPath id="aac4ea478a"><path d="M 2959.773438 0 L 3332.273438 0 L 3332.273438 372.5 L 2959.773438 372.5 Z M 2959.773438 0 " clip-rule="nonzero"/></clipPath><clipPath id="86554b4bd0"><path d="M 3146.023438 0 C 3043.160156 0 2959.773438 83.386719 2959.773438 186.25 C 2959.773438 289.113281 3043.160156 372.5 3146.023438 372.5 C 3248.886719 372.5 3332.273438 289.113281 3332.273438 186.25 C 3332.273438 83.386719 3248.886719 0 3146.023438 0 Z M 3146.023438 0 " clip-rule="nonzero"/></clipPath><clipPath id="c85c5b914c"><path d="M 392 646 L 970 646 L 970 822 L 392 822 Z M 392 646 " clip-rule="nonzero"/></clipPath><clipPath id="cf6bb900b9"><path d="M 372.847656 740.167969 L 955.03125 605.289062 L 986.847656 742.613281 L 404.664062 877.496094 Z M 372.847656 740.167969 " clip-rule="nonzero"/></clipPath><clipPath id="8177a91f71"><path d="M 372.847656 740.167969 L 955.03125 605.289062 L 986.847656 742.613281 L 404.664062 877.496094 Z M 372.847656 740.167969 " clip-rule="nonzero"/></clipPath><clipPath id="0ec3341ea0"><path d="M 1379 413 L 1956 413 L 1956 589 L 1379 589 Z M 1379 413 " clip-rule="nonzero"/></clipPath><clipPath id="1f4d267fad"><path d="M 1359.074219 507.308594 L 1941.253906 372.425781 L 1973.070312 509.753906 L 1390.890625 644.636719 Z M 1359.074219 507.308594 " clip-rule="nonzero"/></clipPath><clipPath id="19d1e329c2"><path d="M 1359.074219 507.308594 L 1941.253906 372.425781 L 1973.070312 509.753906 L 1390.890625 644.636719 Z M 1359.074219 507.308594 " clip-rule="nonzero"/></clipPath><clipPath id="b56fcc97d7"><path d="M 2365 180 L 2942 180 L 2942 356 L 2365 356 Z M 2365 180 " clip-rule="nonzero"/></clipPath><clipPath id="c7fc8a70fd"><path d="M 2345.296875 274.449219 L 2927.480469 139.566406 L 2959.296875 276.894531 L 2377.113281 411.777344 Z M 2345.296875 274.449219 " clip-rule="nonzero"/></clipPath><clipPath id="c3c0c313c5"><path d="M 2345.296875 274.449219 L 2927.480469 139.566406 L 2959.296875 276.894531 L 2377.113281 411.777344 Z M 2345.296875 274.449219 " clip-rule="nonzero"/></clipPath></defs><g clip-path="url(#406989df8f)"><g clip-path="url(#89a2f76568)"><path fill="#bda6ff" d="M 0.347656 644.777344 L 372.847656 644.777344 L 372.847656 1017.273438 L 0.347656 1017.273438 Z M 0.347656 644.777344 " fill-opacity="1" fill-rule="nonzero"/></g></g><g fill="#ffffff" fill-opacity="1"><g transform="translate(106.588855, 884.718188)"><g><path d="M 46.859375 1.484375 C 34.828125 1.484375 25.5 -3.394531 18.875 -13.15625 C 12.257812 -22.914062 8.953125 -36.707031 8.953125 -54.53125 C 8.953125 -72.21875 12.285156 -85.976562 18.953125 -95.8125 C 25.628906 -105.644531 34.929688 -110.5625 46.859375 -110.5625 C 58.796875 -110.5625 68.097656 -105.644531 74.765625 -95.8125 C 81.441406 -85.976562 84.78125 -72.21875 84.78125 -54.53125 C 84.78125 -36.707031 81.46875 -22.914062 74.84375 -13.15625 C 68.226562 -3.394531 58.898438 1.484375 46.859375 1.484375 Z M 46.859375 -10.21875 C 54.816406 -10.21875 60.992188 -14.050781 65.390625 -21.71875 C 69.796875 -29.394531 72 -40.332031 72 -54.53125 C 72 -68.695312 69.78125 -79.660156 65.34375 -87.421875 C 60.90625 -95.179688 54.742188 -99.0625 46.859375 -99.0625 C 38.984375 -99.0625 32.828125 -95.179688 28.390625 -87.421875 C 23.953125 -79.660156 21.734375 -68.695312 21.734375 -54.53125 C 21.734375 -40.332031 23.941406 -29.394531 28.359375 -21.71875 C 32.773438 -14.050781 38.941406 -10.21875 46.859375 -10.21875 Z M 46.859375 -10.21875 "/></g></g></g><g fill="#ffffff" fill-opacity="1"><g transform="translate(200.315858, 884.718188)"><g><path d="M 46.21875 -109.0625 L 46.21875 0 L 33.015625 0 L 33.015625 -89.890625 L 32.171875 -89.890625 C 31.671875 -88.898438 30.390625 -87.773438 28.328125 -86.515625 C 26.273438 -85.253906 23.613281 -84.148438 20.34375 -83.203125 C 17.070312 -82.265625 13.34375 -81.796875 9.15625 -81.796875 L 9.15625 -92.875 C 13.382812 -92.875 17.039062 -93.632812 20.125 -95.15625 C 23.21875 -96.6875 25.800781 -98.484375 27.875 -100.546875 C 29.957031 -102.609375 31.539062 -104.472656 32.625 -106.140625 C 33.707031 -107.804688 34.335938 -108.78125 34.515625 -109.0625 Z M 46.21875 -109.0625 "/></g></g></g><g clip-path="url(#c9d7a02731)"><g clip-path="url(#9855a368c8)"><path fill="#bda6ff" d="M 986.574219 423.707031 L 1359.074219 423.707031 L 1359.074219 796.203125 L 986.574219 796.203125 Z M 986.574219 423.707031 " fill-opacity="1" fill-rule="nonzero"/></g></g><g fill="#ffffff" fill-opacity="1"><g transform="translate(1080.570698, 663.646231)"><g><path d="M 46.859375 1.484375 C 34.828125 1.484375 25.5 -3.394531 18.875 -13.15625 C 12.257812 -22.914062 8.953125 -36.707031 8.953125 -54.53125 C 8.953125 -72.21875 12.285156 -85.976562 18.953125 -95.8125 C 25.628906 -105.644531 34.929688 -110.5625 46.859375 -110.5625 C 58.796875 -110.5625 68.097656 -105.644531 74.765625 -95.8125 C 81.441406 -85.976562 84.78125 -72.21875 84.78125 -54.53125 C 84.78125 -36.707031 81.46875 -22.914062 74.84375 -13.15625 C 68.226562 -3.394531 58.898438 1.484375 46.859375 1.484375 Z M 46.859375 -10.21875 C 54.816406 -10.21875 60.992188 -14.050781 65.390625 -21.71875 C 69.796875 -29.394531 72 -40.332031 72 -54.53125 C 72 -68.695312 69.78125 -79.660156 65.34375 -87.421875 C 60.90625 -95.179688 54.742188 -99.0625 46.859375 -99.0625 C 38.984375 -99.0625 32.828125 -95.179688 28.390625 -87.421875 C 23.953125 -79.660156 21.734375 -68.695312 21.734375 -54.53125 C 21.734375 -40.332031 23.941406 -29.394531 28.359375 -21.71875 C 32.773438 -14.050781 38.941406 -10.21875 46.859375 -10.21875 Z M 46.859375 -10.21875 "/></g></g></g><g fill="#ffffff" fill-opacity="1"><g transform="translate(1174.297702, 663.646231)"><g><path d="M 11.296875 0 L 11.296875 -9.59375 L 47.296875 -49 C 51.515625 -53.613281 54.988281 -57.632812 57.71875 -61.0625 C 60.457031 -64.488281 62.492188 -67.71875 63.828125 -70.75 C 65.160156 -73.78125 65.828125 -76.96875 65.828125 -80.3125 C 65.828125 -86.0625 63.828125 -90.625 59.828125 -94 C 55.835938 -97.375 50.878906 -99.0625 44.953125 -99.0625 C 38.628906 -99.0625 33.601562 -97.171875 29.875 -93.390625 C 26.144531 -89.609375 24.28125 -84.609375 24.28125 -78.390625 L 11.71875 -78.390625 C 11.71875 -84.785156 13.191406 -90.394531 16.140625 -95.21875 C 19.085938 -100.050781 23.109375 -103.816406 28.203125 -106.515625 C 33.296875 -109.210938 39.019531 -110.5625 45.375 -110.5625 C 51.757812 -110.5625 57.421875 -109.210938 62.359375 -106.515625 C 67.296875 -103.816406 71.164062 -100.175781 73.96875 -95.59375 C 76.78125 -91.007812 78.1875 -85.914062 78.1875 -80.3125 C 78.1875 -76.300781 77.460938 -72.382812 76.015625 -68.5625 C 74.578125 -64.75 72.09375 -60.503906 68.5625 -55.828125 C 65.03125 -51.160156 60.140625 -45.472656 53.890625 -38.765625 L 29.390625 -12.5625 L 29.390625 -11.71875 L 80.09375 -11.71875 L 80.09375 0 Z M 11.296875 0 "/></g></g></g><g clip-path="url(#74525db478)"><g clip-path="url(#ca9bd2bf95)"><path fill="#bda6ff" d="M 1973.175781 225.667969 L 2345.671875 225.667969 L 2345.671875 598.164062 L 1973.175781 598.164062 Z M 1973.175781 225.667969 " fill-opacity="1" fill-rule="nonzero"/></g></g><g fill="#ffffff" fill-opacity="1"><g transform="translate(2064.827337, 465.608876)"><g><path d="M 46.859375 1.484375 C 34.828125 1.484375 25.5 -3.394531 18.875 -13.15625 C 12.257812 -22.914062 8.953125 -36.707031 8.953125 -54.53125 C 8.953125 -72.21875 12.285156 -85.976562 18.953125 -95.8125 C 25.628906 -105.644531 34.929688 -110.5625 46.859375 -110.5625 C 58.796875 -110.5625 68.097656 -105.644531 74.765625 -95.8125 C 81.441406 -85.976562 84.78125 -72.21875 84.78125 -54.53125 C 84.78125 -36.707031 81.46875 -22.914062 74.84375 -13.15625 C 68.226562 -3.394531 58.898438 1.484375 46.859375 1.484375 Z M 46.859375 -10.21875 C 54.816406 -10.21875 60.992188 -14.050781 65.390625 -21.71875 C 69.796875 -29.394531 72 -40.332031 72 -54.53125 C 72 -68.695312 69.78125 -79.660156 65.34375 -87.421875 C 60.90625 -95.179688 54.742188 -99.0625 46.859375 -99.0625 C 38.984375 -99.0625 32.828125 -95.179688 28.390625 -87.421875 C 23.953125 -79.660156 21.734375 -68.695312 21.734375 -54.53125 C 21.734375 -40.332031 23.941406 -29.394531 28.359375 -21.71875 C 32.773438 -14.050781 38.941406 -10.21875 46.859375 -10.21875 Z M 46.859375 -10.21875 "/></g></g></g><g fill="#ffffff" fill-opacity="1"><g transform="translate(2158.55434, 465.608876)"><g><path d="M 48.140625 1.484375 C 41.109375 1.484375 34.847656 0.28125 29.359375 -2.125 C 23.878906 -4.539062 19.53125 -7.90625 16.3125 -12.21875 C 13.101562 -16.53125 11.359375 -21.546875 11.078125 -27.265625 L 24.5 -27.265625 C 24.882812 -22.015625 27.304688 -17.859375 31.765625 -14.796875 C 36.222656 -11.742188 41.613281 -10.21875 47.9375 -10.21875 C 54.925781 -10.21875 60.679688 -12 65.203125 -15.5625 C 69.734375 -19.132812 72 -23.816406 72 -29.609375 C 72 -35.640625 69.769531 -40.554688 65.3125 -44.359375 C 60.863281 -48.160156 54.5 -50.0625 46.21875 -50.0625 L 37.5 -50.0625 L 37.5 -61.78125 L 46.21875 -61.78125 C 52.6875 -61.78125 57.960938 -63.5 62.046875 -66.9375 C 66.128906 -70.382812 68.171875 -74.984375 68.171875 -80.734375 C 68.171875 -86.234375 66.375 -90.660156 62.78125 -94.015625 C 59.195312 -97.378906 54.390625 -99.0625 48.359375 -99.0625 C 44.597656 -99.0625 41.054688 -98.375 37.734375 -97 C 34.410156 -95.632812 31.703125 -93.664062 29.609375 -91.09375 C 27.515625 -88.519531 26.378906 -85.421875 26.203125 -81.796875 L 13.421875 -81.796875 C 13.628906 -87.515625 15.347656 -92.53125 18.578125 -96.84375 C 21.816406 -101.15625 26.050781 -104.519531 31.28125 -106.9375 C 36.519531 -109.351562 42.28125 -110.5625 48.5625 -110.5625 C 55.3125 -110.5625 61.097656 -109.203125 65.921875 -106.484375 C 70.753906 -103.765625 74.46875 -100.1875 77.0625 -95.75 C 79.65625 -91.3125 80.953125 -86.519531 80.953125 -81.375 C 80.953125 -75.226562 79.34375 -69.988281 76.125 -65.65625 C 72.914062 -61.332031 68.5625 -58.335938 63.0625 -56.671875 L 63.0625 -55.8125 C 69.945312 -54.675781 75.320312 -51.753906 79.1875 -47.046875 C 83.0625 -42.347656 85 -36.535156 85 -29.609375 C 85 -23.679688 83.390625 -18.363281 80.171875 -13.65625 C 76.960938 -8.957031 72.585938 -5.257812 67.046875 -2.5625 C 61.503906 0.132812 55.203125 1.484375 48.140625 1.484375 Z M 48.140625 1.484375 "/></g></g></g><g clip-path="url(#aac4ea478a)"><g clip-path="url(#86554b4bd0)"><path fill="#bda6ff" d="M 2959.773438 0 L 3332.273438 0 L 3332.273438 372.5 L 2959.773438 372.5 Z M 2959.773438 0 " fill-opacity="1" fill-rule="nonzero"/></g></g><g fill="#ffffff" fill-opacity="1"><g transform="translate(3050.993686, 239.94102)"><g><path d="M 46.859375 1.484375 C 34.828125 1.484375 25.5 -3.394531 18.875 -13.15625 C 12.257812 -22.914062 8.953125 -36.707031 8.953125 -54.53125 C 8.953125 -72.21875 12.285156 -85.976562 18.953125 -95.8125 C 25.628906 -105.644531 34.929688 -110.5625 46.859375 -110.5625 C 58.796875 -110.5625 68.097656 -105.644531 74.765625 -95.8125 C 81.441406 -85.976562 84.78125 -72.21875 84.78125 -54.53125 C 84.78125 -36.707031 81.46875 -22.914062 74.84375 -13.15625 C 68.226562 -3.394531 58.898438 1.484375 46.859375 1.484375 Z M 46.859375 -10.21875 C 54.816406 -10.21875 60.992188 -14.050781 65.390625 -21.71875 C 69.796875 -29.394531 72 -40.332031 72 -54.53125 C 72 -68.695312 69.78125 -79.660156 65.34375 -87.421875 C 60.90625 -95.179688 54.742188 -99.0625 46.859375 -99.0625 C 38.984375 -99.0625 32.828125 -95.179688 28.390625 -87.421875 C 23.953125 -79.660156 21.734375 -68.695312 21.734375 -54.53125 C 21.734375 -40.332031 23.941406 -29.394531 28.359375 -21.71875 C 32.773438 -14.050781 38.941406 -10.21875 46.859375 -10.21875 Z M 46.859375 -10.21875 "/></g></g></g><g fill="#ffffff" fill-opacity="1"><g transform="translate(3144.720689, 239.94102)"><g><path d="M 8.734375 -22.375 L 8.734375 -33.234375 L 56.671875 -109.0625 L 72.640625 -109.0625 L 72.640625 -34.078125 L 87.546875 -34.078125 L 87.546875 -22.375 L 72.640625 -22.375 L 72.640625 0 L 60.078125 0 L 60.078125 -22.375 Z M 60.078125 -34.078125 L 60.078125 -92.234375 L 59.21875 -92.234375 L 23 -34.9375 L 23 -34.078125 Z M 60.078125 -34.078125 "/></g></g></g><g clip-path="url(#c85c5b914c)"><g clip-path="url(#cf6bb900b9)"><g clip-path="url(#8177a91f71)"><path fill="#6c5ffc" d="M 934.796875 684.074219 L 868.9375 659.261719 C 865.507812 657.96875 863.769531 654.128906 865.0625 650.695312 C 866.359375 647.261719 870.195312 645.523438 873.632812 646.816406 L 969.371094 682.890625 L 899.246094 757.394531 C 896.730469 760.066406 892.519531 760.195312 889.851562 757.679688 C 887.175781 755.164062 887.050781 750.949219 889.566406 748.277344 C 889.566406 748.277344 922.136719 713.667969 937.796875 697.03125 L 401.035156 821.390625 C 397.460938 822.21875 393.886719 819.988281 393.054688 816.414062 C 392.226562 812.839844 394.457031 809.261719 398.035156 808.433594 Z M 934.796875 684.074219 " fill-opacity="1" fill-rule="evenodd"/></g></g></g><g clip-path="url(#0ec3341ea0)"><g clip-path="url(#1f4d267fad)"><g clip-path="url(#19d1e329c2)"><path fill="#6c5ffc" d="M 1921.023438 451.214844 L 1855.164062 426.402344 C 1851.730469 425.109375 1849.996094 421.269531 1851.289062 417.835938 C 1852.582031 414.398438 1856.421875 412.664062 1859.855469 413.957031 L 1955.597656 450.03125 L 1885.472656 524.535156 C 1882.957031 527.207031 1878.746094 527.332031 1876.074219 524.816406 C 1873.402344 522.300781 1873.273438 518.089844 1875.789062 515.417969 C 1875.789062 515.417969 1908.363281 480.808594 1924.023438 464.171875 L 1387.261719 588.53125 C 1383.683594 589.359375 1380.109375 587.128906 1379.28125 583.554688 C 1378.453125 579.976562 1380.683594 576.402344 1384.257812 575.574219 Z M 1921.023438 451.214844 " fill-opacity="1" fill-rule="evenodd"/></g></g></g><g clip-path="url(#b56fcc97d7)"><g clip-path="url(#c7fc8a70fd)"><g clip-path="url(#c3c0c313c5)"><path fill="#6c5ffc" d="M 2907.246094 218.355469 L 2841.386719 193.542969 C 2837.957031 192.246094 2836.21875 188.410156 2837.511719 184.972656 C 2838.808594 181.539062 2842.644531 179.800781 2846.082031 181.097656 L 2941.820312 217.171875 L 2871.699219 291.671875 C 2869.183594 294.347656 2864.96875 294.472656 2862.300781 291.957031 C 2859.625 289.441406 2859.5 285.230469 2862.015625 282.558594 C 2862.015625 282.558594 2894.585938 247.949219 2910.25 231.3125 L 2373.484375 355.671875 C 2369.910156 356.5 2366.335938 354.269531 2365.507812 350.695312 C 2364.679688 347.117188 2366.910156 343.542969 2370.484375 342.714844 Z M 2907.246094 218.355469 " fill-opacity="1" fill-rule="evenodd"/></g></g></g></svg>