<svg width="1197" height="340" viewBox="0 0 1197 340" fill="none" xmlns="http://www.w3.org/2000/svg">
<mask id="mask0_71_40" style="mask-type:luminance" maskUnits="userSpaceOnUse" x="101" y="206" width="258" height="83">
<path d="M101 214.895L356.03 206L358.603 279.771L103.573 288.665L101 214.895Z" fill="white"/>
</mask>
<g mask="url(#mask0_71_40)">
<mask id="mask1_71_40" style="mask-type:luminance" maskUnits="userSpaceOnUse" x="94" y="188" width="270" height="128">
<path d="M94.9781 249.417L350.362 188.421L363.929 254.427L108.546 315.424L94.9781 249.417Z" fill="white"/>
</mask>
<g mask="url(#mask1_71_40)">
<mask id="mask2_71_40" style="mask-type:luminance" maskUnits="userSpaceOnUse" x="94" y="188" width="270" height="128">
<path d="M94.9781 249.417L350.362 188.421L363.929 254.427L108.546 315.424L94.9781 249.417Z" fill="white"/>
</mask>
<g mask="url(#mask2_71_40)">
<path id="arrow_01" fill-rule="evenodd" clip-rule="evenodd" d="M341.418 225.979L312.625 213.701C311.125 213.06 310.375 211.212 310.951 209.576C311.529 207.94 313.216 207.131 314.718 207.771L356.574 225.621L325.629 260.86C324.518 262.124 322.672 262.16 321.509 260.939C320.345 259.719 320.301 257.702 321.412 256.437C321.412 256.437 335.785 240.068 342.696 232.199L107.1 288.469C105.531 288.845 103.971 287.755 103.617 286.039C103.264 284.322 104.252 282.624 105.822 282.249L341.418 225.979Z" fill="#F95FFC"/>
</g>
</g>
</g>
<mask id="mask3_71_40" style="mask-type:luminance" maskUnits="userSpaceOnUse" x="459" y="122" width="272" height="84">
<path d="M459 131.895L728.333 122.501L730.906 196.272L461.573 205.665L459 131.895Z" fill="white"/>
</mask>
<g mask="url(#mask3_71_40)">
<mask id="mask4_71_40" style="mask-type:luminance" maskUnits="userSpaceOnUse" x="452" y="104" width="285" height="129">
<path d="M452.572 166.431L722.381 104.932L736.579 170.917L466.771 232.416L452.572 166.431Z" fill="white"/>
</mask>
<g mask="url(#mask4_71_40)">
<mask id="mask5_71_40" style="mask-type:luminance" maskUnits="userSpaceOnUse" x="452" y="104" width="285" height="129">
<path d="M452.571 166.431L722.38 104.932L736.578 170.917L466.77 232.416L452.571 166.431Z" fill="white"/>
</mask>
<g mask="url(#mask5_71_40)">
<path id="arrow_02" fill-rule="evenodd" clip-rule="evenodd" d="M712.862 142.51L682.481 130.287C680.898 129.649 680.109 127.803 680.72 126.165C681.334 124.528 683.117 123.716 684.702 124.353L728.868 142.123L696.12 177.425C694.945 178.691 692.996 178.73 691.77 177.511C690.542 176.293 690.501 174.276 691.675 173.01C691.675 173.01 706.886 156.611 714.199 148.728L465.296 205.463C463.639 205.841 461.993 204.754 461.624 203.038C461.254 201.322 462.3 199.622 463.959 199.244L712.862 142.51Z" fill="#6C5FFC"/>
</g>
</g>
</g>
<mask id="mask6_71_40" style="mask-type:luminance" maskUnits="userSpaceOnUse" x="832" y="38" width="267" height="84">
<path d="M832 47.8945L1096.34 38.6752L1098.92 112.446L834.573 121.665L832 47.8945Z" fill="white"/>
</mask>
<g mask="url(#mask6_71_40)">
<mask id="mask7_71_40" style="mask-type:luminance" maskUnits="userSpaceOnUse" x="825" y="21" width="280" height="128">
<path d="M825.715 82.4263L1090.49 21.1025L1104.47 87.0947L839.693 148.419L825.715 82.4263Z" fill="white"/>
</mask>
<g mask="url(#mask7_71_40)">
<mask id="mask8_71_40" style="mask-type:luminance" maskUnits="userSpaceOnUse" x="825" y="21" width="280" height="128">
<path d="M825.715 82.4263L1090.49 21.1025L1104.47 87.0947L839.693 148.419L825.715 82.4263Z" fill="white"/>
</mask>
<g mask="url(#mask8_71_40)">
<path id="arrow_03" fill-rule="evenodd" clip-rule="evenodd" d="M1081.17 58.6732L1051.35 46.4314C1049.79 45.7926 1049.02 43.9455 1049.62 42.3083C1050.22 40.6716 1051.97 39.8605 1053.52 40.4993L1096.88 58.2966L1064.77 93.5766C1063.61 94.8418 1061.7 94.8797 1060.5 93.6606C1059.29 92.4416 1059.25 90.4247 1060.4 89.1589C1060.4 89.1589 1075.32 72.7707 1082.49 64.8923L838.23 121.465C836.603 121.842 834.987 120.755 834.624 119.039C834.26 117.322 835.286 115.623 836.913 115.246L1081.17 58.6732Z" fill="#5FF7FC"/>
</g>
</g>
</g>
<mask id="mask9_71_40" style="mask-type:luminance" maskUnits="userSpaceOnUse" x="0" y="240" width="100" height="100">
<path d="M0 240.951L98.7773 240L100 339.049L1.22288 340L0 240.951Z" fill="white"/>
</mask>
<g mask="url(#mask9_71_40)">
<mask id="mask10_71_40" style="mask-type:luminance" maskUnits="userSpaceOnUse" x="0" y="240" width="100" height="100">
<path d="M49.3887 240.476C22.1122 240.738 0.273752 263.124 0.611439 290.476C0.949126 317.827 23.3351 339.787 50.6115 339.525C77.888 339.262 99.7265 316.876 99.3888 289.525C99.0511 262.173 76.6651 240.213 49.3887 240.476Z" fill="white"/>
</mask>
<g mask="url(#mask10_71_40)">
<path d="M0 240.951L98.7773 240L100 339.049L1.22288 340L0 240.951Z" fill="#00AEEF"/>
</g>
</g>
<path d="M41.8726 304.045C39.9464 304.045 38.3058 303.521 36.9507 302.472C35.5956 301.416 34.5601 299.886 33.8441 297.883C33.1282 295.872 32.7703 293.443 32.7703 290.596C32.7703 287.766 33.1282 285.35 33.8441 283.347C34.5686 281.336 35.6084 279.802 36.9635 278.745C38.3271 277.68 39.9635 277.147 41.8726 277.147C43.7816 277.147 45.4138 277.68 46.7689 278.745C48.1325 279.802 49.1723 281.336 49.8882 283.347C50.6126 285.35 50.9748 287.766 50.9748 290.596C50.9748 293.443 50.6169 295.872 49.901 297.883C49.1851 299.886 48.1495 301.416 46.7944 302.472C45.4393 303.521 43.7987 304.045 41.8726 304.045ZM41.8726 301.232C43.7816 301.232 45.2646 300.312 46.3214 298.471C47.3782 296.63 47.9067 294.005 47.9067 290.596C47.9067 288.329 47.6638 286.399 47.178 284.805C46.7007 283.211 46.0103 281.997 45.1069 281.161C44.212 280.326 43.1339 279.908 41.8726 279.908C39.9805 279.908 38.5018 280.842 37.4365 282.708C36.3711 284.566 35.8385 287.195 35.8385 290.596C35.8385 292.863 36.0771 294.789 36.5544 296.374C37.0316 297.96 37.7177 299.166 38.6126 299.992C39.516 300.819 40.6027 301.232 41.8726 301.232ZM65.0373 277.505V303.687H61.8669V280.829H61.7135L55.3214 285.073V281.852L61.8669 277.505H65.0373Z" fill="#808080"/>
<mask id="mask11_71_40" style="mask-type:luminance" maskUnits="userSpaceOnUse" x="362" y="160" width="100" height="100">
<path d="M362 160.951L460.777 160L462 259.049L363.223 260L362 160.951Z" fill="white"/>
</mask>
<g mask="url(#mask11_71_40)">
<mask id="mask12_71_40" style="mask-type:luminance" maskUnits="userSpaceOnUse" x="362" y="160" width="100" height="100">
<path d="M411.389 160.476C384.112 160.738 362.274 183.124 362.611 210.476C362.949 237.827 385.335 259.787 412.612 259.525C439.888 259.262 461.726 236.876 461.389 209.525C461.051 182.173 438.665 160.213 411.389 160.476Z" fill="white"/>
</mask>
<g mask="url(#mask12_71_40)">
<path d="M362 160.951L460.777 160L462 259.049L363.223 260L362 160.951Z" fill="#BDA6FF"/>
</g>
</g>
<path d="M399.246 224.309C397.32 224.309 395.679 223.785 394.324 222.737C392.969 221.68 391.934 220.15 391.218 218.147C390.502 216.136 390.144 213.707 390.144 210.86C390.144 208.031 390.502 205.614 391.218 203.611C391.942 201.6 392.982 200.066 394.337 199.009C395.701 197.944 397.337 197.411 399.246 197.411C401.155 197.411 402.787 197.944 404.142 199.009C405.506 200.066 406.546 201.6 407.262 203.611C407.986 205.614 408.348 208.031 408.348 210.86C408.348 213.707 407.99 216.136 407.275 218.147C406.559 220.15 405.523 221.68 404.168 222.737C402.813 223.785 401.172 224.309 399.246 224.309ZM399.246 221.496C401.155 221.496 402.638 220.576 403.695 218.735C404.752 216.894 405.28 214.269 405.28 210.86C405.28 208.593 405.037 206.663 404.551 205.069C404.074 203.475 403.384 202.261 402.48 201.425C401.586 200.59 400.507 200.173 399.246 200.173C397.354 200.173 395.875 201.106 394.81 202.972C393.745 204.83 393.212 207.46 393.212 210.86C393.212 213.127 393.451 215.053 393.928 216.638C394.405 218.224 395.091 219.43 395.986 220.256C396.89 221.083 397.976 221.496 399.246 221.496ZM413.206 223.951V221.65L421.848 212.19C422.863 211.082 423.698 210.119 424.354 209.3C425.01 208.474 425.496 207.698 425.811 206.974C426.135 206.241 426.297 205.474 426.297 204.673C426.297 203.752 426.076 202.955 425.632 202.282C425.198 201.609 424.601 201.089 423.843 200.722C423.084 200.356 422.232 200.173 421.286 200.173C420.28 200.173 419.402 200.381 418.652 200.799C417.911 201.208 417.336 201.783 416.926 202.525C416.526 203.266 416.326 204.136 416.326 205.133H413.309C413.309 203.599 413.662 202.252 414.37 201.093C415.077 199.934 416.04 199.031 417.259 198.383C418.486 197.735 419.863 197.411 421.388 197.411C422.922 197.411 424.282 197.735 425.466 198.383C426.651 199.031 427.58 199.904 428.253 201.004C428.926 202.103 429.263 203.326 429.263 204.673C429.263 205.636 429.088 206.577 428.739 207.498C428.398 208.41 427.801 209.428 426.949 210.553C426.105 211.67 424.934 213.033 423.434 214.644L417.553 220.934V221.138H429.723V223.951H413.206Z" fill="#FFA500"/>
<mask id="mask13_71_40" style="mask-type:luminance" maskUnits="userSpaceOnUse" x="732" y="80" width="100" height="100">
<path d="M732 80.951L830.777 80.0001L832 179.049L733.223 180L732 80.951Z" fill="white"/>
</mask>
<g mask="url(#mask13_71_40)">
<mask id="mask14_71_40" style="mask-type:luminance" maskUnits="userSpaceOnUse" x="732" y="80" width="100" height="100">
<path d="M781.389 80.4756C754.112 80.7381 732.274 103.124 732.611 130.476C732.949 157.827 755.335 179.787 782.612 179.525C809.888 179.262 831.726 156.876 831.389 129.525C831.051 102.173 808.665 80.213 781.389 80.4756Z" fill="white"/>
</mask>
<g mask="url(#mask14_71_40)">
<path d="M732 80.951L830.777 80.0001L832 179.049L733.223 180L732 80.951Z" fill="black"/>
</g>
</g>
<path d="M767.246 144.309C765.32 144.309 763.679 143.785 762.324 142.736C760.969 141.68 759.934 140.15 759.218 138.147C758.502 136.136 758.144 133.707 758.144 130.86C758.144 128.031 758.502 125.614 759.218 123.611C759.942 121.6 760.982 120.066 762.337 119.009C763.701 117.944 765.337 117.411 767.246 117.411C769.155 117.411 770.787 117.944 772.142 119.009C773.506 120.066 774.546 121.6 775.262 123.611C775.986 125.614 776.348 128.031 776.348 130.86C776.348 133.707 775.99 136.136 775.275 138.147C774.559 140.15 773.523 141.68 772.168 142.736C770.813 143.785 769.172 144.309 767.246 144.309ZM767.246 141.496C769.155 141.496 770.638 140.576 771.695 138.735C772.752 136.894 773.28 134.269 773.28 130.86C773.28 128.593 773.037 126.663 772.551 125.069C772.074 123.475 771.384 122.261 770.48 121.425C769.586 120.59 768.507 120.173 767.246 120.173C765.354 120.173 763.875 121.106 762.81 122.972C761.745 124.83 761.212 127.459 761.212 130.86C761.212 133.127 761.451 135.053 761.928 136.638C762.405 138.224 763.091 139.43 763.986 140.256C764.89 141.083 765.976 141.496 767.246 141.496ZM790.053 144.309C788.365 144.309 786.861 144.019 785.54 143.44C784.228 142.86 783.184 142.055 782.408 141.023C781.641 139.984 781.223 138.778 781.155 137.406H784.377C784.445 138.249 784.735 138.978 785.246 139.592C785.757 140.197 786.426 140.665 787.253 140.998C788.08 141.33 788.996 141.496 790.002 141.496C791.127 141.496 792.124 141.3 792.993 140.908C793.863 140.516 794.544 139.971 795.039 139.272C795.533 138.573 795.78 137.763 795.78 136.843C795.78 135.88 795.542 135.032 795.064 134.299C794.587 133.558 793.888 132.978 792.968 132.56C792.047 132.143 790.922 131.934 789.593 131.934H787.496V129.121H789.593C790.632 129.121 791.544 128.934 792.328 128.559C793.121 128.184 793.739 127.656 794.182 126.974C794.634 126.292 794.86 125.491 794.86 124.57C794.86 123.684 794.664 122.913 794.272 122.256C793.88 121.6 793.326 121.089 792.61 120.722C791.902 120.356 791.067 120.173 790.104 120.173C789.201 120.173 788.348 120.339 787.547 120.671C786.755 120.995 786.107 121.468 785.604 122.09C785.101 122.704 784.828 123.445 784.786 124.315H781.718C781.769 122.942 782.182 121.741 782.958 120.709C783.733 119.67 784.748 118.86 786 118.281C787.262 117.701 788.647 117.411 790.155 117.411C791.775 117.411 793.164 117.739 794.323 118.396C795.482 119.043 796.373 119.9 796.995 120.965C797.617 122.031 797.928 123.181 797.928 124.417C797.928 125.891 797.54 127.148 796.765 128.188C795.998 129.228 794.953 129.948 793.632 130.349V130.553C795.286 130.826 796.577 131.529 797.506 132.663C798.435 133.788 798.9 135.181 798.9 136.843C798.9 138.266 798.512 139.545 797.736 140.678C796.969 141.803 795.921 142.69 794.591 143.337C793.262 143.985 791.749 144.309 790.053 144.309Z" fill="white"/>
<mask id="mask15_71_40" style="mask-type:luminance" maskUnits="userSpaceOnUse" x="1097" y="0" width="100" height="100">
<path d="M1097 0.950981L1195.78 0.000139792L1197 99.0492L1098.22 100L1097 0.950981Z" fill="white"/>
</mask>
<g mask="url(#mask15_71_40)">
<mask id="mask16_71_40" style="mask-type:luminance" maskUnits="userSpaceOnUse" x="1097" y="0" width="100" height="100">
<path d="M1146.39 0.47556C1119.11 0.738127 1097.27 23.124 1097.61 50.4755C1097.95 77.827 1120.34 99.7872 1147.61 99.5246C1174.89 99.262 1196.73 76.8762 1196.39 49.5247C1196.05 22.1731 1173.67 0.212994 1146.39 0.47556Z" fill="white"/>
</mask>
<g mask="url(#mask16_71_40)">
<path d="M1097 0.950981L1195.78 0.000139792L1197 99.0492L1098.22 100L1097 0.950981Z" fill="#FF0000"/>
</g>
</g>
<path d="M1133.25 64.3089C1131.32 64.3089 1129.68 63.7848 1128.32 62.7365C1126.97 61.6797 1125.93 60.1498 1125.22 58.147C1124.5 56.1356 1124.14 53.7067 1124.14 50.8601C1124.14 48.0305 1124.5 45.6143 1125.22 43.6115C1125.94 41.6001 1126.98 40.066 1128.34 39.0092C1129.7 37.9439 1131.34 37.4112 1133.25 37.4112C1135.16 37.4112 1136.79 37.9439 1138.14 39.0092C1139.51 40.066 1140.55 41.6001 1141.26 43.6115C1141.99 45.6143 1142.35 48.0305 1142.35 50.8601C1142.35 53.7067 1141.99 56.1356 1141.27 58.147C1140.56 60.1498 1139.52 61.6797 1138.17 62.7365C1136.81 63.7848 1135.17 64.3089 1133.25 64.3089ZM1133.25 61.4964C1135.16 61.4964 1136.64 60.576 1137.69 58.7351C1138.75 56.8942 1139.28 54.2692 1139.28 50.8601C1139.28 48.593 1139.04 46.6626 1138.55 45.0689C1138.07 43.4751 1137.38 42.2606 1136.48 41.4254C1135.59 40.5902 1134.51 40.1726 1133.25 40.1726C1131.35 40.1726 1129.88 41.1058 1128.81 42.9723C1127.74 44.8302 1127.21 47.4595 1127.21 50.8601C1127.21 53.1271 1127.45 55.0533 1127.93 56.6385C1128.41 58.2237 1129.09 59.4297 1129.99 60.2564C1130.89 61.0831 1131.98 61.4964 1133.25 61.4964ZM1146.59 58.5817V55.9737L1158.1 37.7692H1159.99V41.8089H1158.71L1150.02 55.5646V55.7692H1165.51V58.5817H1146.59ZM1158.92 63.951V57.789V56.5746V37.7692H1161.93V63.951H1158.92Z" fill="#008000"/>
</svg>

