<svg width="38" height="39" viewBox="0 0 38 39" fill="none" xmlns="http://www.w3.org/2000/svg">
<g filter="url(#filter0_d_54_415)">
<rect x="3" y="2.75" width="32" height="32" rx="16" fill="white"/>
<rect x="2.5" y="2.25" width="33" height="33" rx="16.5" stroke="black" stroke-opacity="0.01"/>
<path d="M19 5.75C16.4288 5.75 13.9154 6.51244 11.7776 7.9409C9.63975 9.36935 7.97351 11.3997 6.98957 13.7751C6.00563 16.1506 5.74819 18.7644 6.2498 21.2862C6.75141 23.8079 7.98953 26.1243 9.80762 27.9424C11.6257 29.7605 13.9421 30.9986 16.4638 31.5002C18.9856 32.0018 21.5995 31.7444 23.9749 30.7604C26.3503 29.7765 28.3807 28.1103 29.8091 25.9724C31.2376 23.8346 32 21.3212 32 18.75C31.9964 15.3033 30.6256 11.9988 28.1884 9.56163C25.7512 7.12445 22.4467 5.75364 19 5.75ZM24.7075 16.4575L17.7075 23.4575C17.6146 23.5505 17.5043 23.6242 17.3829 23.6746C17.2615 23.7249 17.1314 23.7508 17 23.7508C16.8686 23.7508 16.7385 23.7249 16.6171 23.6746C16.4957 23.6242 16.3854 23.5505 16.2925 23.4575L13.2925 20.4575C13.1049 20.2699 12.9994 20.0154 12.9994 19.75C12.9994 19.4846 13.1049 19.2301 13.2925 19.0425C13.4801 18.8549 13.7346 18.7494 14 18.7494C14.2654 18.7494 14.5199 18.8549 14.7075 19.0425L17 21.3363L23.2925 15.0425C23.3854 14.9496 23.4957 14.8759 23.6171 14.8256C23.7385 14.7753 23.8686 14.7494 24 14.7494C24.1314 14.7494 24.2615 14.7753 24.3829 14.8256C24.5043 14.8759 24.6146 14.9496 24.7075 15.0425C24.8004 15.1354 24.8741 15.2457 24.9244 15.3671C24.9747 15.4885 25.0006 15.6186 25.0006 15.75C25.0006 15.8814 24.9747 16.0115 24.9244 16.1329C24.8741 16.2543 24.8004 16.3646 24.7075 16.4575Z" fill="#6C5FFC"/>
</g>
<defs>
<filter id="filter0_d_54_415" x="0" y="0.75" width="38" height="38" filterUnits="userSpaceOnUse" color-interpolation-filters="sRGB">
<feFlood flood-opacity="0" result="BackgroundImageFix"/>
<feColorMatrix in="SourceAlpha" type="matrix" values="0 0 0 0 0 0 0 0 0 0 0 0 0 0 0 0 0 0 127 0" result="hardAlpha"/>
<feOffset dy="1"/>
<feGaussianBlur stdDeviation="1"/>
<feColorMatrix type="matrix" values="0 0 0 0 0.0509804 0 0 0 0 0.0627451 0 0 0 0 0.0901961 0 0 0 0.06 0"/>
<feBlend mode="normal" in2="BackgroundImageFix" result="effect1_dropShadow_54_415"/>
<feBlend mode="normal" in="SourceGraphic" in2="effect1_dropShadow_54_415" result="shape"/>
</filter>
</defs>
</svg>
